aqtrmns.sfdir
StartChar: exclam
Encoding: 33 33 4
Width: 1020
VWidth: 0
Flags: W
LayerCount: 3
Back
Fore
SplineSet
510 255 m 156,-1,1
 574 255 574 255 574 191 c 30,2,-1
 574 64 l 30,3,4
 574 0 574 0 510 0 c 156,-1,5
 446 0 446 0 446 64 c 30,6,-1
 446 191 l 30,7,0
 446 255 446 255 510 255 c 156,-1,1
446 1211 m 30,8,9
 446 1275 446 1275 510 1275 c 156,-1,10
 574 1275 574 1275 574 1211 c 30,11,-1
 574 510 l 30,12,13
 574 446 574 446 510 446 c 156,-1,14
 446 446 446 446 446 510 c 30,15,-1
 446 1211 l 30,8,9
EndSplineSet
Validated: 1
Comment: "Starting to think I may use the 32 pixel spacing rather than the 64 because it matches what I have doing for the rest of the puncuation..  Equals, Greater Than etc..  That is considered punctuation, no?"
EndChar
StartChar: quotedbl
Encoding: 34 34 5
Width: 1020
VWidth: 0
Flags: W
LayerCount: 3
Back
Fore
SplineSet
701.5 1377 m 156,-1,1
 765 1377 765 1377 765 1313 c 30,2,-1
 765 1058 l 30,3,4
 765 994 765 994 701.5 994 c 156,-1,5
 638 994 638 994 638 1058 c 30,6,-1
 638 1313 l 30,7,0
 638 1377 638 1377 701.5 1377 c 156,-1,1
318.5 1377 m 156,-1,9
 382 1377 382 1377 382 1313 c 30,10,-1
 382 1058 l 30,11,12
 382 994 382 994 318.5 994 c 156,-1,13
 255 994 255 994 255 1058 c 30,14,-1
 255 1313 l 14,15,8
 255 1377 255 1377 318.5 1377 c 156,-1,9
EndSplineSet
Validated: 1
EndChar
StartChar: numbersign
Encoding: 35 35 6
Width: 1020
VWidth: 0
Flags: W
LayerCount: 3
Back
Fore
SplineSet
414 829 m 4,0,1
 382 829 382 829 382 797 c 30,2,-1
 382 478 l 22,3,4
 382 446 382 446 414 446 c 4,5,-1
 606 446 l 12,6,7
 638 446 638 446 638 478 c 14,8,-1
 638 797 l 30,9,10
 638 829 638 829 606 829 c 4,11,12
 510 829 510 829 414 829 c 4,0,1
255 988 m 14,13,-1
 255 1243 l 30,14,15
 255 1275 255 1275 287 1275 c 132,-1,16
 319 1275 319 1275 350.5 1275 c 132,-1,17
 382 1275 382 1275 382 1243 c 30,18,-1
 382 988 l 30,19,20
 382 956 382 956 414 956 c 4,21,22
 510 956 510 956 606 956 c 4,23,24
 638 956 638 956 638 988 c 30,25,-1
 638 1243 l 30,26,27
 638 1275 638 1275 669.5 1275 c 132,-1,28
 701 1275 701 1275 733 1275 c 132,-1,29
 765 1275 765 1275 765 1243 c 30,30,-1
 765 988 l 30,31,32
 765 956 765 956 797 956 c 132,-1,33
 829 956 829 956 860.5 956 c 132,-1,34
 892 956 892 956 892 924 c 14,35,-1
 892 861 l 30,36,37
 892 829 892 829 861 829 c 4,38,-1
 797 829 l 28,39,40
 765 829 765 829 765 797 c 14,41,-1
 765 478 l 30,42,43
 765 446 765 446 797 446 c 4,44,-1
 861 446 l 28,45,46
 892 446 892 446 892 414 c 14,47,-1
 892 351 l 30,48,49
 892 319 892 319 860.5 319 c 132,-1,50
 829 319 829 319 797 319 c 132,-1,51
 765 319 765 319 765 287 c 14,52,-1
 765 32 l 30,53,54
 765 0 765 0 733 0 c 132,-1,55
 701 0 701 0 669.5 0 c 132,-1,56
 638 0 638 0 638 32 c 30,57,-1
 638 287 l 30,58,59
 638 319 638 319 606 319 c 4,60,61
 510 319 510 319 414 319 c 4,62,63
 382 319 382 319 382 287 c 30,64,-1
 382 32 l 30,65,66
 382 0 382 0 350.5 0 c 132,-1,67
 319 0 319 0 287 0 c 132,-1,68
 255 0 255 0 255 32 c 14,69,-1
 255 287 l 30,70,71
 255 319 255 319 223 319 c 4,72,-1
 159 319 l 4,73,74
 128 319 128 319 128 351 c 14,75,-1
 128 414 l 30,76,77
 128 446 128 446 159 446 c 4,78,-1
 223 446 l 28,79,80
 255 446 255 446 255 478 c 14,81,-1
 255 797 l 30,82,83
 255 829 255 829 223 829 c 4,84,-1
 159 829 l 28,85,86
 128 829 128 829 128 861 c 14,87,-1
 128 924 l 30,88,89
 128 956 128 956 159.5 956 c 132,-1,90
 191 956 191 956 223 956 c 132,-1,91
 255 956 255 956 255 988 c 14,13,-1
EndSplineSet
Validated: 1
EndChar
StartChar: dollar
Encoding: 36 36 7
Width: 1020
VWidth: 0
Flags: W
LayerCount: 3
Back
Fore
SplineSet
446 861 m 30,0,-1
 446 1179 l 30,1,2
 446 1211 446 1211 414 1211 c 28,3,4
 366 1211 366 1211 319 1211 c 20,5,6
 318 1211 318 1211 317 1211 c 4,7,8
 255 1211 255 1211 255 1148 c 14,9,-1
 255 892 l 22,10,11
 255 829 255 829 317 829 c 4,12,13
 318 829 318 829 319 829 c 12,14,15
 366 829 366 829 414 829 c 28,16,17
 446 829 446 829 446 861 c 30,0,-1
574 669 m 30,18,-1
 574 351 l 30,19,20
 574 319 574 319 606 319 c 28,21,22
 654 319 654 319 701 319 c 20,23,24
 702 319 702 319 703 319 c 132,-1,25
 704 319 704 319 705 319 c 132,-1,26
 706 319 706 319 707 319 c 132,-1,27
 708 319 708 319 709 319 c 132,-1,28
 710 319 710 319 711 319 c 132,-1,29
 712 319 712 319 713 319 c 132,-1,30
 714 319 714 319 715 319 c 4,31,32
 765 319 765 319 765 382 c 13,33,-1
 765 638 l 22,34,35
 765 701 765 701 703 701 c 4,36,37
 702 701 702 701 701 701 c 12,38,39
 654 701 654 701 606 701 c 28,40,41
 574 701 574 701 574 669 c 30,18,-1
542 1530 m 156,-1,43
 574 1530 574 1530 574 1498 c 30,44,-1
 574 1371 l 30,45,46
 574 1339 574 1339 606 1339 c 28,47,48
 686 1339 686 1339 765 1339 c 28,49,50
 892 1339 892 1339 892 1211 c 30,51,-1
 892 1116 l 30,52,53
 892 1084 892 1084 860.5 1084 c 156,-1,54
 829 1084 829 1084 797 1084 c 156,-1,55
 765 1084 765 1084 765 1116 c 30,56,-1
 765 1148 l 22,57,58
 765 1211 765 1211 703 1211 c 4,59,60
 702 1211 702 1211 701 1211 c 12,61,62
 654 1211 654 1211 606 1211 c 28,63,64
 574 1211 574 1211 574 1179 c 30,65,-1
 574 861 l 30,66,67
 574 829 574 829 606 829 c 28,68,69
 686 829 686 829 765 829 c 28,70,71
 892 829 892 829 892 701 c 30,72,-1
 892 319 l 30,73,74
 892 191 892 191 765 191 c 28,75,76
 685 191 685 191 606 191 c 28,77,78
 574 191 574 191 574 159 c 30,79,-1
 574 32 l 30,80,81
 574 0 574 0 542 0 c 156,-1,82
 510 0 510 0 478 0 c 156,-1,83
 446 0 446 0 446 32 c 30,84,-1
 446 159 l 30,85,86
 446 191 446 191 414 191 c 28,87,88
 334 191 334 191 255 191 c 28,89,90
 128 191 128 191 128 319 c 30,91,-1
 128 414 l 30,92,93
 128 446 128 446 159.5 446 c 156,-1,94
 191 446 191 446 223 446 c 156,-1,95
 255 446 255 446 255 414 c 30,96,-1
 255 382 l 22,97,98
 255 319 255 319 317 319 c 4,99,100
 318 319 318 319 319 319 c 12,101,102
 366 319 366 319 414 319 c 28,103,104
 446 319 446 319 446 351 c 30,105,-1
 446 669 l 30,106,107
 446 701 446 701 414 701 c 28,108,109
 334 701 334 701 255 701 c 28,110,111
 128 701 128 701 128 829 c 30,112,-1
 128 1211 l 30,113,114
 128 1339 128 1339 255 1339 c 28,115,116
 335 1339 335 1339 414 1339 c 28,117,118
 446 1339 446 1339 446 1371 c 30,119,-1
 446 1498 l 30,120,121
 446 1530 446 1530 478 1530 c 156,-1,42
 510 1530 510 1530 542 1530 c 156,-1,43
EndSplineSet
Validated: 1
EndChar
StartChar: percent
Encoding: 37 37 8
Width: 1024
VWidth: 0
Flags: MW
LayerCount: 3
Back
Fore
SplineSet
608 223 m 30,0,-1
 608 160 l 30,1,2
 608 125 608 125 639 127 c 28,3,4
 672 129 672 129 705 129 c 28,5,6
 736 129 736 129 735 160 c 30,7,-1
 735 223 l 30,8,9
 735 256 735 256 703.5 256 c 156,-1,10
 672 256 672 256 640 256 c 156,-1,11
 608 256 608 256 608 223 c 30,0,-1
479 319 m 30,12,13
 479 382 479 382 545 383 c 28,14,15
 674 383 674 383 801 383 c 28,16,17
 864 383 864 383 864 319 c 30,18,-1
 864 63 l 30,19,20
 864 0 864 0 801 0 c 28,21,22
 672 0 672 0 545 0 c 28,23,24
 479 0 479 0 479 63 c 29,25,-1
 479 319 l 30,12,13
289 1120 m 30,26,-1
 289 1057 l 30,27,28
 289 1024 289 1024 320.5 1024 c 156,-1,29
 352 1024 352 1024 384 1024 c 156,-1,30
 416 1024 416 1024 416 1057 c 30,31,-1
 416 1120 l 30,32,33
 416 1153 416 1153 384 1153 c 156,-1,34
 352 1153 352 1153 320.5 1153 c 156,-1,35
 289 1153 289 1153 289 1120 c 30,26,-1
160 1217 m 30,36,37
 160 1280 160 1280 223 1280 c 28,38,39
 352 1280 352 1280 479 1280 c 28,40,41
 545 1280 545 1280 545 1217 c 29,42,-1
 545 961 l 30,43,44
 545 898 545 898 479 897 c 28,45,46
 350 897 350 897 223 897 c 28,47,48
 160 897 160 897 160 961 c 30,49,-1
 160 1217 l 30,36,37
832.5 1280 m 156,-1,51
 864 1280 864 1280 850 1247 c 30,52,-1
 303 33 l 30,53,54
 289 0 289 0 256 0 c 156,-1,55
 223 0 223 0 191.5 0 c 156,-1,56
 160 0 160 0 174 33 c 30,57,-1
 721 1247 l 30,58,59
 735 1280 735 1280 768 1280 c 156,-1,50
 801 1280 801 1280 832.5 1280 c 156,-1,51
EndSplineSet
Validated: 1
Layer: 2
SplineSet
680 255 m 25,0,-1
 765 170 l 25,1,-1
 850 255 l 25,2,-1
 765 340 l 25,3,-1
 680 255 l 25,0,-1
510 340 m 25,4,-1
 680 510 l 25,5,-1
 850 510 l 25,6,-1
 1020 340 l 25,7,-1
 1020 170 l 25,8,-1
 850 0 l 25,9,-1
 680 0 l 25,10,-1
 510 170 l 25,11,-1
 510 340 l 25,4,-1
170 1105 m 25,12,-1
 255 1020 l 25,13,-1
 340 1105 l 25,14,-1
 255 1190 l 25,15,-1
 170 1105 l 25,12,-1
0 1190 m 25,16,-1
 170 1360 l 25,17,-1
 340 1360 l 25,18,-1
 510 1190 l 25,19,-1
 510 1020 l 25,20,-1
 340 850 l 25,21,-1
 170 850 l 25,22,-1
 0 1020 l 25,23,-1
 0 1190 l 25,16,-1
680 1360 m 29,24,-1
 850 1360 l 29,25,-1
 340 0 l 29,26,-1
 170 0 l 29,27,-1
 680 1360 l 29,24,-1
EndSplineSet
Validated: 1
EndChar
StartChar: ampersand
Encoding: 38 38 9
Width: 1024
VWidth: 0
Flags: MW
LayerCount: 3
Back
Fore
SplineSet
223 193 m 29,0,-1
 289 129 l 29,1,-1
 479 129 l 29,2,-1
 672 319 l 29,3,-1
 416 575 l 29,4,-1
 352 575 l 29,5,-1
 223 449 l 29,6,-1
 223 193 l 29,0,-1
289 1087 m 29,7,-1
 289 897 l 29,8,-1
 416 768 l 29,9,-1
 479 768 l 29,10,-1
 608 897 l 29,11,-1
 608 1087 l 29,12,-1
 545 1153 l 29,13,-1
 354 1153 l 29,14,-1
 289 1087 l 29,7,-1
160 1153 m 29,15,-1
 289 1280 l 29,16,-1
 608 1280 l 29,17,-1
 735 1153 l 29,18,-1
 735 831 l 29,19,-1
 545 641 l 29,20,-1
 672 516 l 29,21,-1
 801 641 l 29,22,-1
 928 641 l 29,23,-1
 928 575 l 29,24,-1
 801 449 l 29,25,-1
 801 193 l 29,26,-1
 928 63 l 29,27,-1
 928 0 l 29,28,-1
 801 0 l 29,29,-1
 672 129 l 29,30,-1
 545 0 l 29,31,-1
 223 0 l 29,32,-1
 96 129 l 29,33,-1
 96 512 l 29,34,-1
 289 705 l 29,35,-1
 160 831 l 29,36,-1
 160 1153 l 29,15,-1
EndSplineSet
Validated: 1
Layer: 2
SplineSet
425 170 m 25,0,-1
 510 255 l 25,1,-1
 510 425 l 25,2,-1
 425 510 l 25,3,-1
 255 510 l 25,4,-1
 170 425 l 1,5,-1
 170 255 l 25,6,-1
 255 170 l 1,7,-1
 425 170 l 25,0,-1
340 1105 m 25,8,-1
 340 935 l 25,9,-1
 425 850 l 25,10,-1
 510 935 l 25,11,-1
 510 1105 l 25,12,-1
 425 1190 l 29,13,-1
 340 1105 l 25,8,-1
340 1360 m 25,14,-1
 510 1360 l 25,15,-1
 680 1190 l 25,16,-1
 680 850 l 25,17,-1
 510 680 l 25,18,-1
 680 510 l 25,19,-1
 680 680 l 25,20,-1
 850 680 l 25,21,-1
 850 510 l 25,22,-1
 680 340 l 25,23,-1
 850 170 l 25,24,-1
 850 0 l 25,25,-1
 680 0 l 25,26,-1
 680 170 l 25,27,-1
 510 0 l 25,28,-1
 170 0 l 25,29,-1
 0 170 l 25,30,-1
 0 510 l 25,31,-1
 170 680 l 25,32,-1
 340 680 l 25,33,-1
 170 850 l 25,34,-1
 170 1190 l 25,35,-1
 340 1360 l 25,14,-1
EndSplineSet
Validated: 1
Comment: "This one needs to be prettyfied.  I was having issues with it, so I'm going to come back to it."
EndChar
StartChar: quotesingle
Encoding: 39 39 10
Width: 1024
VWidth: 0
Flags: MW
LayerCount: 3
Back
Fore
SplineSet
512 1382 m 156,-1,1
 575 1382 575 1382 575 1319 c 30,2,-1
 575 1063 l 30,3,4
 575 1000 575 1000 512 999.5 c 156,-1,5
 449 999 449 999 449 1063 c 30,6,-1
 449 1319 l 30,7,0
 449 1382 449 1382 512 1382 c 156,-1,1
EndSplineSet
Validated: 33
Layer: 2
SplineSet
510 1530 m 29,0,-1
 510 1020 l 25,1,-1
 340 1020 l 25,2,-1
 340 1530 l 29,3,-1
 510 1530 l 29,0,-1
EndSplineSet
Validated: 1
EndChar
StartChar: parenleft
Encoding: 40 40 11
Width: 1020
VWidth: 0
Flags: W
LayerCount: 3
Back
Fore
SplineSet
701 32 m 26,0,1
 701 0 701 0 669.5 0 c 152,-1,2
 638 0 638 0 606 32 c 24,3,4
 542 95 542 95 478 159 c 24,5,6
 446 191 446 191 430 223 c 24,7,8
 383 318 383 318 335 414 c 24,9,10
 319 446 319 446 319 478 c 26,11,-1
 319 797 l 26,12,13
 319 829 319 829 335 861 c 24,14,15
 382 956 382 956 430 1052 c 24,16,17
 446 1084 446 1084 478 1116 c 24,18,19
 542 1179 542 1179 606 1243 c 24,20,21
 638 1275 638 1275 669.5 1275 c 152,-1,22
 701 1275 701 1275 701 1243 c 26,23,-1
 701 1179 l 26,24,25
 701 1148 701 1148 669.5 1116 c 152,-1,26
 638 1084 638 1084 606 1052 c 152,-1,27
 574 1020 574 1020 558 988 c 24,28,29
 510 893 510 893 462 797 c 24,30,31
 446 765 446 765 446 733 c 26,32,-1
 446 542 l 26,33,34
 446 510 446 510 462 478 c 24,35,36
 510 383 510 383 558 287 c 24,37,38
 574 255 574 255 606 223 c 152,-1,39
 638 191 638 191 669.5 159.5 c 152,-1,40
 701 128 701 128 701 96 c 26,41,-1
 701 32 l 26,0,1
EndSplineSet
Validated: 1
Comment: "Needs to be less Fucky.."
EndChar
StartChar: parenright
Encoding: 41 41 12
Width: 1020
VWidth: 0
Flags: W
LayerCount: 3
Back
Fore
SplineSet
319 1243 m 30,0,-1
 319 1179 l 30,1,2
 319 1147 319 1147 350.5 1115.5 c 156,-1,3
 382 1084 382 1084 414 1052 c 156,-1,4
 446 1020 446 1020 462 988 c 28,5,6
 510 892 510 892 558 797 c 28,7,8
 574 765 574 765 574 733 c 30,9,-1
 574 542 l 30,10,11
 574 510 574 510 558 478 c 28,12,13
 510 382 510 382 462 287 c 28,14,15
 446 255 446 255 414 223 c 156,-1,16
 382 191 382 191 350.5 159.5 c 156,-1,17
 319 128 319 128 319 96 c 30,18,-1
 319 32 l 30,19,20
 319 0 319 0 350.5 0 c 156,-1,21
 382 0 382 0 414 32 c 28,22,23
 478 96 478 96 542 159 c 28,24,25
 574 191 574 191 590 223 c 28,26,27
 638 319 638 319 685 414 c 28,28,29
 701 446 701 446 701 478 c 30,30,-1
 701 797 l 30,31,32
 701 829 701 829 685 861 c 28,33,34
 637 957 637 957 590 1052 c 28,35,36
 574 1084 574 1084 542 1116 c 28,37,38
 478 1180 478 1180 414 1243 c 28,39,40
 382 1275 382 1275 350.5 1275 c 156,-1,41
 319 1275 319 1275 319 1243 c 30,0,-1
EndSplineSet
Validated: 9
Comment: "Needs to be less Fucky.."
EndChar
StartChar: asterisk
Encoding: 42 42 13
Width: 1024
VWidth: 0
Flags: MW
LayerCount: 3
Back
SplineSet
222 730 m 1049
EndSplineSet
Fore
SplineSet
160 705 m 10,0,1
 383 705 l 17,2,3
 412 705 412 705 412 722 c 128,-1,4
 412 739 412 739 383 768 c 8,5,-1
 223 928 l 16,6,7
 186 965 186 965 186 993 c 0,8,-1
 186 995 l 0,9,10
 186 1020 186 1020 206.5 1040.5 c 128,-1,11
 227 1061 227 1061 252 1061 c 0,12,13
 285 1061 285 1061 319 1024 c 8,14,15
 335 1008 335 1008 352 991 c 24,16,17
 415 928 415 928 479 864 c 16,18,19
 495 848 495 848 512 848 c 0,20,-1
 545 864 l 8,21,22
 625 944 625 944 705 1024 c 16,23,24
 742 1061 742 1061 770 1061 c 0,25,-1
 772 1061 l 0,26,27
 797 1061 797 1061 817.5 1040.5 c 128,-1,28
 838 1020 838 1020 838 995 c 0,29,30
 838 962 838 962 801 928 c 8,31,32
 721 848 721 848 641 768 c 16,33,34
 612 739 612 739 612 722 c 128,-1,35
 612 705 612 705 641 705 c 9,36,-1
 864 705 l 26,37,-1
 928 641 l 16,38,-1
 928 639 l 0,39,40
 928 576 928 576 864 575 c 10,41,-1
 641 575 l 17,42,43
 612 571 612 571 612 556 c 128,-1,44
 612 541 612 541 641 512 c 8,45,-1
 801 352 l 16,46,47
 838 315 838 315 838 287 c 0,48,-1
 838 285 l 0,49,50
 838 260 838 260 817.5 239.5 c 128,-1,51
 797 219 797 219 772 219 c 0,52,53
 739 219 739 219 705 256 c 8,54,55
 689 272 689 272 672 289 c 24,56,57
 609 352 609 352 545 416 c 16,58,59
 529 432 529 432 512 432 c 0,60,-1
 479 416 l 8,61,62
 399 336 399 336 319 256 c 16,63,64
 282 219 282 219 254 219 c 0,65,-1
 252 219 l 0,66,67
 227 219 227 219 206.5 239.5 c 128,-1,68
 186 260 186 260 186 285 c 0,69,70
 186 318 186 318 223 352 c 8,71,72
 303 432 303 432 383 512 c 16,73,74
 412 541 412 541 412 556 c 128,-1,75
 412 571 412 571 383 575 c 9,76,-1
 160 575 l 26,77,78
 97 575 97 575 96 641 c 16,79,-1
 96 641 l 0,80,81
 97 705 97 705 160 705 c 10,0,1
EndSplineSet
Validated: 5
Layer: 2
SplineSet
340 680 m 25,0,-1
 170 850 l 25,1,-1
 340 850 l 25,2,-1
 510 680 l 29,3,-1
 680 850 l 25,4,-1
 850 850 l 25,5,-1
 680 680 l 25,6,-1
 850 680 l 25,7,-1
 850 510 l 25,8,-1
 680 510 l 25,9,-1
 850 340 l 25,10,-1
 680 340 l 25,11,-1
 510 510 l 25,12,-1
 340 340 l 25,13,-1
 170 340 l 25,14,-1
 340 510 l 25,15,-1
 170 510 l 25,16,-1
 170 680 l 25,17,-1
 340 680 l 25,0,-1
EndSplineSet
Validated: 1
Comment: "Needs to be more +ACIA-Pointy+ACIA in the center."
EndChar
StartChar: plus
Encoding: 43 43 14
Width: 1020
VWidth: 0
Flags: W
LayerCount: 3
Back
Fore
SplineSet
446 988 m 30,0,1
 446 1020 446 1020 478 1020 c 156,-1,2
 510 1020 510 1020 542 1020 c 156,-1,3
 574 1020 574 1020 574 988 c 30,4,-1
 574 733 l 30,5,6
 574 701 574 701 606 701 c 28,7,8
 734 701 734 701 861 701 c 28,9,10
 892 701 892 701 892 669 c 30,11,-1
 892 606 l 30,12,13
 892 574 892 574 861 574 c 28,14,15
 733 574 733 574 606 574 c 28,16,17
 574 574 574 574 574 542 c 30,18,-1
 574 287 l 30,19,20
 574 255 574 255 542 255 c 156,-1,21
 510 255 510 255 478 255 c 156,-1,22
 446 255 446 255 446 287 c 30,23,-1
 446 542 l 30,24,25
 446 574 446 574 414 574 c 28,26,27
 286 574 286 574 159 574 c 28,28,29
 128 574 128 574 128 606 c 30,30,-1
 128 669 l 30,31,32
 128 701 128 701 159 701 c 28,33,34
 287 701 287 701 414 701 c 28,35,36
 446 701 446 701 446 733 c 30,37,-1
 446 988 l 30,0,1
EndSplineSet
Validated: 1
EndChar
StartChar: comma
Encoding: 44 44 15
Width: 1024
VWidth: 0
Flags: W
LayerCount: 3
Back
Fore
SplineSet
512 230 m 156,-1,1
 576 230 576 230 576 166 c 30,2,-1
 576 6 l 30,3,4
 576 -26 576 -26 544 -58 c 156,-1,5
 512 -90 512 -90 480 -122 c 156,-1,6
 448 -154 448 -154 416 -154 c 156,-1,7
 384 -154 384 -154 352 -154 c 156,-1,8
 320 -154 320 -154 320 -122 c 156,-1,9
 320 -90 320 -90 352 -90 c 156,-1,10
 384 -90 384 -90 400 -58 c 156,-1,11
 416 -26 416 -26 432 6 c 156,-1,12
 448 38 448 38 448 70 c 30,13,-1
 448 166 l 30,14,0
 448 230 448 230 512 230 c 156,-1,1
EndSplineSet
Validated: 1
Comment: "Meh.."
EndChar
StartChar: hyphen
Encoding: 45 45 16
Width: 1020
VWidth: 0
Flags: W
LayerCount: 3
Back
Fore
SplineSet
159 701 m 28,0,1
 510 701 510 701 861 701 c 28,2,3
 892 701 892 701 892 669 c 30,4,-1
 892 606 l 30,5,6
 892 574 892 574 861 574 c 28,7,8
 510 574 510 574 159 574 c 28,9,10
 128 574 128 574 128 606 c 30,11,-1
 128 669 l 30,12,13
 128 701 128 701 159 701 c 28,0,1
EndSplineSet
Validated: 1
EndChar
StartChar: period
Encoding: 46 46 17
Width: 1020
VWidth: 0
Flags: W
LayerCount: 3
Back
Fore
SplineSet
510 126 m 156,-1,1
 574 126 574 126 574 64 c 28,2,3
 574 0 574 0 510 0 c 156,-1,4
 446 0 446 0 446 64 c 28,5,0
 446 126 446 126 510 126 c 156,-1,1
EndSplineSet
Validated: 1
Comment: "When I think of a +ACIA-Period+ACIA, I think of it as being a dot, and when I say +ACIA-Dot+ACIA I mean as a square.  The default style of the period in Terminus is more so like a rectangle rather than a square.  So with that being said I have modified the period to look more +ACIA-Period+ACIA like and transformed it into a square.+AAoACgAA-There also appears to be a problem with this character.  Apparently the +ACIA-Advanced Width+ACIA needs to be 500 if I remember what it said correctly.+AAoACgAA-Actually apparently they all have that problem.  (I'm assuming just because I checked the previous one.  Makes sence though)"
Colour: ff8000
EndChar
StartChar: slash
Encoding: 47 47 18
Width: 1020
VWidth: 0
Flags: W
LayerCount: 3
Back
Fore
SplineSet
829 1275 m 152,-1,1
 861 1275 861 1275 847 1243 c 26,2,-1
 301 32 l 26,3,4
 287 0 287 0 255 0 c 152,-1,5
 223 0 223 0 191 0 c 152,-1,6
 159 0 159 0 173 32 c 26,7,-1
 719 1243 l 26,8,9
 733 1275 733 1275 765 1275 c 152,-1,0
 797 1275 797 1275 829 1275 c 152,-1,1
EndSplineSet
Validated: 1
Comment: "Mostly happy with the results."
EndChar
StartChar: zero
Encoding: 48 48 19
Width: 1024
VWidth: 0
Flags: MW
LayerCount: 3
Back
Fore
SplineSet
768 193 m 10,0,-1
 768 768 l 26,1,2
 768 801 768 801 735 768 c 24,3,4
 512 545 512 545 289 319 c 24,5,6
 256 286 256 286 256 256 c 26,7,-1
 256 193 l 2,8,9
 256 130 256 130 319 129 c 24,10,11
 512 129 512 129 705 129 c 16,12,13
 707 129 l 0,14,15
 768 130 768 130 768 193 c 10,0,-1
256 1087 m 26,16,-1
 256 512 l 26,17,18
 256 479 256 479 289 512 c 24,19,20
 512 735 512 735 735 961 c 24,21,22
 768 994 768 994 768 1024 c 26,23,-1
 768 1087 l 26,24,25
 768 1153 768 1153 705 1153 c 24,26,27
 512 1153 512 1153 319 1153 c 24,28,29
 256 1153 256 1153 256 1087 c 26,16,-1
129 1153 m 18,30,31
 129 1280 129 1280 256 1280 c 0,32,33
 768 1280 l 0,34,35
 895 1280 895 1280 895 1153 c 26,36,-1
 895 129 l 18,37,38
 895 0 895 0 768 0 c 0,39,40
 512 0 512 0 256 0 c 0,41,42
 129 0 129 0 129 129 c 26,43,-1
 129 1153 l 18,30,31
EndSplineSet
Validated: 1
Layer: 2
SplineSet
680 255 m 25,0,-1
 680 765 l 29,1,-1
 170 340 l 25,2,-1
 170 255 l 25,3,-1
 255 170 l 25,4,-1
 595 170 l 25,5,-1
 680 255 l 25,0,-1
170 1105 m 25,6,-1
 170 595 l 25,7,-1
 680 1020 l 25,8,-1
 680 1105 l 25,9,-1
 595 1190 l 25,10,-1
 255 1190 l 25,11,-1
 170 1105 l 25,6,-1
0 1190 m 25,12,-1
 170 1360 l 25,13,-1
 680 1360 l 25,14,-1
 850 1190 l 25,15,-1
 850 170 l 25,16,-1
 680 0 l 25,17,-1
 170 0 l 25,18,-1
 0 170 l 25,19,-1
 0 1190 l 25,12,-1
EndSplineSet
Validated: 1
Comment: "Does it look stupid in middle?"
EndChar
StartChar: one
Encoding: 49 49 20
Width: 1020
VWidth: 0
Flags: W
LayerCount: 3
Back
Fore
SplineSet
255 1052 m 30,0,-1
 255 988 l 30,1,2
 255 956 255 956 287 956 c 156,-1,3
 319 956 319 956 350.5 956 c 156,-1,4
 382 956 382 956 382 988 c 156,-1,5
 382 1020 382 1020 414 1020 c 156,-1,6
 446 1020 446 1020 446 988 c 30,7,-1
 446 159 l 22,8,9
 446 128 446 128 414 128 c 28,10,11
 350 128 350 128 287 128 c 28,12,13
 255 128 255 128 255 96 c 30,14,-1
 255 32 l 30,15,16
 255 0 255 0 287 0 c 28,17,18
 510 0 510 0 733 0 c 28,19,20
 765 0 765 0 765 32 c 30,21,-1
 765 96 l 30,22,23
 765 128 765 128 733 128 c 28,24,25
 669 128 669 128 606 128 c 28,26,27
 574 128 574 128 574 159 c 30,28,-1
 574 1243 l 30,29,30
 574 1275 574 1275 542 1275 c 156,-1,31
 510 1275 510 1275 478 1275 c 156,-1,32
 446 1275 446 1275 414 1243 c 28,33,34
 350 1179 350 1179 287 1116 c 28,35,36
 255 1084 255 1084 255 1052 c 30,0,-1
EndSplineSet
Validated: 9
EndChar
StartChar: two
Encoding: 50 50 21
Width: 1024
VWidth: 0
Flags: MW
LayerCount: 3
Back
Fore
SplineSet
129 1151 m 18,0,1
 129 1280 129 1280 256 1280 c 24,2,3
 512 1280 512 1280 768 1280 c 24,4,5
 895 1280 895 1280 895 1151 c 26,6,-1
 895 735 l 26,7,8
 895 702 895 702 864 670 c 0,9,10
 641 447 641 447 352 158 c 0,11,12
 319 127 319 127 352 127 c 24,13,14
 608 127 608 127 864 127 c 24,15,16
 895 127 895 127 895 96 c 26,17,-1
 895 31 l 26,18,19
 895 0 895 0 864 0 c 24,20,21
 512 0 512 0 160 0 c 24,22,23
 129 0 129 0 129 31 c 26,24,-1
 129 96 l 26,25,26
 129 129 129 129 160 158 c 24,27,28
 449 447 449 447 735 735 c 24,29,30
 768 768 768 768 768 799 c 26,31,-1
 768 1087 l 26,32,33
 768 1150 768 1150 705 1151 c 24,34,35
 512 1151 512 1151 319 1151 c 24,36,37
 256 1151 256 1151 256 1087 c 26,38,-1
 256 864 l 26,39,40
 256 831 256 831 224.5 831 c 152,-1,41
 193 831 193 831 161 831 c 152,-1,42
 129 831 129 831 129 864 c 26,43,-1
 129 1151 l 18,0,1
EndSplineSet
Validated: 1
Layer: 2
SplineSet
0 1190 m 25,0,-1
 170 1360 l 25,1,-1
 680 1360 l 25,2,-1
 850 1190 l 29,3,-1
 850 765 l 17,4,-1
 255 170 l 9,5,-1
 850 170 l 25,6,-1
 850 0 l 25,7,-1
 0 0 l 25,8,-1
 0 170 l 25,9,-1
 680 850 l 25,10,-1
 680 1105 l 25,11,-1
 595 1190 l 25,12,-1
 255 1190 l 25,13,-1
 170 1105 l 25,14,-1
 170 850 l 25,15,-1
 0 850 l 25,16,-1
 0 1190 l 25,0,-1
EndSplineSet
Validated: 1
Comment: "Not liking how the one bottom curve is coming out.  If you can't see it, then it doesn't bother you.  :)"
EndChar
StartChar: three
Encoding: 51 51 22
Width: 1024
VWidth: 0
Flags: MW
LayerCount: 3
Back
Fore
SplineSet
129 991 m 26,0,-1
 129 1153 l 18,1,2
 129 1280 129 1280 256 1280 c 24,3,4
 512 1280 512 1280 768 1280 c 24,5,6
 895 1280 895 1280 895 1153 c 26,7,-1
 895 735 l 26,8,9
 895 704 895 704 864 705 c 24,10,11
 831 705 831 705 831 672 c 26,12,-1
 831 608 l 26,13,14
 831 575 831 575 863 575 c 152,-1,15
 895 575 895 575 895 545 c 26,16,-1
 895 129 l 26,17,18
 895 0 895 0 768 0 c 24,19,20
 512 0 512 0 256 0 c 24,21,22
 129 0 129 0 129 129 c 26,23,-1
 129 289 l 26,24,25
 129 320 129 320 160 319 c 24,26,27
 193 319 193 319 225 319 c 24,28,29
 256 319 256 319 256 289 c 26,30,-1
 256 193 l 18,31,32
 256 130 256 130 319 129 c 24,33,34
 512 129 512 129 705 129 c 24,35,36
 768 129 768 129 768 193 c 26,37,-1
 768 512 l 26,38,39
 768 575 768 575 705 575 c 24,40,41
 529 575 529 575 352 575 c 24,42,43
 319 575 319 575 319 608 c 26,44,-1
 319 672 l 26,45,46
 319 705 319 705 352 705 c 24,47,48
 528 705 528 705 705 705 c 24,49,50
 768 705 768 705 768 768 c 26,51,-1
 768 1087 l 26,52,53
 768 1153 768 1153 705 1153 c 24,54,55
 512 1153 512 1153 319 1153 c 24,56,57
 256 1153 256 1153 256 1087 c 26,58,-1
 256 991 l 26,59,60
 256 958 256 958 225 958 c 24,61,62
 192 958 192 958 160.5 958 c 152,-1,63
 129 958 129 958 129 991 c 26,0,-1
EndSplineSet
Validated: 1
Layer: 2
SplineSet
0 1190 m 25,0,-1
 170 1360 l 25,1,-1
 680 1360 l 25,2,-1
 850 1190 l 25,3,-1
 850 850 l 25,4,-1
 765 850 l 25,5,-1
 765 680 l 25,6,-1
 850 680 l 25,7,-1
 850 170 l 25,8,-1
 680 0 l 25,9,-1
 170 0 l 25,10,-1
 0 170 l 25,11,-1
 0 340 l 25,12,-1
 170 340 l 29,13,-1
 170 255 l 29,14,-1
 255 170 l 25,15,-1
 595 170 l 25,16,-1
 680 255 l 25,17,-1
 680 595 l 25,18,-1
 595 680 l 25,19,-1
 340 680 l 25,20,-1
 340 850 l 25,21,-1
 595 850 l 25,22,-1
 680 935 l 25,23,-1
 680 1105 l 25,24,-1
 595 1190 l 25,25,-1
 255 1190 l 25,26,-1
 170 1105 l 25,27,-1
 170 1020 l 25,28,-1
 0 1020 l 25,29,-1
 0 1190 l 25,0,-1
EndSplineSet
Validated: 1
EndChar
StartChar: four
Encoding: 52 52 23
Width: 1024
VWidth: 0
Flags: W
LayerCount: 3
Back
Fore
SplineSet
768 454 m 30,0,-1
 768 966 l 30,1,2
 768 998 768 998 736 998 c 156,-1,3
 704 998 704 998 672 966 c 28,4,5
 480 774 480 774 288 582 c 28,6,7
 256 550 256 550 256 518 c 30,8,-1
 256 454 l 30,9,10
 256 422 256 422 288 422 c 28,11,12
 512 422 512 422 736 422 c 28,13,14
 768 422 768 422 768 454 c 30,0,-1
896 1222 m 30,15,-1
 896 6 l 30,16,17
 896 -26 896 -26 864 -26 c 156,-1,18
 832 -26 832 -26 800 -26 c 156,-1,19
 768 -26 768 -26 768 6 c 30,20,-1
 768 262 l 30,21,22
 768 294 768 294 736 294 c 28,23,24
 448 294 448 294 160 294 c 28,25,26
 128 294 128 294 128 326 c 30,27,-1
 128 582 l 30,28,29
 128 614 128 614 160 646 c 28,30,31
 448 934 448 934 736 1222 c 28,32,33
 768 1254 768 1254 800 1254 c 156,-1,34
 832 1254 832 1254 864 1254 c 156,-1,35
 896 1254 896 1254 896 1222 c 30,15,-1
EndSplineSet
Validated: 1
EndChar
StartChar: five
Encoding: 53 53 24
Width: 1024
VWidth: 0
Flags: MW
LayerCount: 3
Back
Fore
SplineSet
129 1247 m 26,0,1
 129 1280 129 1280 160 1280 c 24,2,3
 512 1280 512 1280 864 1280 c 24,4,5
 895 1280 895 1280 895 1247 c 26,6,-1
 895 1184 l 18,7,8
 895 1153 895 1153 864 1153 c 24,9,10
 575 1153 575 1153 289 1153 c 24,11,12
 256 1153 256 1153 256 1120 c 26,13,-1
 256 801 l 26,14,15
 256 768 256 768 289 768 c 24,16,17
 529 768 529 768 768 768 c 24,18,19
 895 768 895 768 895 641 c 26,20,-1
 895 129 l 26,21,22
 895 0 895 0 768 0 c 24,23,24
 512 0 512 0 256 0 c 24,25,26
 129 0 129 0 129 129 c 26,27,-1
 129 223 l 26,28,29
 129 256 129 256 161 256 c 152,-1,30
 193 256 193 256 224.5 256 c 152,-1,31
 256 256 256 256 256 223 c 26,32,-1
 256 193 l 18,33,34
 256 130 256 130 319 129 c 24,35,36
 526 129 526 129 735 129 c 24,37,38
 768 129 768 129 768 160 c 26,39,-1
 768 575 l 26,40,41
 768 641 768 641 705 641 c 24,42,43
 433 641 433 641 160 641 c 24,44,45
 129 641 129 641 129 672 c 26,46,-1
 129 1247 l 26,0,1
EndSplineSet
Validated: 1
Layer: 2
SplineSet
0 1360 m 25,0,-1
 850 1360 l 25,1,-1
 850 1190 l 25,2,-1
 170 1190 l 25,3,-1
 170 850 l 25,4,-1
 680 850 l 25,5,-1
 850 680 l 25,6,-1
 850 170 l 25,7,-1
 680 0 l 25,8,-1
 170 0 l 25,9,-1
 0 170 l 25,10,-1
 0 340 l 25,11,-1
 170 340 l 25,12,-1
 170 255 l 25,13,-1
 170 170 l 25,14,-1
 595 170 l 25,15,-1
 680 255 l 25,16,-1
 680 595 l 25,17,-1
 595 680 l 25,18,-1
 0 680 l 29,19,-1
 0 1360 l 25,0,-1
EndSplineSet
Validated: 1
Comment: "The bottom left of the five looks a bit fat to me.  Notice how that some of the curves are 32 pixels apart and others 64.  I'm comfidient with my decision in have it be 32 pixels for all cases such as the top right of the 5, but for the top left, I'm not sure if I'm confidient in choosing 32 or 64.  I looked at the previous numbers as a reference, but none have really been like this.  But when I think about it the bottom on the number two may help with my final decision..  Yes both the two and one use 32 pixels so that is my final decision."
EndChar
StartChar: six
Encoding: 54 54 25
Width: 1020
VWidth: 0
Flags: W
LayerCount: 3
Back
Fore
SplineSet
255 607 m 26,0,-1
 255 192 l 22,1,2
 255 129 255 129 319 129 c 24,3,4
 510 129 510 129 701 129 c 24,5,6
 765 129 765 129 765 192 c 26,7,-1
 765 575 l 26,8,9
 765 639 765 639 701 639 c 24,10,11
 494 639 494 639 287 639 c 24,12,13
 255 639 255 639 255 607 c 26,0,-1
829 1244 m 26,14,-1
 829 1180 l 22,15,16
 829 1149 829 1149 797 1149 c 24,17,18
 558 1149 558 1149 319 1149 c 24,19,20
 255 1149 255 1149 255 1085 c 26,21,-1
 255 798 l 26,22,23
 255 766 255 766 287 766 c 24,24,25
 526 766 526 766 765 766 c 24,26,27
 892 766 892 766 892 639 c 26,28,-1
 892 129 l 26,29,30
 892 1 892 1 765 1 c 24,31,32
 510 1 510 1 255 1 c 24,33,34
 128 1 128 1 128 129 c 26,35,-1
 128 1149 l 26,36,37
 128 1277 128 1277 255 1276 c 24,38,39
 526 1276 526 1276 797 1276 c 24,40,41
 829 1276 829 1276 829 1244 c 26,14,-1
EndSplineSet
Validated: 33
EndChar
StartChar: seven
Encoding: 55 55 26
Width: 1024
VWidth: 0
Flags: MW
LayerCount: 3
Back
Fore
SplineSet
160 1280 m 24,0,1
 512 1280 512 1280 864 1280 c 24,2,3
 895 1280 895 1280 895 1247 c 26,4,-1
 895 991 l 26,5,6
 895 958 895 958 881 928 c 24,7,8
 738 639 738 639 592 352 c 24,9,10
 576 319 576 319 575 289 c 26,11,-1
 575 33 l 26,12,13
 575 0 575 0 543.5 0 c 152,-1,14
 512 0 512 0 480.5 0 c 152,-1,15
 449 0 449 0 449 33 c 26,16,-1
 449 289 l 26,17,18
 449 322 449 322 463 352 c 24,19,20
 606 641 606 641 752 928 c 24,21,22
 768 961 768 961 768 991 c 26,23,-1
 768 1120 l 26,24,25
 768 1153 768 1153 735 1153 c 24,26,27
 512 1153 512 1153 289 1153 c 24,28,29
 256 1153 256 1153 256 1120 c 26,30,-1
 256 928 l 18,31,32
 256 897 256 897 224.5 897 c 152,-1,33
 193 897 193 897 161 897 c 152,-1,34
 129 897 129 897 129 928 c 26,35,-1
 129 1247 l 26,36,37
 129 1280 129 1280 160 1280 c 24,0,1
EndSplineSet
Validated: 1
Layer: 2
SplineSet
0 1360 m 25,0,-1
 850 1360 l 25,1,-1
 850 850 l 25,2,-1
 510 510 l 25,3,-1
 510 0 l 25,4,-1
 340 0 l 25,5,-1
 340 510 l 25,6,-1
 680 850 l 25,7,-1
 680 1190 l 25,8,-1
 0 1190 l 29,9,-1
 0 1360 l 25,0,-1
EndSplineSet
Validated: 1
EndChar
StartChar: eight
Encoding: 56 56 27
Width: 1024
VWidth: 0
Flags: W
LayerCount: 3
Back
Fore
SplineSet
320 550 m 28,0,1
 256 550 256 550 256 486 c 30,2,-1
 256 166 l 30,3,4
 256 102 256 102 320 102 c 28,5,6
 512 102 512 102 704 102 c 28,7,8
 768 102 768 102 768 166 c 30,9,-1
 768 486 l 30,10,11
 768 550 768 550 704 550 c 28,12,13
 512 550 512 550 320 550 c 28,0,1
320 1126 m 28,14,15
 256 1126 256 1126 256 1062 c 30,16,-1
 256 742 l 30,17,18
 256 678 256 678 320 678 c 28,19,20
 512 678 512 678 704 678 c 28,21,22
 768 678 768 678 768 742 c 30,23,-1
 768 1062 l 30,24,25
 768 1126 768 1126 704 1126 c 28,26,27
 512 1126 512 1126 320 1126 c 28,14,15
256 1254 m 28,28,29
 512 1254 512 1254 768 1254 c 28,30,31
 896 1254 896 1254 896 1126 c 30,32,-1
 896 710 l 30,33,34
 896 678 896 678 864 678 c 156,-1,35
 832 678 832 678 832 646 c 30,36,-1
 832 582 l 30,37,38
 832 550 832 550 864 550 c 156,-1,39
 896 550 896 550 896 518 c 30,40,-1
 896 102 l 30,41,42
 896 -26 896 -26 768 -26 c 28,43,44
 512 -26 512 -26 256 -26 c 28,45,46
 128 -26 128 -26 128 102 c 30,47,-1
 128 518 l 30,48,49
 128 550 128 550 160 550 c 156,-1,50
 192 550 192 550 192 582 c 30,51,-1
 192 646 l 30,52,53
 192 678 192 678 160 678 c 156,-1,54
 128 678 128 678 128 710 c 30,55,-1
 128 1126 l 30,56,57
 128 1254 128 1254 256 1254 c 28,28,29
EndSplineSet
Validated: 1
EndChar
StartChar: nine
Encoding: 57 57 28
Width: 1024
VWidth: 0
Flags: W
LayerCount: 3
Back
Fore
SplineSet
320 1126 m 28,0,1
 256 1126 256 1126 256 1062 c 30,2,-1
 256 678 l 30,3,4
 256 614 256 614 320 614 c 28,5,6
 528 614 528 614 736 614 c 28,7,8
 768 614 768 614 768 646 c 30,9,-1
 768 1062 l 30,10,11
 768 1126 768 1126 704 1126 c 28,12,13
 512 1126 512 1126 320 1126 c 28,0,1
128 1126 m 30,14,15
 128 1254 128 1254 256 1254 c 28,16,17
 512 1254 512 1254 768 1254 c 28,18,19
 896 1254 896 1254 896 1126 c 30,20,-1
 896 102 l 30,21,22
 896 -26 896 -26 768 -26 c 28,23,24
 496 -26 496 -26 224 -26 c 28,25,26
 192 -26 192 -26 192 6 c 30,27,-1
 192 70 l 30,28,29
 192 102 192 102 224 102 c 28,30,31
 464 102 464 102 704 102 c 28,32,33
 768 102 768 102 768 166 c 30,34,-1
 768 454 l 30,35,36
 768 486 768 486 736 486 c 28,37,38
 496 486 496 486 256 486 c 28,39,40
 128 486 128 486 128 614 c 30,41,-1
 128 1126 l 30,14,15
EndSplineSet
Validated: 1
EndChar
StartChar: colon
Encoding: 58 58 29
Width: 1024
VWidth: 0
Flags: W
LayerCount: 3
Back
Fore
SplineSet
512 870 m 156,-1,1
 576 870 576 870 576 806 c 30,2,-1
 576 678 l 30,3,4
 576 614 576 614 512 614 c 156,-1,5
 448 614 448 614 448 678 c 30,6,-1
 448 806 l 30,7,0
 448 870 448 870 512 870 c 156,-1,1
512 230 m 156,-1,9
 576 230 576 230 576 166 c 30,10,-1
 576 38 l 30,11,12
 576 -26 576 -26 512 -26 c 156,-1,13
 448 -26 448 -26 448 38 c 30,14,-1
 448 166 l 30,15,8
 448 230 448 230 512 230 c 156,-1,9
EndSplineSet
Validated: 1
EndChar
StartChar: semicolon
Encoding: 59 59 30
Width: 1024
VWidth: 0
Flags: MW
LayerCount: 3
Back
Fore
SplineSet
576.5 256 m 152,-1,1
 641 256 641 256 641 193 c 26,2,-1
 641 33 l 26,3,4
 641 0 641 0 608 -33 c 24,5,6
 545 -96 l 24,7,8
 512 -127 512 -127 480.5 -127 c 152,-1,9
 449 -127 449 -127 416 -127 c 152,-1,10
 383 -127 383 -127 383 -96 c 24,11,12
 383 -63 383 -63 416 -63 c 152,-1,13
 449 -63 449 -63 464 -31.5 c 152,-1,14
 479 0 479 0 495.5 31.5 c 152,-1,15
 512 63 512 63 512 96 c 26,16,-1
 512 193 l 26,17,0
 512 256 512 256 576.5 256 c 152,-1,1
576.5 897 m 152,-1,19
 641 897 641 897 641 831 c 26,20,-1
 641 705 l 18,21,22
 641 642 641 642 576.5 641.5 c 152,-1,23
 512 641 512 641 512 705 c 26,24,-1
 512 831 l 26,25,18
 512 897 512 897 576.5 897 c 152,-1,19
EndSplineSet
Validated: 33
Layer: 2
SplineSet
340 340 m 25,0,-1
 510 340 l 25,1,-1
 510 0 l 25,2,-1
 340 -170 l 29,3,-1
 170 -170 l 25,4,-1
 340 85 l 25,5,-1
 340 340 l 25,0,-1
510 1020 m 25,6,-1
 510 680 l 25,7,-1
 340 680 l 25,8,-1
 340 1020 l 25,9,-1
 510 1020 l 25,6,-1
EndSplineSet
Validated: 1
EndChar
StartChar: less
Encoding: 60 60 31
Width: 1024
VWidth: 0
Flags: MW
LayerCount: 3
Back
Fore
SplineSet
152 672 m 24,0,1
 441 961 441 961 727 1247 c 24,2,3
 760 1280 760 1280 791.5 1280 c 152,-1,4
 823 1280 823 1280 855 1280 c 152,-1,5
 887 1280 887 1280 887 1248.5 c 152,-1,6
 887 1217 887 1217 856 1184 c 24,7,8
 600 928 600 928 344 672 c 24,9,10
 311 639 311 639 344 608 c 24,11,12
 600 352 600 352 856 96 c 24,13,14
 889 63 889 63 889 31.5 c 144,-1,15
 889 0 889 0 856 0 c 152,-1,16
 823 0 823 0 791.5 0 c 152,-1,17
 760 0 760 0 727 33 c 24,18,19
 438 322 438 322 152 608 c 24,20,21
 119 639 119 639 152 672 c 24,0,1
EndSplineSet
Validated: 1
Layer: 2
SplineSet
701 1190 m 29,0,-1
 106 595 l 29,1,-1
 701 0 l 29,2,-1
 871 0 l 29,3,-1
 276 595 l 29,4,-1
 871 1190 l 29,5,-1
 701 1190 l 29,0,-1
EndSplineSet
Validated: 9
Comment: "Don't think I'm liking the right where the angle to the middle start..  (That probably didn't make sence...)"
EndChar
StartChar: equal
Encoding: 61 61 32
Width: 1024
VWidth: 0
Flags: MW
LayerCount: 3
Back
Fore
SplineSet
160 512 m 24,0,1
 512 512 512 512 864 512 c 24,2,3
 895 512 895 512 895 481 c 26,4,-1
 895 416 l 18,5,6
 895 385 895 385 864 385 c 24,7,8
 512 385 512 385 160 385 c 24,9,10
 129 385 129 385 129 416 c 26,11,-1
 129 481 l 26,12,13
 129 512 129 512 160 512 c 24,0,1
160 897 m 24,14,15
 512 897 512 897 864 897 c 24,16,17
 895 897 895 897 895 866 c 26,18,-1
 895 801 l 26,19,20
 895 768 895 768 864 768 c 24,21,22
 512 768 512 768 160 768 c 24,23,24
 129 768 129 768 129 801 c 26,25,-1
 129 866 l 26,26,27
 129 897 129 897 160 897 c 24,14,15
EndSplineSet
Validated: 1
Layer: 2
SplineSet
0 510 m 29,0,-1
 850 510 l 25,1,-1
 850 340 l 25,2,-1
 0 340 l 25,3,-1
 0 510 l 29,0,-1
0 1020 m 25,4,-1
 850 1020 l 25,5,-1
 850 850 l 25,6,-1
 0 850 l 25,7,-1
 0 1020 l 25,4,-1
EndSplineSet
Validated: 1
EndChar
StartChar: greater
Encoding: 62 62 33
Width: 1020
VWidth: 0
Flags: W
LayerCount: 3
Back
Fore
SplineSet
868.5 606 m 28,0,1
 581.5 319 581.5 319 294.5 32 c 28,2,3
 262.5 0 262.5 0 230.5 0 c 156,-1,4
 198.5 0 198.5 0 167 0 c 156,-1,5
 135.5 0 135.5 0 135.5 32 c 156,-1,6
 135.5 64 135.5 64 166.5 96 c 28,7,8
 421.5 351 421.5 351 676.5 606 c 28,9,10
 708.5 638 708.5 638 676.5 669 c 28,11,12
 417.420898438 919.985351562 417.420898438 919.985351562 166.5 1179 c 4,13,14
 135.5 1211 135.5 1211 135.5 1243 c 156,-1,15
 135.5 1275 135.5 1275 167 1275 c 156,-1,16
 198.5 1275 198.5 1275 230.5 1275 c 156,-1,17
 262.5 1275 262.5 1275 294.5 1243 c 28,18,19
 581.5 956 581.5 956 868.5 669 c 28,20,21
 900.5 638 900.5 638 868.5 606 c 28,0,1
EndSplineSet
Validated: 524289
Comment: "Don't think I'm liking the left where the angle to the middle start..  (That probably didn't make sence...)"
EndChar
StartChar: question
Encoding: 63 63 34
Width: 1024
VWidth: 0
Flags: MW
LayerCount: 3
Back
Fore
SplineSet
512 256 m 152,-1,1
 575 256 575 256 575 193 c 26,2,-1
 575 63 l 26,3,4
 575 0 575 0 512 0 c 152,-1,5
 449 0 449 0 449 63 c 26,6,-1
 449 193 l 26,7,0
 449 256 449 256 512 256 c 152,-1,1
129 864 m 26,8,-1
 129 1153 l 18,9,10
 129 1280 129 1280 256 1280 c 24,11,12
 512 1280 512 1280 768 1280 c 24,13,14
 895 1280 895 1280 895 1153 c 26,15,-1
 895 801 l 26,16,17
 895 768 895 768 864 735 c 24,18,19
 735 606 735 606 608 479 c 24,20,21
 575 446 575 446 575 415.5 c 152,-1,22
 575 385 575 385 543.5 385 c 152,-1,23
 512 385 512 385 480.5 385 c 152,-1,24
 449 385 449 385 449 416 c 26,25,-1
 449 479 l 26,26,27
 449 512 449 512 479 545 c 24,28,29
 608 674 608 674 735 801 c 24,30,31
 768 834 768 834 768 864 c 26,32,-1
 768 1087 l 26,33,34
 768 1153 768 1153 705 1153 c 24,35,36
 512 1153 512 1153 319 1153 c 24,37,38
 256 1153 256 1153 256 1087 c 26,39,-1
 256 864 l 26,40,41
 256 831 256 831 224.5 831 c 152,-1,42
 193 831 193 831 161 831 c 152,-1,43
 129 831 129 831 129 864 c 26,8,-1
EndSplineSet
Validated: 1
Layer: 2
SplineSet
340 510 m 17,0,-1
 340 680 l 1,1,-1
 680 1020 l 13,2,-1
 680 1105 l 25,3,-1
 595 1190 l 25,4,-1
 255 1190 l 25,5,-1
 170 1105 l 25,6,-1
 170 850 l 25,7,-1
 0 850 l 25,8,-1
 0 1190 l 25,9,-1
 170 1360 l 25,10,-1
 680 1360 l 25,11,-1
 850 1190 l 25,12,-1
 850 935 l 17,13,-1
 510 595 l 1,14,-1
 510 510 l 9,15,-1
 340 510 l 17,0,-1
510 340 m 25,16,-1
 510 0 l 25,17,-1
 340 0 l 25,18,-1
 340 340 l 25,19,-1
 510 340 l 25,16,-1
EndSplineSet
Validated: 1
Comment: "The +ACIA-Dot+ACIA should be 32 pixels spaced rather than 64.  Characters that are 64 pixels spaced, are punctuation."
EndChar
StartChar: at
Encoding: 64 64 35
Width: 1024
VWidth: 0
Flags: MWO
LayerCount: 3
Back
Fore
SplineSet
768 897 m 24,0,1
 655 897 655 897 545 897 c 24,2,3
 479 897 479 897 479 831 c 25,4,-1
 479 449 l 18,5,6
 479 386 479 386 543 385 c 0,7,8
 545 385 l 8,9,10
 639 385 639 385 735 385 c 24,11,12
 801 385 801 385 801 449 c 25,13,-1
 801 864 l 26,14,15
 801 897 801 897 768 897 c 24,0,1
96 1153 m 18,16,17
 96 1280 96 1280 223 1280 c 24,18,19
 512 1280 512 1280 801 1280 c 0,20,21
 928 1280 928 1280 928 1153 c 26,22,-1
 928 289 l 26,23,24
 928 256 928 256 896 256 c 152,-1,25
 864 256 864 256 832.5 256 c 152,-1,26
 801 256 801 256 801 287.5 c 152,-1,27
 801 319 801 319 768 319 c 152,-1,28
 735 319 735 319 735 287.5 c 152,-1,29
 735 256 735 256 705 256 c 24,30,31
 594 256 594 256 479 256 c 16,32,33
 352 256 352 256 352 383 c 0,34,35
 352 385 l 10,36,-1
 352 897 l 18,37,38
 352 1024 352 1024 479 1024 c 24,39,40
 622 1024 622 1024 768 1024 c 24,41,42
 801 1024 801 1024 801 1057 c 26,43,-1
 801 1087 l 26,44,45
 801 1153 801 1153 735 1153 c 24,46,47
 512 1153 512 1153 289 1153 c 24,48,49
 223 1153 223 1153 223 1087 c 25,50,-1
 223 193 l 18,51,52
 223 130 223 130 289 129 c 24,53,54
 594 129 594 129 895 129 c 24,55,56
 928 129 928 129 928 96 c 26,57,-1
 928 33 l 26,58,59
 928 0 928 0 895 0 c 24,60,61
 559 0 559 0 223 0 c 0,62,63
 96 0 96 0 96 129 c 26,64,-1
 96 1153 l 18,16,17
EndSplineSet
Validated: 1
Layer: 2
SplineSet
850 170 m 29,0,-1
 850 0 l 25,1,-1
 170 0 l 25,2,-1
 0 170 l 25,3,-1
 0 1190 l 25,4,-1
 170 1360 l 25,5,-1
 680 1360 l 25,6,-1
 850 1190 l 25,7,-1
 850 340 l 25,8,-1
 510 340 l 25,9,-1
 340 510 l 25,10,-1
 340 850 l 25,11,-1
 510 1020 l 25,12,-1
 680 1020 l 25,13,-1
 680 1105 l 25,14,-1
 595 1190 l 25,15,-1
 255 1190 l 25,16,-1
 170 1105 l 25,17,-1
 170 255 l 25,18,-1
 255 170 l 25,19,-1
 850 170 l 29,0,-1
EndSplineSet
EndChar
StartChar: A
Encoding: 65 65 36
Width: 1024
VWidth: 0
Flags: MW
LayerCount: 3
Back
Fore
SplineSet
256 1087 m 26,0,1
 256 672 l 18,2,3
 256 641 256 641 289 641 c 24,4,5
 512 641 512 641 735 641 c 24,6,7
 768 641 768 641 768 672 c 26,8,-1
 768 1087 l 26,9,10
 768 1153 768 1153 705 1153 c 24,11,12
 512 1153 512 1153 319 1153 c 24,13,14
 256 1153 256 1153 256 1087 c 26,0,1
161 0 m 152,-1,16
 129 0 129 0 129 33 c 26,17,-1
 129 1153 l 18,18,19
 129 1280 129 1280 256 1280 c 24,20,21
 512 1280 512 1280 768 1280 c 24,22,23
 895 1280 895 1280 895 1153 c 26,24,-1
 895 33 l 26,25,26
 895 0 895 0 863 0 c 152,-1,27
 831 0 831 0 799.5 0 c 152,-1,28
 768 0 768 0 768 33 c 26,29,-1
 768 479 l 26,30,31
 768 512 768 512 735 512 c 24,32,33
 512 512 512 512 289 512 c 24,34,35
 256 512 256 512 256 479 c 26,36,-1
 256 33 l 26,37,38
 256 0 256 0 224.5 0 c 152,-1,15
 193 0 193 0 161 0 c 152,-1,16
EndSplineSet
Validated: 1
Layer: 2
Validated: 1
EndChar
StartChar: B
Encoding: 66 66 37
Width: 1024
VWidth: 0
Flags: W
LayerCount: 3
Back
Fore
SplineSet
256 1094 m 30,0,-1
 256 774 l 30,1,2
 256 742 256 742 288 742 c 28,3,4
 464 742 464 742 640 742 c 28,5,6
 704 742 704 742 704 806 c 30,7,-1
 704 1062 l 30,8,9
 704 1126 704 1126 640 1126 c 28,10,11
 464 1126 464 1126 288 1126 c 28,12,13
 256 1126 256 1126 256 1094 c 30,0,-1
256 582 m 30,14,-1
 256 134 l 30,15,16
 256 102 256 102 288 102 c 28,17,18
 496 102 496 102 704 102 c 28,19,20
 768 102 768 102 768 166 c 30,21,-1
 768 486 l 30,22,23
 768 614 768 614 640 614 c 28,24,25
 464 614 464 614 288 614 c 28,26,27
 256 614 256 614 256 582 c 30,14,-1
160 1254 m 28,28,29
 432 1254 432 1254 704 1254 c 28,30,31
 832 1254 832 1254 832 1126 c 30,32,-1
 832 742 l 30,33,34
 832 678 832 678 768 678 c 29,35,36
 896 678 896 678 896 550 c 30,37,-1
 896 102 l 30,38,39
 896 -26 896 -26 768 -26 c 28,40,41
 464 -26 464 -26 160 -26 c 28,42,43
 128 -26 128 -26 128 6 c 30,44,-1
 128 1222 l 30,45,46
 128 1254 128 1254 160 1254 c 28,28,29
EndSplineSet
Validated: 1
Comment: "Before the 'B' was kind of hard to dis distinguis from the number '8'.  Well it's not anymore.  I have modified it a bit, mainly because I couldn't get it to come out the iriginal way.."
Colour: ff8000
EndChar
StartChar: C
Encoding: 67 67 38
Width: 1020
VWidth: 0
Flags: W
LayerCount: 3
Back
Fore
SplineSet
128 1148 m 22,0,1
 128 1275 128 1275 255 1275 c 28,2,3
 510 1275 510 1275 765 1275 c 28,4,5
 892 1275 892 1275 892 1148 c 30,6,-1
 892 988 l 30,7,8
 892 956 892 956 860.5 956 c 156,-1,9
 829 956 829 956 797 956 c 156,-1,10
 765 956 765 956 765 988 c 30,11,-1
 765 1084 l 30,12,13
 765 1148 765 1148 701 1148 c 28,14,15
 510 1148 510 1148 319 1148 c 28,16,17
 255 1148 255 1148 255 1084 c 30,18,-1
 255 191 l 22,19,20
 255 128 255 128 319 128 c 28,21,22
 510 128 510 128 701 128 c 28,23,24
 765 128 765 128 765 191 c 30,25,-1
 765 287 l 30,26,27
 765 319 765 319 797 319 c 156,-1,28
 829 319 829 319 860.5 319 c 156,-1,29
 892 319 892 319 892 287 c 30,30,-1
 892 128 l 30,31,32
 892 0 892 0 765 0 c 28,33,34
 510 0 510 0 255 0 c 28,35,36
 128 0 128 0 128 128 c 30,37,-1
 128 1148 l 22,0,1
EndSplineSet
Validated: 1
EndChar
StartChar: D
Encoding: 68 68 39
Width: 1020
VWidth: 0
Flags: W
LayerCount: 3
Back
Fore
SplineSet
255 1116 m 26,0,-1
 255 159 l 26,1,2
 255 128 255 128 287 128 c 24,3,4
 462 128 462 128 638 128 c 24,5,6
 765 128 765 128 765 255 c 25,7,-1
 765 1020 l 25,8,9
 765 1148 765 1148 638 1148 c 24,10,11
 462 1148 462 1148 287 1148 c 24,12,13
 255 1148 255 1148 255 1116 c 26,0,-1
159 1275 m 24,14,15
 398 1275 398 1275 638 1275 c 24,16,17
 892 1275 892 1275 892 1020 c 26,18,-1
 892 255 l 26,19,20
 892 0 892 0 638 0 c 24,21,22
 399 0 399 0 159 0 c 24,23,24
 128 0 128 0 128 32 c 26,25,-1
 128 1243 l 26,26,27
 128 1275 128 1275 159 1275 c 24,14,15
EndSplineSet
Validated: 1
EndChar
StartChar: E
Encoding: 69 69 40
Width: 1024
VWidth: 0
Flags: MW
LayerCount: 3
Back
Fore
SplineSet
160 1280 m 24,0,1
 512 1280 512 1280 864 1280 c 24,2,3
 895 1280 895 1280 895 1247 c 26,4,-1
 895 1184 l 26,5,6
 895 1153 895 1153 864 1153 c 24,7,8
 575 1153 575 1153 289 1153 c 24,9,10
 256 1153 256 1153 256 1120 c 26,11,-1
 256 735 l 26,12,13
 256 704 256 704 289 705 c 24,14,15
 482 705 482 705 672 705 c 24,16,17
 705 705 705 705 705 672 c 26,18,-1
 705 608 l 26,19,20
 705 575 705 575 672 575 c 24,21,22
 479 575 479 575 289 575 c 24,23,24
 256 575 256 575 256 545 c 26,25,-1
 256 160 l 26,26,27
 256 129 256 129 289 129 c 24,28,29
 578 129 578 129 864 129 c 24,30,31
 895 129 895 129 895 96 c 26,32,-1
 895 33 l 26,33,34
 895 0 895 0 864 0 c 24,35,36
 512 0 512 0 160 0 c 24,37,38
 129 0 129 0 129 33 c 26,39,-1
 129 1247 l 26,40,41
 129 1280 129 1280 160 1280 c 24,0,1
EndSplineSet
Validated: 1
Layer: 2
Validated: 1
EndChar
StartChar: F
Encoding: 70 70 41
Width: 1024
VWidth: 0
Flags: MW
LayerCount: 3
Back
Fore
SplineSet
160 1280 m 24,0,1
 512 1280 512 1280 864 1280 c 24,2,3
 895 1280 895 1280 895 1247 c 26,4,-1
 895 1184 l 26,5,6
 895 1153 895 1153 864 1153 c 24,7,8
 575 1153 575 1153 289 1153 c 24,9,10
 256 1153 256 1153 256 1120 c 26,11,-1
 256 735 l 26,12,13
 256 704 256 704 289 705 c 24,14,15
 482 705 482 705 672 705 c 24,16,17
 705 705 705 705 705 672 c 26,18,-1
 705 608 l 26,19,20
 705 575 705 575 672 575 c 24,21,22
 479 575 479 575 289 575 c 24,23,24
 256 575 256 575 256 545 c 26,25,-1
 256 33 l 26,26,27
 256 0 256 0 224.5 0 c 152,-1,28
 193 0 193 0 161 0 c 152,-1,29
 129 0 129 0 129 33 c 26,30,-1
 129 1247 l 26,31,32
 129 1280 129 1280 160 1280 c 24,0,1
EndSplineSet
Validated: 1
Layer: 2
Validated: 1
EndChar
StartChar: G
Encoding: 71 71 42
Width: 1024
VWidth: 0
Flags: MW
LayerCount: 3
Back
Fore
SplineSet
129 1153 m 26,0,1
 129 1280 129 1280 256 1280 c 24,2,3
 512 1280 512 1280 768 1280 c 24,4,5
 895 1280 895 1280 895 1153 c 26,6,-1
 895 991 l 26,7,8
 895 959 895 959 863 959.5 c 152,-1,9
 831 960 831 960 799.5 960 c 152,-1,10
 768 960 768 960 768 991 c 26,11,-1
 768 1087 l 26,12,13
 768 1153 768 1153 705 1153 c 24,14,15
 512 1153 512 1153 319 1153 c 24,16,17
 256 1153 256 1153 256 1087 c 26,18,-1
 256 193 l 26,19,20
 256 130 256 130 319 129 c 24,21,22
 512 129 512 129 705 129 c 24,23,24
 768 129 768 129 768 193 c 26,25,-1
 768 545 l 26,26,27
 768 576 768 576 735 575 c 24,28,29
 639 575 639 575 545 575 c 24,30,31
 512 575 512 575 512 608 c 26,32,-1
 512 672 l 26,33,34
 512 705 512 705 545 705 c 24,35,36
 705 705 705 705 864 705 c 24,37,38
 895 705 895 705 895 672 c 26,39,-1
 895 129 l 26,40,41
 895 0 895 0 768 0 c 24,42,43
 512 0 512 0 256 0 c 24,44,45
 129 0 129 0 129 129 c 26,46,-1
 129 1153 l 26,0,1
EndSplineSet
Validated: 1
Layer: 2
Validated: 1
EndChar
StartChar: H
Encoding: 72 72 43
Width: 1020
VWidth: 0
Flags: W
LayerCount: 3
Back
Fore
SplineSet
159.5 1275 m 152,-1,1
 191 1275 191 1275 223 1275 c 152,-1,2
 255 1275 255 1275 255 1243 c 26,3,-1
 255 733 l 26,4,5
 255 701 255 701 287 701 c 24,6,7
 510 701 510 701 733 701 c 24,8,9
 765 701 765 701 765 733 c 26,10,-1
 765 1243 l 26,11,12
 765 1275 765 1275 797 1275 c 152,-1,13
 829 1275 829 1275 860.5 1275 c 152,-1,14
 892 1275 892 1275 892 1243 c 26,15,-1
 892 32 l 26,16,17
 892 0 892 0 860.5 0 c 152,-1,18
 829 0 829 0 797 0 c 152,-1,19
 765 0 765 0 765 32 c 26,20,-1
 765 542 l 26,21,22
 765 574 765 574 733 574 c 24,23,24
 510 574 510 574 287 574 c 24,25,26
 255 574 255 574 255 542 c 26,27,-1
 255 32 l 26,28,29
 255 0 255 0 223 0 c 152,-1,30
 191 0 191 0 159.5 0 c 152,-1,31
 128 0 128 0 128 32 c 26,32,-1
 128 1243 l 26,33,0
 128 1275 128 1275 159.5 1275 c 152,-1,1
EndSplineSet
Validated: 1
EndChar
StartChar: I
Encoding: 73 73 44
Width: 1020
VWidth: 0
Flags: W
LayerCount: 3
Back
Fore
SplineSet
351 1275 m 24,0,1
 510 1275 510 1275 669 1275 c 24,2,3
 701 1275 701 1275 701 1243 c 26,4,-1
 701 1179 l 26,5,6
 701 1148 701 1148 670 1148 c 24,7,8
 638 1148 638 1148 606 1148 c 152,-1,9
 574 1148 574 1148 574 1116 c 26,10,-1
 574 159 l 26,11,12
 574 128 574 128 606 128 c 152,-1,13
 638 128 638 128 669.5 128 c 152,-1,14
 701 128 701 128 701 96 c 26,15,-1
 701 32 l 26,16,17
 701 0 701 0 669 0 c 24,18,19
 510 0 510 0 351 0 c 24,20,21
 319 0 319 0 319 32 c 26,22,-1
 319 96 l 26,23,24
 319 128 319 128 350.5 128 c 152,-1,25
 382 128 382 128 414 128 c 152,-1,26
 446 128 446 128 446 159 c 26,27,-1
 446 1116 l 26,28,29
 446 1148 446 1148 414 1148 c 152,-1,30
 382 1148 382 1148 350.5 1148 c 152,-1,31
 319 1148 319 1148 319 1179 c 26,32,-1
 319 1243 l 26,33,34
 319 1275 319 1275 351 1275 c 24,0,1
EndSplineSet
Validated: 1
EndChar
StartChar: J
Encoding: 74 74 45
Width: 1024
VWidth: 0
Flags: W
LayerCount: 3
Back
Fore
SplineSet
576 1254 m 28,0,1
 736 1254 736 1254 896 1254 c 28,2,3
 928 1254 928 1254 928 1222 c 30,4,-1
 928 1158 l 30,5,6
 928 1126 928 1126 896 1126 c 156,-1,7
 864 1126 864 1126 832 1126 c 156,-1,8
 800 1126 800 1126 800 1094 c 30,9,-1
 800 102 l 30,10,11
 800 -26 800 -26 672 -26 c 28,12,13
 448 -26 448 -26 224 -26 c 28,14,15
 96 -26 96 -26 96 102 c 30,16,-1
 96 326 l 30,17,18
 96 358 96 358 128 358 c 156,-1,19
 160 358 160 358 192 358 c 156,-1,20
 224 358 224 358 224 326 c 30,21,-1
 224 166 l 30,22,23
 224 102 224 102 288 102 c 28,24,25
 448 102 448 102 608 102 c 28,26,27
 672 102 672 102 672 166 c 30,28,-1
 672 1094 l 30,29,30
 672 1126 672 1126 640 1126 c 156,-1,31
 608 1126 608 1126 576 1126 c 156,-1,32
 544 1126 544 1126 544 1158 c 30,33,-1
 544 1222 l 30,34,35
 544 1254 544 1254 576 1254 c 28,0,1
EndSplineSet
Validated: 1
EndChar
StartChar: K
Encoding: 75 75 46
Width: 1024
VWidth: 0
Flags: MW
LayerCount: 3
Back
Fore
SplineSet
129 1247 m 26,0,1
 129 1280 129 1280 161 1280 c 152,-1,2
 193 1280 193 1280 224.5 1280 c 152,-1,3
 256 1280 256 1280 256 1247 c 26,4,-1
 256 801 l 26,5,6
 256 768 256 768 287.5 768 c 152,-1,7
 319 768 319 768 352 801 c 24,8,9
 575 1024 575 1024 801 1247 c 24,10,11
 834 1280 834 1280 864.5 1280 c 152,-1,12
 895 1280 895 1280 895 1247 c 26,13,-1
 895 1184 l 26,14,15
 895 1151 895 1151 864 1120 c 24,16,17
 641 897 641 897 416 672 c 24,18,19
 383 639 383 639 416 608 c 24,20,21
 639 385 639 385 864 160 c 24,22,23
 895 127 895 127 895 96 c 26,24,-1
 895 33 l 26,25,26
 895 0 895 0 863 0 c 152,-1,27
 831 0 831 0 801 33 c 24,28,29
 578 256 578 256 352 479 c 24,30,31
 319 512 319 512 287.5 512 c 152,-1,32
 256 512 256 512 256 479 c 26,33,-1
 256 33 l 26,34,35
 256 0 256 0 224.5 0 c 152,-1,36
 193 0 193 0 161 0 c 152,-1,37
 129 0 129 0 129 33 c 26,38,-1
 129 1247 l 26,0,1
EndSplineSet
Validated: 1
Layer: 2
Validated: 1
Comment: "* My OCD is getting to me.  I don't like how the right side is +ACIA-Flush+ACIA vertically and the lowercase 'k' is +ACIA-Flushed' horizontally.+AAoA* The central(?) area of the 'K' is to fat..  I managed to work around this on the '+AH4A' and the results came out pleasantly.  I'm not able to exactly explain what I did, but what I did there should probably be done here as well.."
EndChar
StartChar: L
Encoding: 76 76 47
Width: 1020
VWidth: 0
Flags: W
LayerCount: 3
Back
Fore
SplineSet
159.5 1275 m 152,-1,1
 191 1275 191 1275 223 1275 c 152,-1,2
 255 1275 255 1275 255 1243 c 26,3,-1
 255 159 l 26,4,5
 255 128 255 128 287 128 c 24,6,7
 574 128 574 128 861 128 c 24,8,9
 892 128 892 128 892 96 c 26,10,-1
 892 32 l 26,11,12
 892 0 892 0 861 0 c 24,13,14
 510 0 510 0 159 0 c 24,15,16
 128 0 128 0 128 32 c 26,17,-1
 128 1243 l 26,18,0
 128 1275 128 1275 159.5 1275 c 152,-1,1
EndSplineSet
Validated: 1
EndChar
StartChar: M
Encoding: 77 77 48
Width: 1024
VWidth: 0
Flags: W
LayerCount: 3
Back
Fore
SplineSet
64 1222 m 30,0,1
 64 1254 64 1254 96 1254 c 156,-1,2
 128 1254 128 1254 160 1254 c 156,-1,3
 192 1254 192 1254 192 1222 c 30,4,-1
 192 1158 l 30,5,6
 192 1126 192 1126 224 1094 c 28,7,8
 320 998 320 998 416 902 c 28,9,10
 448 870 448 870 480 870 c 156,-1,11
 512 870 512 870 544 902 c 28,12,13
 640 998 640 998 736 1094 c 28,14,15
 768 1126 768 1126 768 1158 c 30,16,-1
 768 1222 l 30,17,18
 768 1254 768 1254 800 1254 c 156,-1,19
 832 1254 832 1254 864 1254 c 156,-1,20
 896 1254 896 1254 896 1222 c 30,21,-1
 896 6 l 30,22,23
 896 -26 896 -26 864 -26 c 156,-1,24
 832 -26 832 -26 800 -26 c 156,-1,25
 768 -26 768 -26 768 6 c 30,26,-1
 768 902 l 30,27,28
 768 934 768 934 736 902 c 28,29,30
 624 790 624 790 512 678 c 28,31,32
 480 646 480 646 448 678 c 28,33,34
 336 790 336 790 224 902 c 28,35,36
 192 934 192 934 192 902 c 30,37,-1
 192 6 l 30,38,39
 192 -26 192 -26 160 -26 c 156,-1,40
 128 -26 128 -26 96 -26 c 156,-1,41
 64 -26 64 -26 64 6 c 30,42,-1
 64 1222 l 30,0,1
EndSplineSet
Validated: 1
Comment: "* I have mixed feelings about this 'M'..  Specifically the central(?) area.."
EndChar
StartChar: N
Encoding: 78 78 49
Width: 1024
VWidth: 0
Flags: MW
LayerCount: 3
Back
Fore
SplineSet
161 1280 m 152,-1,1
 193 1280 193 1280 224.5 1280 c 152,-1,2
 256 1280 256 1280 256 1247 c 26,3,-1
 256 991 l 26,4,5
 256 958 256 958 289 928 c 24,6,7
 496 721 496 721 705 512 c 16,8,9
 738 479 738 479 753 479 c 128,-1,10
 768 479 768 479 768 512 c 10,11,-1
 768 1247 l 26,12,13
 768 1280 768 1280 799.5 1280 c 152,-1,14
 831 1280 831 1280 863 1280 c 152,-1,15
 895 1280 895 1280 895 1247 c 26,16,-1
 895 33 l 26,17,18
 895 0 895 0 863 0 c 152,-1,19
 831 0 831 0 799.5 0 c 152,-1,20
 768 0 768 0 768 33 c 26,21,-1
 768 223 l 26,22,23
 768 256 768 256 735 289 c 24,24,25
 512 512 512 512 289 735 c 24,26,27
 256 768 256 768 256 735 c 26,28,-1
 256 33 l 26,29,30
 256 0 256 0 224.5 0 c 152,-1,31
 193 0 193 0 161 0 c 152,-1,32
 129 0 129 0 129 33 c 26,33,-1
 129 1247 l 26,34,0
 129 1280 129 1280 161 1280 c 152,-1,1
EndSplineSet
Validated: 1
Layer: 2
Validated: 1
Comment: "* I think I'm happy with the outcome of this 'N'.."
EndChar
StartChar: O
Encoding: 79 79 50
Width: 1024
VWidth: 0
Flags: MW
LayerCount: 3
Back
Fore
SplineSet
256 1087 m 26,0,1
 256 193 l 26,2,3
 256 130 256 130 319 129 c 0,4,-1
 705 129 l 0,5,6
 768 129 768 129 768 193 c 10,7,8
 768 1087 l 26,9,10
 768 1153 768 1153 705 1153 c 0,11,12
 512 1153 512 1153 319 1153 c 0,13,14
 256 1153 256 1153 256 1087 c 26,0,1
129 1153 m 26,15,16
 129 1280 129 1280 256 1280 c 0,17,18
 512 1280 512 1280 768 1280 c 0,19,20
 895 1280 895 1280 895 1153 c 26,21,-1
 895 129 l 18,22,23
 895 0 895 0 768 0 c 0,24,25
 512 0 512 0 256 0 c 0,26,27
 129 0 129 0 129 129 c 26,28,-1
 129 1153 l 26,15,16
EndSplineSet
Validated: 1
Layer: 2
SplineSet
170 1111 m 21,0,-1
 170 261 l 5,1,-1
 255 176 l 13,2,-1
 595 176 l 21,3,-1
 680 261 l 5,4,-1
 680 1111 l 13,5,-1
 595 1196 l 29,6,-1
 255 1196 l 29,7,-1
 170 1111 l 21,0,-1
0 1196 m 29,8,-1
 170 1366 l 29,9,-1
 680 1366 l 29,10,-1
 850 1196 l 29,11,-1
 850 176 l 29,12,-1
 680 6 l 29,13,-1
 170 6 l 29,14,-1
 0 176 l 29,15,-1
 0 1196 l 29,8,-1
EndSplineSet
Validated: 1
EndChar
StartChar: P
Encoding: 80 80 51
Width: 1024
VWidth: 0
Flags: W
LayerCount: 3
Back
Fore
SplineSet
256 1094 m 14,0,-1
 256 646 l 22,1,2
 256 614 256 614 288 614 c 4,3,4
 512 614 512 614 704 614 c 28,5,6
 768 614 768 614 768 678 c 30,7,-1
 768 1062 l 30,8,9
 768 1126 768 1126 704 1126 c 4,10,11
 320 1126 320 1126 288 1126 c 156,-1,12
 256 1126 256 1126 256 1094 c 14,0,-1
160 1254 m 4,13,14
 448 1254 448 1254 768 1254 c 4,15,16
 896 1254 896 1254 896 1126 c 30,17,-1
 896 614 l 22,18,19
 896 486 896 486 768 486 c 28,20,21
 288 486 l 28,22,23
 256 484 256 484 256 454 c 30,24,-1
 256 6 l 22,25,26
 256 -26 256 -26 224 -26 c 132,-1,27
 192 -26 192 -26 160 -26 c 132,-1,28
 128 -26 128 -26 128 6 c 30,29,-1
 128 1222 l 30,30,31
 128 1254 128 1254 160 1254 c 4,13,14
EndSplineSet
Validated: 1
EndChar
StartChar: Q
Encoding: 81 81 52
Width: 1020
VWidth: 0
Flags: W
LayerCount: 3
Back
Fore
SplineSet
255 1084 m 26,0,-1
 255 191 l 26,1,2
 255 128 255 128 319 128 c 24,3,4
 399 128 399 128 478 128 c 24,5,6
 510 128 510 128 510 159.5 c 152,-1,7
 510 191 510 191 478 191 c 152,-1,8
 446 191 446 191 446 223 c 152,-1,9
 446 255 446 255 478 255 c 24,10,11
 542 255 542 255 606 255 c 24,12,13
 638 255 638 255 638 223 c 152,-1,14
 638 191 638 191 669.5 191 c 152,-1,15
 701 191 701 191 733 191 c 152,-1,16
 765 191 765 191 765 223 c 26,17,-1
 765 1084 l 26,18,19
 765 1148 765 1148 701 1148 c 24,20,21
 510 1148 510 1148 319 1148 c 24,22,23
 255 1148 255 1148 255 1084 c 26,0,-1
128 1148 m 26,24,25
 128 1275 128 1275 255 1275 c 24,26,27
 510 1275 510 1275 765 1275 c 24,28,29
 892 1275 892 1275 892 1148 c 26,30,-1
 892 159 l 26,31,32
 892 127.5 892 127.5 860.5 127.5 c 152,-1,33
 829 127.5 829 127.5 829 95.75 c 152,-1,34
 829 64 829 64 860.5 32 c 152,-1,35
 892 0 892 0 924 -32 c 152,-1,36
 956 -64 956 -64 956 -95.5 c 152,-1,37
 956 -127 956 -127 924 -127 c 152,-1,38
 892 -127 892 -127 860.5 -127 c 152,-1,39
 829 -127 829 -127 797 -95.5 c 152,-1,40
 765 -64 765 -64 733 -32 c 152,-1,41
 701 0 701 0 669 0 c 24,42,43
 462 0 462 0 255 0 c 24,44,45
 128 0 128 0 128 128 c 26,46,-1
 128 1148 l 26,24,25
EndSplineSet
Validated: 524289
Comment: "* Maybe have the bottom right (Corner) actually look more like a corner, instead of how it looking like it's been +ACIA-raised+ACIA."
EndChar
StartChar: R
Encoding: 82 82 53
Width: 1024
VWidth: 0
Flags: W
LayerCount: 3
Back
Fore
SplineSet
256 1094 m 30,0,-1
 256 646 l 30,1,2
 256 614 256 614 288 614 c 28,3,4
 496 614 496 614 704 614 c 28,5,6
 768 614 768 614 768 678 c 30,7,-1
 768 1062 l 30,8,9
 768 1126 768 1126 704 1126 c 28,10,11
 496 1126 496 1126 288 1126 c 28,12,13
 256 1126 256 1126 256 1094 c 30,0,-1
160 1254 m 28,14,15
 464 1254 464 1254 768 1254 c 28,16,17
 896 1254 896 1254 896 1126 c 30,18,-1
 896 614 l 30,19,20
 896 486 896 486 768 486 c 28,21,22
 656 486 656 486 544 486 c 28,23,24
 512 486 512 486 544 454 c 28,25,26
 704 294 704 294 864 134 c 28,27,28
 896 102 896 102 896 70 c 30,29,-1
 896 6 l 30,30,31
 896 -26 896 -26 864 -26 c 156,-1,32
 832 -26 832 -26 800 6 c 28,33,34
 576 230 576 230 352 454 c 28,35,36
 320 486 320 486 288 486 c 156,-1,37
 256 486 256 486 256 454 c 30,38,-1
 256 6 l 30,39,40
 256 -26 256 -26 224 -26 c 156,-1,41
 192 -26 192 -26 160 -26 c 156,-1,42
 128 -26 128 -26 128 6 c 30,43,-1
 128 1222 l 30,44,45
 128 1254 128 1254 160 1254 c 28,14,15
EndSplineSet
Validated: 1
Comment: "* Refer to 'K'"
EndChar
StartChar: S
Encoding: 83 83 54
Width: 1020
VWidth: 0
Flags: W
LayerCount: 3
Back
Fore
SplineSet
128 1148 m 26,0,1
 128 1275 128 1275 255 1275 c 24,2,3
 510 1275 510 1275 765 1275 c 24,4,5
 892 1275 892 1275 892 1148 c 26,6,-1
 892 988 l 26,7,8
 892 956 892 956 860.5 956 c 152,-1,9
 829 956 829 956 797 956 c 152,-1,10
 765 956 765 956 765 988 c 26,11,-1
 765 1084 l 26,12,13
 765 1148 765 1148 701 1148 c 24,14,15
 510 1148 510 1148 319 1148 c 24,16,17
 255 1148 255 1148 255 1084 c 26,18,-1
 255 765 l 26,19,20
 255 701 255 701 319 701 c 24,21,22
 542 701 542 701 765 701 c 24,23,24
 892 701 892 701 892 574 c 26,25,-1
 892 128 l 26,26,27
 892 0 892 0 765 0 c 24,28,29
 510 0 510 0 255 0 c 24,30,31
 128 0 128 0 128 128 c 26,32,-1
 128 287 l 26,33,34
 128 319 128 319 159.5 319 c 152,-1,35
 191 319 191 319 223 319 c 152,-1,36
 255 319 255 319 255 287 c 26,37,-1
 255 191 l 26,38,39
 255 128 255 128 319 128 c 24,40,41
 510 128 510 128 701 128 c 24,42,43
 765 128 765 128 765 191 c 26,44,-1
 765 510 l 26,45,46
 765 574 765 574 701 574 c 24,47,48
 478 574 478 574 255 574 c 24,49,50
 128 574 128 574 128 701 c 26,51,-1
 128 1148 l 26,0,1
EndSplineSet
Validated: 1
EndChar
StartChar: T
Encoding: 84 84 55
Width: 1020
VWidth: 0
Flags: W
LayerCount: 3
Back
Fore
SplineSet
159 1275 m 24,0,1
 510 1275 510 1275 861 1275 c 24,2,3
 892 1275 892 1275 892 1243 c 26,4,-1
 892 1179 l 26,5,6
 892 1148 892 1148 861 1148 c 24,7,8
 733 1148 733 1148 606 1148 c 24,9,10
 574 1148 574 1148 574 1116 c 26,11,-1
 574 32 l 26,12,13
 574 0 574 0 542 0 c 152,-1,14
 510 0 510 0 478 0 c 152,-1,15
 446 0 446 0 446 32 c 26,16,-1
 446 1116 l 26,17,18
 446 1148 446 1148 414 1148 c 24,19,20
 286 1148 286 1148 159 1148 c 24,21,22
 128 1148 128 1148 128 1179 c 26,23,-1
 128 1243 l 26,24,25
 128 1275 128 1275 159 1275 c 24,0,1
EndSplineSet
Validated: 1
EndChar
StartChar: U
Encoding: 85 85 56
Width: 1024
VWidth: 0
Flags: MW
LayerCount: 3
Back
Fore
SplineSet
161 1280 m 152,-1,1
 193 1280 193 1280 224.5 1280 c 152,-1,2
 256 1280 256 1280 256 1247 c 26,3,-1
 256 193 l 26,4,5
 256 130 256 130 319 129 c 24,6,7
 512 129 512 129 705 129 c 24,8,9
 768 129 768 129 768 193 c 26,10,-1
 768 1247 l 26,11,12
 768 1280 768 1280 799.5 1280 c 152,-1,13
 831 1280 831 1280 863 1280 c 152,-1,14
 895 1280 895 1280 895 1247 c 26,15,-1
 895 129 l 26,16,17
 895 0 895 0 768 0 c 24,18,19
 512 0 512 0 256 0 c 24,20,21
 129 0 129 0 129 129 c 26,22,-1
 129 1247 l 26,23,0
 129 1280 129 1280 161 1280 c 152,-1,1
EndSplineSet
Validated: 1
Layer: 2
Validated: 1
EndChar
StartChar: V
Encoding: 86 86 57
Width: 1020
VWidth: 0
Flags: W
LayerCount: 3
Back
Fore
SplineSet
159.5 1275 m 152,-1,1
 191 1275 191 1275 223 1275 c 152,-1,2
 255 1275 255 1275 261 1243 c 24,3,4
 415 474 415 474 499 223 c 24,5,6
 510 191 510 191 521 223 c 24,7,8
 605 474 605 474 759 1243 c 24,9,10
 765 1275 765 1275 797 1275 c 152,-1,11
 829 1275 829 1275 860.5 1275 c 152,-1,12
 892 1275 892 1275 887 1243 c 24,13,14
 733 477 733 477 585 32 c 24,15,16
 574 0 574 0 542 0 c 24,17,18
 526 0 526 0 510 0 c 152,-1,19
 494 0 494 0 478 0 c 24,20,21
 446 0 446 0 435 32 c 24,22,23
 283 500 283 500 133 1243 c 24,24,0
 128 1275 128 1275 159.5 1275 c 152,-1,1
EndSplineSet
Validated: 1
Comment: "* This 'V' is a slut..  Not to be dirty or anything..  Just not sure if I like it.."
EndChar
StartChar: W
Encoding: 87 87 58
Width: 1020
VWidth: 0
Flags: W
LayerCount: 3
Back
Fore
SplineSet
892 32 m 26,0,1
 892 0 892 0 860.5 0 c 152,-1,2
 829 0 829 0 797 0 c 152,-1,3
 765 0 765 0 765 32 c 26,4,-1
 765 96 l 26,5,6
 765 128 765 128 733 159 c 24,7,8
 637 255 637 255 542 351 c 24,9,10
 510 383 510 383 478 383 c 152,-1,11
 446 383 446 383 414 351 c 24,12,13
 318 255 318 255 223 159 c 24,14,15
 191 127 191 127 191 96 c 26,16,-1
 191 32 l 26,17,18
 191 0 191 0 159.5 0 c 152,-1,19
 128 0 128 0 96 0 c 152,-1,20
 64 0 64 0 64 32 c 26,21,-1
 64 1243 l 26,22,23
 64 1275 64 1275 96 1275 c 152,-1,24
 128 1275 128 1275 159.5 1275 c 152,-1,25
 191 1275 191 1275 191 1243 c 26,26,-1
 191 351 l 26,27,28
 191 319 191 319 223 351 c 24,29,30
 335 463 335 463 446 574 c 16,31,32
 462 590 462 590 478 590 c 0,33,-1
 510 574 l 8,34,35
 622 462 622 462 733 351 c 24,36,37
 765 319 765 319 765 351 c 26,38,-1
 765 1243 l 26,39,40
 765 1275 765 1275 797 1275 c 152,-1,41
 829 1275 829 1275 860.5 1275 c 152,-1,42
 892 1275 892 1275 892 1243 c 26,43,-1
 892 32 l 26,0,1
EndSplineSet
Validated: 1
Comment: "* Refer to 'M'+AAoA-NOTE: Upside down 'M'"
EndChar
StartChar: X
Encoding: 88 88 59
Width: 1024
VWidth: 0
Flags: W
LayerCount: 3
Back
Fore
SplineSet
160 1254 m 156,-1,1
 192 1254 192 1254 224 1254 c 156,-1,2
 256 1254 256 1254 272 1222 c 28,3,4
 384 998 384 998 496 774 c 28,5,6
 512 742 512 742 528 774 c 28,7,8
 640 998 640 998 752 1222 c 28,9,10
 768 1254 768 1254 800 1254 c 156,-1,11
 832 1254 832 1254 864 1254 c 156,-1,12
 896 1254 896 1254 880 1222 c 30,13,-1
 656 774 l 30,14,15
 640 742 640 742 640 710 c 30,16,-1
 640 518 l 30,17,18
 640 486 640 486 656 454 c 28,19,20
 768 230 768 230 880 6 c 28,21,22
 896 -26 896 -26 864 -26 c 156,-1,23
 832 -26 832 -26 800 -26 c 156,-1,24
 768 -26 768 -26 752 6 c 28,25,26
 640 230 640 230 528 454 c 28,27,28
 512 486 512 486 496 454 c 28,29,30
 384 230 384 230 272 6 c 28,31,32
 256 -26 256 -26 224 -26 c 156,-1,33
 192 -26 192 -26 160 -26 c 156,-1,34
 128 -26 128 -26 144 6 c 28,35,36
 256 230 256 230 368 454 c 28,37,38
 384 486 384 486 384 518 c 30,39,-1
 384 710 l 30,40,41
 384 742 384 742 368 774 c 28,42,43
 256 998 256 998 144 1222 c 28,44,0
 128 1254 128 1254 160 1254 c 156,-1,1
EndSplineSet
Validated: 1
Comment: "This fucker looks like it has aids..+AAoA* Refer to '*'"
EndChar
StartChar: Y
Encoding: 89 89 60
Width: 1024
VWidth: 0
Flags: MW
LayerCount: 3
Back
SplineSet
172 1364 m 29,0,-1
 427 682 l 29,1,-1
 682 1364 l 29,2,-1
 852 1364 l 29,3,-1
 512 530 l 29,4,-1
 512 0 l 29,5,-1
 342 0 l 29,6,-1
 342 531 l 29,7,-1
 2 1364 l 29,8,-1
 172 1364 l 29,0,-1
EndSplineSet
Fore
SplineSet
161 1280 m 152,-1,1
 193 1280 193 1280 224.5 1280 c 152,-1,2
 256 1280 256 1280 270 1247 c 24,3,4
 385 991 385 991 498 735 c 24,5,6
 512 702 512 702 526 735 c 24,7,8
 641 991 641 991 754 1247 c 24,9,10
 768 1280 768 1280 799.5 1280 c 152,-1,11
 831 1280 831 1280 863 1280 c 152,-1,12
 895 1280 895 1280 881 1247 c 24,13,14
 736 928 736 928 592 608 c 24,15,16
 576 575 576 575 575 545 c 25,17,-1
 575 33 l 26,18,19
 575 0 575 0 543.5 0 c 152,-1,20
 512 0 512 0 480.5 0 c 152,-1,21
 449 0 449 0 449 33 c 26,22,-1
 449 545 l 26,23,24
 449 578 449 578 432 608 c 24,25,26
 287 927 287 927 143 1247 c 24,27,0
 129 1280 129 1280 161 1280 c 152,-1,1
EndSplineSet
Validated: 1
Layer: 2
Validated: 1
EndChar
StartChar: Z
Encoding: 90 90 61
Width: 1024
VWidth: 0
Flags: MW
LayerCount: 3
Back
Fore
SplineSet
160 1280 m 24,0,1
 512 1280 512 1280 864 1280 c 24,2,3
 895 1280 895 1280 895 1247 c 26,4,-1
 895 928 l 26,5,6
 895 895 895 895 864 864 c 24,7,8
 575 575 575 575 289 289 c 24,9,10
 256 256 256 256 256 223 c 26,11,-1
 256 160 l 26,12,13
 256 129 256 129 289 129 c 24,14,15
 578 129 578 129 864 129 c 24,16,17
 895 129 895 129 895 96 c 26,18,-1
 895 33 l 26,19,20
 895 0 895 0 864 0 c 24,21,22
 512 0 512 0 160 0 c 24,23,24
 129 0 129 0 129 33 c 26,25,-1
 129 289 l 26,26,27
 129 322 129 322 160 352 c 24,28,29
 449 641 449 641 735 928 c 24,30,31
 768 961 768 961 768 991 c 26,32,-1
 768 1120 l 26,33,34
 768 1153 768 1153 735 1153 c 24,35,36
 446 1153 446 1153 160 1153 c 24,37,38
 129 1153 129 1153 129 1184 c 26,39,-1
 129 1247 l 26,40,41
 129 1280 129 1280 160 1280 c 24,0,1
EndSplineSet
Validated: 1
Layer: 2
SplineSet
0 1364 m 29,0,-1
 853 1364 l 29,1,-1
 853 938 l 21,2,-1
 170 340 l 5,3,-1
 170 170 l 13,4,-1
 853 170 l 29,5,-1
 853 0 l 29,6,-1
 0 0 l 29,7,-1
 0 425 l 21,8,-1
 683 1023 l 5,9,-1
 683 1194 l 13,10,-1
 0 1194 l 29,11,-1
 0 1364 l 29,0,-1
EndSplineSet
Validated: 1
Comment: "* What I did with the '+AH4A'..  Do it here too.  I don't like how everything isn't even...  (Look at bitmap if unsure what I mean)"
EndChar
StartChar: bracketleft
Encoding: 91 91 62
Width: 1024
VWidth: 0
Flags: W
LayerCount: 3
Back
Fore
SplineSet
288 1254 m 28,0,1
 480 1254 480 1254 672 1254 c 28,2,3
 704 1254 704 1254 704 1222 c 30,4,-1
 704 1158 l 30,5,6
 704 1126 704 1126 672 1126 c 28,7,8
 544 1126 544 1126 416 1126 c 28,9,10
 384 1126 384 1126 384 1094 c 30,11,-1
 384 134 l 30,12,13
 384 102 384 102 416 102 c 28,14,15
 544 102 544 102 672 102 c 28,16,17
 704 102 704 102 704 70 c 30,18,-1
 704 6 l 30,19,20
 704 -26 704 -26 672 -26 c 28,21,22
 480 -26 480 -26 288 -26 c 28,23,24
 256 -26 256 -26 256 6 c 30,25,-1
 256 1222 l 30,26,27
 256 1254 256 1254 288 1254 c 28,0,1
EndSplineSet
Validated: 1
EndChar
StartChar: backslash
Encoding: 92 92 63
Width: 1024
VWidth: 0
Flags: MW
LayerCount: 3
Back
SplineSet
170 1364 m 29,0,-1
 683 0 l 29,1,-1
 854 0 l 29,2,-1
 341 1364 l 29,3,-1
 170 1364 l 29,0,-1
EndSplineSet
Fore
SplineSet
161 1280 m 152,-1,1
 193 1280 193 1280 224.5 1280 c 152,-1,2
 256 1280 256 1280 270 1247 c 26,3,-1
 819 33 l 26,4,5
 833 0 833 0 800.5 0 c 152,-1,6
 768 0 768 0 736.5 0 c 152,-1,7
 705 0 705 0 690 33 c 26,8,-1
 141 1247 l 26,9,0
 129 1280 129 1280 161 1280 c 152,-1,1
EndSplineSet
Validated: 1
Layer: 2
SplineSet
340 1360 m 29,0,-1
 170 1360 l 29,1,-1
 680 0 l 29,2,-1
 850 0 l 29,3,-1
 340 1360 l 29,0,-1
EndSplineSet
Validated: 9
EndChar
StartChar: bracketright
Encoding: 93 93 64
Width: 1020
VWidth: 0
Flags: W
LayerCount: 3
Back
Fore
SplineSet
669 0 m 24,0,1
 478 0 478 0 287 0 c 24,2,3
 255 0 255 0 255 32 c 26,4,-1
 255 96 l 26,5,6
 255 128 255 128 287 128 c 24,7,8
 415 128 415 128 542 128 c 24,9,10
 574 128 574 128 574 159 c 26,11,-1
 574 1116 l 26,12,13
 574 1148 574 1148 542 1148 c 24,14,15
 414 1148 414 1148 287 1148 c 24,16,17
 255 1148 255 1148 255 1179 c 26,18,-1
 255 1243 l 26,19,20
 255 1275 255 1275 287 1275 c 24,21,22
 478 1275 478 1275 669 1275 c 24,23,24
 701 1275 701 1275 701 1243 c 26,25,-1
 701 32 l 26,26,27
 701 0 701 0 669 0 c 24,0,1
EndSplineSet
Validated: 1
EndChar
StartChar: asciicircum
Encoding: 94 94 65
Width: 1024
VWidth: 0
Flags: W
LayerCount: 3
Back
Fore
SplineSet
544 1350 m 28,0,1
 704 1190 704 1190 864 1030 c 28,2,3
 896 998 896 998 864 998 c 28,4,5
 800 998 800 998 736 998 c 28,6,7
 704 998 704 998 672 1030 c 28,8,9
 608 1094 608 1094 544 1158 c 28,10,11
 512 1190 512 1190 480 1158 c 28,12,13
 416 1094 416 1094 352 1030 c 28,14,15
 320 998 320 998 288 998 c 28,16,17
 224 998 224 998 160 998 c 28,18,19
 128 998 128 998 160 1030 c 28,20,21
 320 1190 320 1190 480 1350 c 28,22,23
 512 1382 512 1382 544 1350 c 28,0,1
EndSplineSet
Validated: 1
Comment: "There is something I wanted to say about this.. I'm sure of it."
EndChar
StartChar: underscore
Encoding: 95 95 66
Width: 1024
VWidth: 0
Flags: MW
LayerCount: 3
Back
Fore
SplineSet
129 -128 m 152,-1,1
 129 -63 129 -63 193 -63 c 24,2,3
 512 -63 512 -63 831 -63 c 24,4,5
 896 -63 896 -63 896 -128 c 152,-1,6
 896 -193 896 -193 831 -193 c 24,7,8
 512 -193 512 -193 193 -193 c 24,9,0
 129 -193 129 -193 129 -128 c 152,-1,1
EndSplineSet
Validated: 1
Layer: 2
Validated: 1
EndChar
StartChar: grave
Encoding: 96 96 67
Width: 1024
VWidth: 0
Flags: MW
LayerCount: 3
Back
Fore
SplineSet
319 1536 m 16,0,1
 287 1569 287 1569 287.5 1584 c 128,-1,2
 288 1599 288 1599 319 1599 c 136,-1,3
 350 1599 350 1599 383 1599 c 24,4,5
 446 1599 446 1599 510.5 1536 c 152,-1,6
 575 1473 575 1473 640 1408 c 16,7,8
 673 1375 673 1375 673 1359 c 128,-1,9
 673 1343 673 1343 641 1343 c 8,10,11
 608 1343 608 1343 575 1343 c 24,12,13
 512 1343 512 1343 447 1408 c 152,-1,14
 382 1473 382 1473 319 1536 c 16,0,1
EndSplineSet
Validated: 1
Layer: 2
Validated: 1
Comment: "* Do what I did with the '+AH4A'"
EndChar
StartChar: a
Encoding: 97 97 68
Width: 1020
VWidth: 0
Flags: W
LayerCount: 3
Back
Fore
SplineSet
733 446 m 24,0,1
 526 446 526 446 319 446 c 24,2,3
 255 446 255 446 255 383 c 26,4,-1
 255 191 l 26,5,6
 255 128 255 128 319 128 c 24,7,8
 526 128 526 128 733 128 c 24,9,10
 765 128 765 128 765 159 c 26,11,-1
 765 414 l 26,12,13
 765 446 765 446 733 446 c 24,0,1
223 893 m 24,14,15
 494 893 494 893 765 893 c 24,16,17
 892 893 892 893 892 765 c 26,18,-1
 892 32 l 26,19,20
 892 0 892 0 861 0 c 24,21,22
 558 0 558 0 255 0 c 24,23,24
 128 0 128 0 128 128 c 26,25,-1
 128 446 l 26,26,27
 128 574 128 574 255 574 c 24,28,29
 494 574 494 574 733 574 c 24,30,31
 765 574 765 574 765 606 c 26,32,-1
 765 701 l 26,33,34
 765 765 765 765 701 765 c 24,35,36
 462 765 462 765 223 765 c 24,37,38
 191 765 191 765 191 797 c 26,39,-1
 191 861 l 26,40,41
 191 893 191 893 223 893 c 24,14,15
EndSplineSet
Validated: 1
EndChar
StartChar: b
Encoding: 98 98 69
Width: 1020
VWidth: 0
Flags: W
LayerCount: 3
Back
Fore
SplineSet
255 159 m 26,0,-1
 255 733 l 26,1,2
 255 765 255 765 287 765 c 24,3,4
 494 765 494 765 701 765 c 24,5,6
 765 765 765 765 765 701 c 26,7,-1
 765 191 l 26,8,9
 765 128 765 128 701 128 c 24,10,11
 494 128 494 128 287 128 c 24,12,13
 255 128 255 128 255 159 c 26,0,-1
159 0 m 0,14,15
 128 0 128 0 128 32 c 26,16,-1
 128 1243 l 2,17,18
 128 1275 128 1275 159 1275 c 0,19,-1
 223 1275 l 24,20,21
 255 1275 255 1275 255 1243 c 10,22,-1
 255 924 l 2,23,24
 255 893 255 893 287 893 c 0,25,-1
 765 893 l 24,26,27
 892 893 892 893 892 765 c 10,28,-1
 892 128 l 26,29,30
 892 0 892 0 765 0 c 0,31,32
 478 0 478 0 159 0 c 0,14,15
EndSplineSet
Validated: 9
EndChar
StartChar: c
Encoding: 99 99 70
Width: 1024
VWidth: 0
Flags: MW
LayerCount: 3
Back
Fore
SplineSet
129 768 m 18,0,1
 129 897 129 897 256 897 c 0,2,3
 512 897 512 897 768 897 c 0,4,5
 895 897 895 897 895 768 c 26,6,-1
 895 672 l 26,7,8
 895 641 895 641 863 641 c 128,-1,9
 831 641 831 641 799.5 641 c 128,-1,10
 768 641 768 641 768 672 c 26,11,-1
 768 705 l 26,12,13
 768 768 768 768 705 768 c 0,14,15
 512 768 512 768 319 768 c 0,16,17
 256 768 256 768 256 705 c 26,18,-1
 256 193 l 26,19,20
 256 130 256 130 319 129 c 0,21,22
 512 129 512 129 705 129 c 24,23,24
 768 129 768 129 768 193 c 26,25,-1
 768 223 l 26,26,27
 768 256 768 256 799.5 256 c 128,-1,28
 831 256 831 256 864 256 c 24,29,30
 895 256 895 256 895 223 c 26,31,-1
 895 129 l 26,32,33
 895 0 895 0 768 0 c 0,34,35
 512 0 512 0 256 0 c 0,36,37
 129 0 129 0 129 129 c 26,38,-1
 129 768 l 18,0,1
EndSplineSet
Validated: 1
Layer: 2
Validated: 1
EndChar
StartChar: d
Encoding: 100 100 71
Width: 1024
VWidth: 0
Flags: W
LayerCount: 3
Back
Fore
SplineSet
768 134 m 30,0,-1
 768 710 l 30,1,2
 768 742 768 742 736 742 c 28,3,4
 528 742 528 742 320 742 c 28,5,6
 256 742 256 742 256 678 c 30,7,-1
 256 166 l 30,8,9
 256 102 256 102 320 102 c 28,10,11
 528 102 528 102 736 102 c 28,12,13
 768 102 768 102 768 134 c 30,0,-1
864 -26 m 4,14,15
 544 -26 544 -26 256 -26 c 4,16,17
 128 -26 128 -26 128 102 c 30,18,-1
 128 742 l 22,19,20
 128 870 128 870 256 870 c 28,21,22
 736 870 l 4,23,24
 768 870 768 870 768 902 c 6,25,-1
 768 1222 l 22,26,27
 768 1254 768 1254 800 1254 c 28,28,29
 864 1254 l 4,30,31
 896 1254 896 1254 896 1222 c 6,32,-1
 896 6 l 30,33,34
 896 -26 896 -26 864 -26 c 4,14,15
EndSplineSet
Validated: 1
EndChar
StartChar: e
Encoding: 101 101 72
Width: 1024
VWidth: 0
Flags: MW
LayerCount: 3
Back
Fore
SplineSet
256 705 m 26,0,-1
 256 545 l 26,1,2
 256 512 256 512 289 512 c 24,3,4
 512 512 512 512 735 512 c 24,5,6
 768 512 768 512 768 545 c 26,7,-1
 768 705 l 26,8,9
 768 768 768 768 705 768 c 24,10,11
 512 768 512 768 319 768 c 24,12,13
 256 768 256 768 256 705 c 26,0,-1
129 768 m 26,14,15
 129 897 129 897 256 897 c 24,16,17
 512 897 512 897 768 897 c 24,18,19
 895 897 895 897 895 768 c 26,20,-1
 895 416 l 26,21,22
 895 385 895 385 864 385 c 24,23,24
 575 385 575 385 289 385 c 24,25,26
 256 385 256 385 256 352 c 26,27,-1
 256 193 l 26,28,29
 256 130 256 130 319 129 c 24,30,31
 526 129 526 129 735 129 c 24,32,33
 768 129 768 129 768 161 c 152,-1,34
 768 193 768 193 799.5 193 c 152,-1,35
 831 193 831 193 863 193 c 152,-1,36
 895 193 895 193 895 160 c 26,37,-1
 895 63 l 26,38,39
 895 0 895 0 831 0 c 24,40,41
 542 0 542 0 256 0 c 24,42,43
 129 0 129 0 129 129 c 26,44,-1
 129 768 l 26,14,15
EndSplineSet
Validated: 1
Layer: 2
Validated: 1
EndChar
StartChar: f
Encoding: 102 102 73
Width: 1020
VWidth: 0
Flags: W
LayerCount: 3
Back
Fore
SplineSet
446 1148 m 26,0,1
 446 1275 446 1275 574 1275 c 24,2,3
 749 1275 749 1275 924 1275 c 24,4,5
 956 1275 956 1275 956 1243 c 26,6,-1
 956 1179 l 26,7,8
 956 1148 956 1148 924 1148 c 24,9,10
 782 1148 782 1148 638 1148 c 24,11,12
 574 1148 574 1148 574 1084 c 26,13,-1
 574 924 l 26,14,15
 574 893 574 893 606 893 c 24,16,17
 702 893 702 893 797 893 c 24,18,19
 829 893 829 893 829 861 c 26,20,-1
 829 797 l 26,21,22
 829 765 829 765 797 765 c 24,23,24
 701 765 701 765 606 765 c 24,25,26
 574 765 574 765 574 733 c 26,27,-1
 574 32 l 26,28,29
 574 0 574 0 542 0 c 152,-1,30
 510 0 510 0 478 0 c 152,-1,31
 446 0 446 0 446 32 c 26,32,-1
 446 733 l 26,33,34
 446 765 446 765 414 765 c 24,35,36
 318 765 318 765 223 765 c 24,37,38
 191 765 191 765 191 797 c 26,39,-1
 191 861 l 26,40,41
 191 893 191 893 223 893 c 24,42,43
 319 893 319 893 414 893 c 24,44,45
 446 893 446 893 446 924 c 26,46,-1
 446 1148 l 26,0,1
EndSplineSet
Validated: 1
EndChar
StartChar: g
Encoding: 103 103 74
Width: 1024
VWidth: 0
Flags: W
LayerCount: 3
Back
Fore
SplineSet
320 742 m 28,0,1
 256 742 256 742 256 678 c 30,2,-1
 256 166 l 30,3,4
 256 102 256 102 320 102 c 28,5,6
 528 102 528 102 736 102 c 28,7,8
 768 102 768 102 768 134 c 30,9,-1
 768 710 l 30,10,11
 768 742 768 742 736 742 c 28,12,13
 528 742 528 742 320 742 c 28,0,1
128 742 m 30,14,15
 128 870 128 870 256 870 c 28,16,17
 560 870 560 870 864 870 c 28,18,19
 896 870 896 870 896 838 c 30,20,-1
 896 -218 l 30,21,22
 896 -346 896 -346 768 -346 c 28,23,24
 496 -346 496 -346 224 -346 c 28,25,26
 192 -346 192 -346 192 -314 c 30,27,-1
 192 -250 l 30,28,29
 192 -218 192 -218 224 -218 c 28,30,31
 464 -218 464 -218 704 -218 c 28,32,33
 768 -218 768 -218 768 -154 c 30,34,-1
 768 -58 l 30,35,36
 768 -26 768 -26 736 -26 c 28,37,38
 496 -26 496 -26 256 -26 c 28,39,40
 128 -26 128 -26 128 102 c 30,41,-1
 128 742 l 30,14,15
EndSplineSet
Validated: 1
EndChar
StartChar: h
Encoding: 104 104 75
Width: 1020
VWidth: 0
Flags: W
LayerCount: 3
Back
Fore
SplineSet
223 0 m 152,-1,1
 191 0 191 0 159.5 0 c 152,-1,2
 128 0 128 0 128 32 c 26,3,-1
 128 1243 l 26,4,5
 128 1275 128 1275 159.5 1275 c 152,-1,6
 191 1275 191 1275 223 1275 c 152,-1,7
 255 1275 255 1275 255 1243 c 26,8,-1
 255 924 l 26,9,10
 255 893 255 893 287 893 c 24,11,12
 526 893 526 893 765 893 c 24,13,14
 892 893 892 893 892 765 c 26,15,16
 892 32 l 26,17,18
 892 0 892 0 860.5 0 c 152,-1,19
 829 0 829 0 797 0 c 152,-1,20
 765 0 765 0 765 32 c 26,21,-1
 765 701 l 26,22,23
 765 765 765 765 701 765 c 24,24,25
 494 765 494 765 287 765 c 24,26,27
 255 765 255 765 255 733 c 26,28,-1
 255 32 l 26,29,0
 255 0 255 0 223 0 c 152,-1,1
EndSplineSet
Validated: 1
EndChar
StartChar: i
Encoding: 105 105 76
Width: 1020
VWidth: 0
Flags: W
LayerCount: 3
Back
Fore
SplineSet
351 893 m 0,0,1
 542 893 l 0,2,3
 574 893 574 893 574 861 c 25,4,-1
 574 159 l 17,5,6
 574 128 574 128 606 128 c 24,7,8
 669 128 l 0,9,10
 701 128 701 128 701 96 c 26,11,-1
 701 32 l 18,12,13
 701 0 701 0 669 0 c 0,14,15
 510 0 510 0 351 0 c 24,16,17
 319 0 319 0 319 32 c 26,18,-1
 319 96 l 18,19,20
 319 128 319 128 350.5 128 c 128,-1,21
 382 128 382 128 414 128 c 128,-1,22
 446 128 446 128 446 159 c 26,23,-1
 446 733 l 18,24,25
 446 765 446 765 414 765 c 24,26,-1
 351 765 l 0,27,28
 319 765 319 765 319 797 c 26,29,-1
 319 861 l 26,30,31
 319 893 319 893 351 893 c 0,0,1
478 1275 m 152,-1,33
 510 1275 510 1275 542 1275 c 152,-1,34
 574 1275 574 1275 574 1243 c 26,35,-1
 574 1052 l 26,36,37
 574 1020 574 1020 542 1020 c 152,-1,38
 510 1020 510 1020 478 1020 c 152,-1,39
 446 1020 446 1020 446 1052 c 26,40,-1
 446 1243 l 26,41,32
 446 1275 446 1275 478 1275 c 152,-1,33
EndSplineSet
Validated: 1
EndChar
StartChar: j
Encoding: 106 106 77
Width: 1024
VWidth: 0
Flags: W
LayerCount: 3
Back
Fore
SplineSet
736 1254 m 156,-1,1
 768 1254 768 1254 800 1254 c 156,-1,2
 832 1254 832 1254 832 1222 c 30,3,-1
 832 1030 l 30,4,5
 832 998 832 998 800 998 c 156,-1,6
 768 998 768 998 736 998 c 156,-1,7
 704 998 704 998 704 1030 c 30,8,-1
 704 1222 l 30,9,0
 704 1254 704 1254 736 1254 c 156,-1,1
608 870 m 28,10,11
 704 870 704 870 800 870 c 28,12,13
 832 870 832 870 832 838 c 30,14,-1
 832 -218 l 30,15,16
 832 -346 832 -346 704 -346 c 28,17,18
 512 -346 512 -346 320 -346 c 28,19,20
 192 -346 192 -346 192 -218 c 30,21,-1
 192 -58 l 30,22,23
 192 -26 192 -26 224 -26 c 156,-1,24
 256 -26 256 -26 288 -26 c 156,-1,25
 320 -26 320 -26 320 -58 c 30,26,-1
 320 -154 l 30,27,28
 320 -218 320 -218 384 -218 c 28,29,30
 512 -218 512 -218 640 -218 c 28,31,32
 704 -218 704 -218 704 -154 c 30,33,-1
 704 710 l 30,34,35
 704 742 704 742 672 742 c 156,-1,36
 640 742 640 742 608 742 c 156,-1,37
 576 742 576 742 576 774 c 30,38,-1
 576 838 l 30,39,40
 576 870 576 870 608 870 c 28,10,11
EndSplineSet
Validated: 1
EndChar
StartChar: k
Encoding: 107 107 78
Width: 1024
VWidth: 0
Flags: W
LayerCount: 3
Back
Fore
SplineSet
192 1222 m 30,0,1
 192 1254 192 1254 224 1254 c 156,-1,2
 256 1254 256 1254 288 1254 c 156,-1,3
 320 1254 320 1254 320 1222 c 30,4,-1
 320 518 l 30,5,6
 320 486 320 486 352 518 c 28,7,8
 512 678 512 678 672 838 c 28,9,10
 704 870 704 870 736 870 c 28,11,12
 800 870 800 870 864 870 c 28,13,14
 896 870 896 870 864 838 c 28,15,16
 672 646 672 646 480 454 c 28,17,18
 448 422 448 422 480 390 c 28,19,20
 672 198 672 198 864 6 c 28,21,22
 896 -26 896 -26 864 -26 c 28,23,24
 800 -26 800 -26 736 -26 c 28,25,26
 704 -26 704 -26 672 6 c 28,27,28
 512 166 512 166 352 326 c 28,29,30
 320 358 320 358 320 326 c 30,31,-1
 320 6 l 30,32,33
 320 -26 320 -26 288 -26 c 156,-1,34
 256 -26 256 -26 224 -26 c 156,-1,35
 192 -26 192 -26 192 6 c 30,36,-1
 192 1222 l 30,0,1
EndSplineSet
Validated: 1
Comment: "I think I'm okay with this 'k'.."
EndChar
StartChar: l
Encoding: 108 108 79
Width: 1024
VWidth: 0
Flags: W
LayerCount: 3
Back
Fore
SplineSet
352 1254 m 28,0,1
 448 1254 448 1254 544 1254 c 28,2,3
 576 1254 576 1254 576 1222 c 30,4,-1
 576 134 l 30,5,6
 576 102 576 102 608 102 c 156,-1,7
 640 102 640 102 672 102 c 156,-1,8
 704 102 704 102 704 70 c 30,9,-1
 704 6 l 30,10,11
 704 -26 704 -26 672 -26 c 28,12,13
 512 -26 512 -26 352 -26 c 28,14,15
 320 -26 320 -26 320 6 c 30,16,-1
 320 70 l 30,17,18
 320 102 320 102 352 102 c 156,-1,19
 384 102 384 102 416 102 c 156,-1,20
 448 102 448 102 448 134 c 30,21,-1
 448 1094 l 30,22,23
 448 1126 448 1126 416 1126 c 156,-1,24
 384 1126 384 1126 352 1126 c 156,-1,25
 320 1126 320 1126 320 1158 c 30,26,-1
 320 1222 l 30,27,28
 320 1254 320 1254 352 1254 c 28,0,1
EndSplineSet
Validated: 1
EndChar
StartChar: m
Encoding: 109 109 80
Width: 1020
VWidth: 0
Flags: W
LayerCount: 3
Back
Fore
SplineSet
159.5 0 m 152,-1,1
 128 0 128 0 128 32 c 26,2,-1
 128 861 l 26,3,4
 128 893 128 893 159 893 c 24,5,6
 462 893 462 893 765 893 c 24,7,8
 892 893 892 893 892 765 c 26,9,-1
 892 32 l 26,10,11
 892 0 892 0 860.5 0 c 152,-1,12
 829 0 829 0 797 0 c 152,-1,13
 765 0 765 0 765 32 c 26,14,-1
 765 701 l 26,15,16
 765 765 765 765 701 765 c 24,17,18
 653 765 653 765 606 765 c 24,19,20
 574 765 574 765 574 733 c 26,21,-1
 574 32 l 26,22,23
 574 0 574 0 542 0 c 152,-1,24
 510 0 510 0 478 0 c 152,-1,25
 446 0 446 0 446 32 c 26,26,-1
 446 733 l 26,27,28
 446 765 446 765 414 765 c 24,29,30
 350 765 350 765 287 765 c 24,31,32
 255 765 255 765 255 733 c 26,33,-1
 255 32 l 26,34,35
 255 0 255 0 223 0 c 152,-1,0
 191 0 191 0 159.5 0 c 152,-1,1
EndSplineSet
Validated: 1
EndChar
StartChar: n
Encoding: 110 110 81
Width: 1020
VWidth: 0
Flags: W
LayerCount: 3
Back
Fore
SplineSet
159.5 0 m 152,-1,1
 128 0 128 0 128 32 c 26,2,-1
 128 861 l 26,3,4
 128 893 128 893 159 893 c 24,5,6
 462 893 462 893 765 893 c 24,7,8
 892 893 892 893 892 765 c 26,9,-1
 892 32 l 26,10,11
 892 0 892 0 860.5 0 c 152,-1,12
 829 0 829 0 797 0 c 152,-1,13
 765 0 765 0 765 32 c 26,14,-1
 765 701 l 26,15,16
 765 765 765 765 701 765 c 24,17,18
 494 765 494 765 287 765 c 24,19,20
 255 765 255 765 255 733 c 26,21,-1
 255 32 l 26,22,23
 255 0 255 0 223 0 c 152,-1,0
 191 0 191 0 159.5 0 c 152,-1,1
EndSplineSet
Validated: 1
EndChar
StartChar: o
Encoding: 111 111 82
Width: 1024
VWidth: 0
Flags: MW
LayerCount: 3
Back
Fore
SplineSet
256 705 m 26,0,1
 256 193 l 26,2,3
 256 130 256 130 319 129 c 0,4,-1
 705 129 l 0,5,6
 768 129 768 129 768 193 c 10,7,8
 768 705 l 26,9,10
 768 768 768 768 705 768 c 0,11,12
 512 768 512 768 319 768 c 0,13,14
 256 768 256 768 256 705 c 26,0,1
129 768 m 26,15,16
 129 897 129 897 256 897 c 0,17,18
 512 897 512 897 768 897 c 0,19,20
 895 897 895 897 895 768 c 26,21,-1
 895 129 l 18,22,23
 895 0 895 0 768 0 c 0,24,25
 512 0 512 0 256 0 c 0,26,27
 129 0 129 0 129 129 c 26,28,-1
 129 768 l 26,15,16
EndSplineSet
Validated: 1
Layer: 2
SplineSet
170 771 m 21,0,-1
 170 261 l 1,1,-1
 255 176 l 9,2,-1
 595 176 l 17,3,-1
 680 261 l 1,4,-1
 680 771 l 13,5,-1
 595 856 l 29,6,-1
 255 856 l 29,7,-1
 170 771 l 21,0,-1
0 856 m 29,8,-1
 170 1026 l 29,9,-1
 680 1026 l 29,10,-1
 850 856 l 29,11,-1
 850 176 l 25,12,-1
 680 6 l 25,13,-1
 170 6 l 25,14,-1
 0 176 l 25,15,-1
 0 856 l 29,8,-1
EndSplineSet
Validated: 1
EndChar
StartChar: p
Encoding: 112 112 83
Width: 1024
VWidth: 0
Flags: W
LayerCount: 3
Back
Fore
SplineSet
256 710 m 30,0,-1
 256 134 l 30,1,2
 256 102 256 102 288 102 c 28,3,4
 496 102 496 102 704 102 c 28,5,6
 768 102 768 102 768 166 c 30,7,-1
 768 678 l 30,8,9
 768 742 768 742 704 742 c 28,10,11
 496 742 496 742 288 742 c 28,12,13
 256 742 256 742 256 710 c 30,0,-1
160 870 m 28,14,15
 464 870 464 870 768 870 c 28,16,17
 896 870 896 870 896 742 c 30,18,-1
 896 102 l 30,19,20
 896 -26 896 -26 768 -26 c 28,21,22
 528 -26 528 -26 288 -26 c 28,23,24
 256 -26 256 -26 256 -58 c 30,25,-1
 256 -314 l 30,26,27
 256 -346 256 -346 224 -346 c 156,-1,28
 192 -346 192 -346 160 -346 c 156,-1,29
 128 -346 128 -346 128 -314 c 30,30,-1
 128 838 l 30,31,32
 128 870 128 870 160 870 c 28,14,15
EndSplineSet
Validated: 1
EndChar
StartChar: q
Encoding: 113 113 84
Width: 1024
VWidth: 0
Flags: MW
LayerCount: 3
Back
Fore
SplineSet
768 735 m 26,0,1
 768 768 768 768 735 768 c 24,2,3
 528 768 528 768 319 768 c 24,4,5
 256 768 256 768 256 705 c 26,6,-1
 256 193 l 26,7,8
 256 130 256 130 319 129 c 24,9,10
 526 129 526 129 735 129 c 24,11,12
 768 129 768 129 768 160 c 26,13,-1
 768 735 l 26,0,1
864 897 m 24,14,15
 895 897 895 897 895 864 c 26,16,-1
 895 -289 l 26,17,18
 895 -321 895 -321 863 -321 c 152,-1,19
 831 -321 831 -321 799.5 -321 c 152,-1,20
 768 -321 768 -321 768 -289 c 26,21,-1
 768 -33 l 26,22,23
 768 0 768 0 735 0 c 24,24,25
 495 0 495 0 256 0 c 24,26,27
 129 0 129 0 129 129 c 26,28,-1
 129 768 l 26,29,30
 129 897 129 897 256 897 c 24,31,32
 559 897 559 897 864 897 c 24,14,15
EndSplineSet
Validated: 1
Layer: 2
Validated: 1
EndChar
StartChar: r
Encoding: 114 114 85
Width: 1024
VWidth: 0
Flags: W
LayerCount: 3
Back
Fore
SplineSet
160 870 m 156,-1,1
 192 870 192 870 224 870 c 156,-1,2
 256 870 256 870 256 838 c 30,3,-1
 256 774 l 30,4,5
 256 742 256 742 288 774 c 156,-1,6
 320 806 320 806 352 838 c 156,-1,7
 384 870 384 870 416 870 c 28,8,9
 640 870 640 870 864 870 c 28,10,11
 896 870 896 870 896 838 c 30,12,-1
 896 774 l 30,13,14
 896 742 896 742 864 742 c 28,15,16
 672 742 672 742 480 742 c 28,17,18
 448 742 448 742 416 710 c 28,19,20
 352 646 352 646 288 582 c 28,21,22
 256 550 256 550 256 518 c 30,23,-1
 256 6 l 30,24,25
 256 -26 256 -26 224 -26 c 156,-1,26
 192 -26 192 -26 160 -26 c 156,-1,27
 128 -26 128 -26 128 6 c 30,28,-1
 128 838 l 30,29,0
 128 870 128 870 160 870 c 156,-1,1
EndSplineSet
Validated: 1
Comment: "* For the top right of the 'r', I may decide to have it be more like an arc."
EndChar
StartChar: s
Encoding: 115 115 86
Width: 1024
VWidth: 0
Flags: W
LayerCount: 3
Back
Fore
SplineSet
128 742 m 30,0,1
 128 870 128 870 256 870 c 28,2,3
 512 870 512 870 768 870 c 28,4,5
 896 870 896 870 896 742 c 30,6,-1
 896 710 l 30,7,8
 896 678 896 678 864 678 c 28,9,10
 800 678 800 678 736 678 c 28,11,12
 704 678 704 678 704 710 c 156,-1,13
 704 742 704 742 672 742 c 28,14,15
 496 742 496 742 320 742 c 28,16,17
 256 742 256 742 256 678 c 30,18,-1
 256 550 l 30,19,20
 256 486 256 486 320 486 c 28,21,22
 544 486 544 486 768 486 c 28,23,24
 896 486 896 486 896 358 c 30,25,-1
 896 102 l 30,26,27
 896 -26 896 -26 768 -26 c 28,28,29
 512 -26 512 -26 256 -26 c 28,30,31
 128 -26 128 -26 128 102 c 30,32,-1
 128 134 l 30,33,34
 128 166 128 166 160 166 c 28,35,36
 224 166 224 166 288 166 c 28,37,38
 320 166 320 166 320 134 c 156,-1,39
 320 102 320 102 352 102 c 28,40,41
 528 102 528 102 704 102 c 28,42,43
 768 102 768 102 768 166 c 30,44,-1
 768 294 l 30,45,46
 768 358 768 358 704 358 c 28,47,48
 480 358 480 358 256 358 c 28,49,50
 128 358 128 358 128 486 c 30,51,-1
 128 742 l 30,0,1
EndSplineSet
Validated: 1
EndChar
StartChar: t
Encoding: 116 116 87
Width: 1020
VWidth: 0
Flags: W
LayerCount: 3
Back
Fore
SplineSet
414 1275 m 152,-1,1
 446 1275 446 1275 478 1275 c 152,-1,2
 510 1275 510 1275 510 1243 c 26,3,-1
 510 924 l 26,4,5
 510 893 510 893 542 893 c 24,6,7
 638 893 638 893 733 893 c 24,8,9
 765 893 765 893 765 861 c 26,10,-1
 765 797 l 26,11,12
 765 765 765 765 733 765 c 24,13,14
 637 765 637 765 542 765 c 24,15,16
 510 765 510 765 510 733 c 26,17,-1
 510 191 l 26,18,19
 510 128 510 128 574 128 c 24,20,21
 717 128 717 128 861 128 c 24,22,23
 892 128 892 128 892 96 c 26,24,-1
 892 32 l 26,25,26
 892 0 892 0 861 0 c 24,27,28
 686 0 686 0 510 0 c 24,29,30
 382 0 382 0 382 128 c 26,31,-1
 382 733 l 26,32,33
 382 765 382 765 351 765 c 24,34,35
 255 765 255 765 159 765 c 24,36,37
 128 765 128 765 128 797 c 26,38,-1
 128 861 l 26,39,40
 128 893 128 893 159 893 c 24,41,42
 255 893 255 893 351 893 c 24,43,44
 382 893 382 893 382 924 c 26,45,-1
 382 1243 l 26,46,0
 382 1275 382 1275 414 1275 c 152,-1,1
EndSplineSet
Validated: 1
EndChar
StartChar: u
Encoding: 117 117 88
Width: 1024
VWidth: 0
Flags: MW
LayerCount: 3
Back
Fore
SplineSet
161 897 m 152,-1,1
 193 897 193 897 224.5 897 c 152,-1,2
 256 897 256 897 256 864 c 26,3,-1
 256 193 l 26,4,5
 256 130 256 130 319 129 c 24,6,7
 526 129 526 129 735 129 c 24,8,9
 768 129 768 129 768 160 c 26,10,-1
 768 864 l 26,11,12
 768 897 768 897 799.5 897 c 152,-1,13
 831 897 831 897 863 897 c 152,-1,14
 895 897 895 897 895 864 c 26,15,-1
 895 33 l 26,16,17
 895 0 895 0 864 0 c 24,18,19
 559 0 559 0 256 0 c 24,20,21
 129 0 129 0 129 129 c 26,22,-1
 129 864 l 26,23,0
 129 897 129 897 161 897 c 152,-1,1
EndSplineSet
Validated: 1
Layer: 2
Validated: 1
EndChar
StartChar: v
Encoding: 118 118 89
Width: 1024
VWidth: 0
Flags: MW
LayerCount: 3
Back
Fore
SplineSet
161 897 m 152,-1,1
 193 897 193 897 224.5 897 c 152,-1,2
 256 897 256 897 266 864 c 24,3,4
 444 325 444 325 496 223 c 24,5,6
 512 190 512 190 528 223 c 24,7,8
 587 344 587 344 758 864 c 24,9,10
 768 897 768 897 799.5 897 c 152,-1,11
 831 897 831 897 863 897 c 152,-1,12
 895 897 895 897 885 864 c 26,13,-1
 588 33 l 26,14,15
 578 0 578 0 545 0 c 152,-1,16
 512 0 512 0 480.5 0 c 152,-1,17
 449 0 449 0 436 33 c 26,18,-1
 139 864 l 26,19,0
 129 897 129 897 161 897 c 152,-1,1
EndSplineSet
Validated: 1
Layer: 2
Validated: 1
Comment: "* Happyish with the results..+AAoA* This 'V' is a slut..  Not to be dirty or anything..  Just not sure if I like it..+AAoACgAA-Confusing I know.."
EndChar
StartChar: w
Encoding: 119 119 90
Width: 1024
VWidth: 0
Flags: W
LayerCount: 3
Back
Fore
SplineSet
160 870 m 156,-1,1
 192 870 192 870 224 870 c 156,-1,2
 256 870 256 870 256 838 c 30,3,-1
 256 166 l 30,4,5
 256 102 256 102 320 102 c 28,6,7
 368 102 368 102 416 102 c 28,8,9
 448 102 448 102 448 134 c 30,10,-1
 448 582 l 30,11,12
 448 614 448 614 480 614 c 156,-1,13
 512 614 512 614 544 614 c 156,-1,14
 576 614 576 614 576 582 c 30,15,-1
 576 134 l 30,16,17
 576 102 576 102 608 102 c 28,18,19
 656 102 656 102 704 102 c 28,20,21
 768 102 768 102 768 166 c 30,22,-1
 768 838 l 30,23,24
 768 870 768 870 800 870 c 156,-1,25
 832 870 832 870 864 870 c 156,-1,26
 896 870 896 870 896 838 c 30,27,-1
 896 102 l 30,28,29
 896 -26 896 -26 768 -26 c 28,30,31
 512 -26 512 -26 256 -26 c 28,32,33
 128 -26 128 -26 128 102 c 30,34,-1
 128 838 l 30,35,0
 128 870 128 870 160 870 c 156,-1,1
EndSplineSet
Validated: 1
EndChar
StartChar: x
Encoding: 120 120 91
Width: 1024
VWidth: 0
Flags: MW
LayerCount: 3
Back
Fore
SplineSet
161 897 m 152,-1,1
 193 897 193 897 224.5 897 c 152,-1,2
 256 897 256 897 256 864 c 152,-1,3
 256 831 256 831 479 608 c 16,4,5
 495 592 495 592 512 592 c 0,6,-1
 545 608 l 8,7,8
 768 831 768 831 768 864 c 152,-1,9
 768 897 768 897 799.5 897 c 152,-1,10
 831 897 831 897 863 897 c 152,-1,11
 895 897 895 897 895 864 c 26,12,-1
 895 801 l 26,13,14
 895 768 895 768 864 735 c 24,15,16
 768 639 768 639 672 545 c 24,17,18
 641 512 641 512 641 479 c 26,19,-1
 641 416 l 26,20,21
 641 383 641 383 672 352 c 24,22,23
 768 256 768 256 864 160 c 24,24,25
 895 127 895 127 895 96 c 26,26,-1
 895 33 l 26,27,28
 895 0 895 0 863 0 c 152,-1,29
 831 0 831 0 799.5 0 c 152,-1,30
 768 0 768 0 768 31.5 c 152,-1,31
 768 63 768 63 735 96 c 24,32,33
 639 192 639 192 545 289 c 16,34,35
 529 305 529 305 512 305 c 0,36,-1
 479 289 l 8,37,38
 383 193 383 193 289 96 c 24,39,40
 256 63 256 63 256 31.5 c 152,-1,41
 256 0 256 0 224.5 0 c 152,-1,42
 193 0 193 0 161 0 c 152,-1,43
 129 0 129 0 129 33 c 26,44,-1
 129 96 l 26,45,46
 129 129 129 129 160 160 c 24,47,48
 256 256 256 256 352 352 c 24,49,50
 383 385 383 385 383 416 c 26,51,-1
 383 479 l 26,52,53
 383 512 383 512 352 545 c 24,54,55
 256 641 256 641 160 735 c 24,56,57
 129 768 129 768 129 801 c 26,58,-1
 129 864 l 26,59,0
 129 897 129 897 161 897 c 152,-1,1
EndSplineSet
Validated: 1
Layer: 2
Validated: 1
Comment: "Meh...+AAoA* Look at the bitmap..  Doesn't look the same.  Refer to (Possiblel) 'X', but definitly '+AH4A' and '*'"
EndChar
StartChar: y
Encoding: 121 121 92
Width: 1024
VWidth: 0
Flags: MW
LayerCount: 3
Back
Fore
SplineSet
161 897 m 152,-1,1
 193 897 193 897 224.5 897 c 152,-1,2
 256 897 256 897 256 864 c 26,3,-1
 256 193 l 26,4,5
 256 130 256 130 319 129 c 24,6,7
 526 129 526 129 735 129 c 24,8,9
 768 129 768 129 768 160 c 26,10,-1
 768 864 l 26,11,12
 768 897 768 897 799.5 897 c 152,-1,13
 831 897 831 897 863 897 c 152,-1,14
 895 897 895 897 895 864 c 26,15,-1
 895 -193 l 26,16,17
 895 -320 895 -320 768 -321 c 16,18,19
 632 -320 632 -320 496 -320 c 0,20,-1
 223 -321 l 8,21,22
 192 -321 192 -321 193 -289 c 25,23,-1
 193 -223 l 26,24,25
 193 -192 193 -192 223 -193 c 24,26,27
 463 -193 463 -193 705 -193 c 24,28,29
 768 -193 768 -193 768 -127 c 26,30,-1
 768 -33 l 26,31,32
 768 0 768 0 735 0 c 24,33,34
 495 0 495 0 256 0 c 24,35,36
 129 0 129 0 129 129 c 26,37,-1
 129 864 l 26,38,0
 129 897 129 897 161 897 c 152,-1,1
EndSplineSet
Validated: 1
Layer: 2
SplineSet
0 1023 m 29,0,-1
 170 1023 l 21,1,-1
 170 259 l 1,2,-1
 255 174 l 9,3,-1
 670 174 l 1,4,-1
 670 1024 l 29,5,-1
 840 1024 l 29,6,-1
 840 -166 l 25,7,-1
 670 -336 l 25,8,-1
 170 -336 l 25,9,-1
 170 -166 l 25,10,-1
 585 -166 l 25,11,-1
 670 -81 l 25,12,-1
 670 4 l 25,13,-1
 170 4 l 25,14,-1
 0 174 l 25,15,-1
 0 1023 l 29,0,-1
EndSplineSet
Validated: 1
EndChar
StartChar: z
Encoding: 122 122 93
Width: 1024
VWidth: 0
Flags: MW
LayerCount: 3
Back
Fore
SplineSet
864 672 m 1048,0,-1
160 897 m 24,1,2
 512 897 512 897 864 897 c 24,3,4
 895 897 895 897 895 864 c 26,5,-1
 895 735 l 26,6,7
 895 684 895 684 352 160 c 24,8,9
 319 129 319 129 352 129 c 24,10,11
 608 129 608 129 864 129 c 24,12,13
 895 129 895 129 895 96 c 26,14,-1
 895 33 l 26,15,16
 895 0 895 0 864 0 c 24,17,18
 512 0 512 0 160 0 c 24,19,20
 129 0 129 0 129 33 c 26,21,-1
 129 96 l 26,22,23
 129 129 129 129 160 160 c 24,24,25
 416 416 416 416 672 672 c 24,26,27
 705 705 705 705 705 736.5 c 152,-1,28
 705 768 705 768 672 768 c 24,29,30
 416 768 416 768 160 768 c 24,31,32
 129 768 129 768 129 801 c 26,33,-1
 129 864 l 26,34,35
 129 897 129 897 160 897 c 24,1,2
EndSplineSet
Validated: 1
Layer: 2
SplineSet
0 1023 m 29,0,-1
 853 1023 l 29,1,-1
 853 853 l 21,2,-1
 171 255 l 5,3,-1
 171 170 l 13,4,-1
 853 170 l 29,5,-1
 853 0 l 29,6,-1
 0 0 l 29,7,-1
 0 342 l 21,8,-1
 512 768 l 5,9,-1
 512 853 l 13,10,-1
 0 853 l 29,11,-1
 0 1023 l 29,0,-1
EndSplineSet
Validated: 1
Comment: "* Looks like there is a curve missing at the top right.+AAoA* Refer to 'Z'"
EndChar
StartChar: braceleft
Encoding: 123 123 94
Width: 1024
VWidth: 0
Flags: W
LayerCount: 3
Back
Fore
SplineSet
384 1126 m 30,0,1
 384 1254 384 1254 512 1254 c 28,2,3
 624 1254 624 1254 736 1254 c 28,4,5
 768 1254 768 1254 768 1222 c 30,6,-1
 768 1158 l 30,7,8
 768 1126 768 1126 736 1126 c 28,9,10
 656 1126 656 1126 576 1126 c 28,11,12
 512 1126 512 1126 512 1062 c 30,13,-1
 512 710 l 30,14,15
 512 678 512 678 480 678 c 156,-1,16
 448 678 448 678 448 646 c 30,17,-1
 448 582 l 30,18,19
 448 550 448 550 480 550 c 156,-1,20
 512 550 512 550 512 518 c 30,21,-1
 512 166 l 30,22,23
 512 102 512 102 576 102 c 28,24,25
 656 102 656 102 736 102 c 28,26,27
 768 102 768 102 768 70 c 30,28,-1
 768 6 l 30,29,30
 768 -26 768 -26 736 -26 c 28,31,32
 624 -26 624 -26 512 -26 c 28,33,34
 384 -26 384 -26 384 102 c 30,35,-1
 384 518 l 30,36,37
 384 550 384 550 352 550 c 28,38,39
 288 550 288 550 224 550 c 28,40,41
 192 550 192 550 192 582 c 30,42,-1
 192 646 l 30,43,44
 192 678 192 678 224 678 c 28,45,46
 288 678 288 678 352 678 c 28,47,48
 384 678 384 678 384 710 c 30,49,-1
 384 1126 l 30,0,1
EndSplineSet
Validated: 1
EndChar
StartChar: bar
Encoding: 124 124 95
Width: 1024
VWidth: 0
Flags: MW
LayerCount: 3
Back
Fore
SplineSet
480.5 1280 m 152,-1,1
 512 1280 512 1280 543.5 1280 c 152,-1,2
 575 1280 575 1280 575 1247 c 26,3,-1
 575 33 l 26,4,5
 575 0 575 0 543.5 0 c 152,-1,6
 512 0 512 0 480.5 0 c 152,-1,7
 449 0 449 0 449 33 c 26,8,-1
 449 1247 l 26,9,0
 449 1280 449 1280 480.5 1280 c 152,-1,1
EndSplineSet
Validated: 1
Layer: 2
SplineSet
512 1364 m 29,0,-1
 512 0 l 29,1,-1
 342 0 l 29,2,-1
 342 1364 l 29,3,-1
 512 1364 l 29,0,-1
EndSplineSet
Validated: 1
EndChar
StartChar: braceright
Encoding: 125 125 96
Width: 1024
VWidth: 0
Flags: W
LayerCount: 3
Back
Fore
SplineSet
576 102 m 30,0,1
 576 -26 576 -26 448 -26 c 28,2,3
 336 -26 336 -26 224 -26 c 28,4,5
 192 -26 192 -26 192 6 c 30,6,-1
 192 70 l 30,7,8
 192 102 192 102 224 102 c 28,9,10
 304 102 304 102 384 102 c 28,11,12
 448 102 448 102 448 166 c 30,13,-1
 448 518 l 30,14,15
 448 550 448 550 480 550 c 156,-1,16
 512 550 512 550 512 582 c 30,17,-1
 512 646 l 30,18,19
 512 678 512 678 480 678 c 156,-1,20
 448 678 448 678 448 710 c 30,21,-1
 448 1062 l 30,22,23
 448 1126 448 1126 384 1126 c 28,24,25
 304 1126 304 1126 224 1126 c 28,26,27
 192 1126 192 1126 192 1158 c 30,28,-1
 192 1222 l 30,29,30
 192 1254 192 1254 224 1254 c 28,31,32
 336 1254 336 1254 448 1254 c 28,33,34
 576 1254 576 1254 576 1126 c 30,35,-1
 576 710 l 30,36,37
 576 678 576 678 608 678 c 28,38,39
 672 678 672 678 736 678 c 28,40,41
 768 678 768 678 768 646 c 30,42,-1
 768 582 l 30,43,44
 768 550 768 550 736 550 c 28,45,46
 672 550 672 550 608 550 c 28,47,48
 576 550 576 550 576 518 c 30,49,-1
 576 102 l 30,0,1
EndSplineSet
Validated: 1
EndChar
StartChar: asciitilde
Encoding: 126 126 97
Width: 1024
VWidth: 0
Flags: MW
LayerCount: 3
Back
Fore
SplineSet
129 1280 m 26,0,1
 129 1409 129 1409 256 1409 c 24,2,3
 449 1409 l 24,4,5
 576 1409 576 1409 575 1280 c 25,6,-1
 575 1217 l 26,7,8
 575 1154 575 1154 641 1153 c 24,9,10
 674 1153 674 1153 705 1153 c 24,11,12
 768 1153 768 1153 768 1217 c 26,13,-1
 768 1378 l 26,14,15
 768 1410 768 1410 799.5 1410 c 152,-1,16
 831 1410 831 1410 863 1410 c 152,-1,17
 895 1410 895 1410 895 1378 c 26,18,-1
 895 1153 l 26,19,20
 895 1024 895 1024 768 1024 c 24,21,22
 672 1024 672 1024 575 1024 c 24,23,24
 448 1024 448 1024 449 1153 c 25,25,-1
 449 1217 l 26,26,27
 449 1280 449 1280 383 1280 c 24,28,29
 350 1280 350 1280 319 1280 c 24,30,31
 256 1280 256 1280 256 1217 c 26,32,-1
 256 1057 l 26,33,34
 256 1024 256 1024 224.5 1024 c 152,-1,35
 193 1024 193 1024 161 1024 c 152,-1,36
 129 1024 129 1024 129 1057 c 26,37,-1
 129 1280 l 26,0,1
EndSplineSet
Validated: 33
Layer: 2
SplineSet
516 1365 m 29,0,-1
 346 1535 l 29,1,-1
 176 1535 l 29,2,-1
 6 1365 l 29,3,-1
 6 1025 l 29,4,-1
 176 1025 l 29,5,-1
 176 1280 l 29,6,-1
 261 1365 l 29,7,-1
 346 1280 l 25,8,-1
 346 1195 l 25,9,-1
 516 1025 l 25,10,-1
 686 1025 l 25,11,-1
 856 1195 l 25,12,-1
 856 1535 l 25,13,-1
 686 1535 l 25,14,-1
 686 1280 l 25,15,-1
 601 1195 l 25,16,-1
 516 1280 l 25,17,-1
 516 1365 l 29,0,-1
EndSplineSet
Validated: 9
Comment: "This was a lot harder than it should have been..."
EndChar
StartChar: exclamdown
Encoding: 161 161 99
Width: 1020
VWidth: 0
Flags: W
LayerCount: 3
Back
Fore
SplineSet
446 420.5 m 128,-1,1
 446 612 446 612 464.5 739.5 c 128,-1,2
 483 867 483 867 510 867 c 128,-1,3
 537 867 537 867 555.5 739.5 c 128,-1,4
 574 612 574 612 574 420.5 c 128,-1,5
 574 229 574 229 555.5 101.5 c 128,-1,6
 537 -26 537 -26 510 -26 c 128,-1,7
 483 -26 483 -26 464.5 101.5 c 128,-1,0
 446 229 446 229 446 420.5 c 128,-1,1
446 1121.5 m 128,-1,9
 446 1174 446 1174 465 1211.5 c 128,-1,10
 484 1249 484 1249 510 1249 c 128,-1,11
 536 1249 536 1249 555 1211.5 c 128,-1,12
 574 1174 574 1174 574 1121.5 c 128,-1,13
 574 1069 574 1069 555 1031.5 c 128,-1,14
 536 994 536 994 510 994 c 128,-1,15
 484 994 484 994 465 1031.5 c 128,-1,8
 446 1069 446 1069 446 1121.5 c 128,-1,9
EndSplineSet
Validated: 1
EndChar
StartChar: cent
Encoding: 162 162 100
Width: 1020
VWidth: 0
Flags: W
LayerCount: 3
Back
Fore
SplineSet
446 978 m 0,0,1
 446 1012 446 1012 464.5 1035 c 128,-1,2
 483 1058 483 1058 510 1058 c 0,3,4
 536 1058 536 1058 555 1029 c 128,-1,5
 574 1000 574 1000 574 962 c 0,6,7
 574 924 574 924 600.5 895.5 c 128,-1,8
 627 867 627 867 663 867 c 0,9,10
 689 867 689 867 720 853.5 c 128,-1,11
 751 840 751 840 778 818.5 c 128,-1,12
 805 797 805 797 829.5 770.5 c 128,-1,13
 854 744 854 744 867.5 718 c 128,-1,14
 881 692 881 692 884.5 668.5 c 128,-1,15
 888 645 888 645 872 631 c 0,16,17
 853 611 853 611 819.5 620 c 128,-1,18
 786 629 786 629 752 663 c 0,19,20
 659 756 659 756 621 725 c 0,21,22
 577 690 577 690 574 460 c 0,23,24
 574 441 574 441 574 420 c 0,25,26
 574 166 574 166 615 121 c 0,27,28
 651 82 651 82 738 164 c 0,29,30
 745 170 745 170 752 178 c 0,31,32
 785 211 785 211 819 220.5 c 128,-1,33
 853 230 853 230 872 210 c 0,34,35
 887 195 887 195 884 172 c 128,-1,36
 881 149 881 149 867.5 123 c 128,-1,37
 854 97 854 97 829.5 70.5 c 128,-1,38
 805 44 805 44 778 22.5 c 128,-1,39
 751 1 751 1 720 -12.5 c 128,-1,40
 689 -26 689 -26 663 -26 c 0,41,42
 627 -26 627 -26 600.5 -54.5 c 128,-1,43
 574 -83 574 -83 574 -122 c 0,44,45
 574 -160 574 -160 555 -188.5 c 128,-1,46
 536 -217 536 -217 510 -217 c 0,47,48
 483 -217 483 -217 464.5 -194 c 128,-1,49
 446 -171 446 -171 446 -137 c 0,50,51
 446 -105 446 -105 403.5 -62.5 c 128,-1,52
 361 -20 361 -20 303 6 c 0,53,54
 254 28 254 28 228 51 c 128,-1,55
 202 74 202 74 185.5 122 c 128,-1,56
 169 170 169 170 164 236 c 128,-1,57
 159 302 159 302 159 420.5 c 128,-1,58
 159 539 159 539 164 604.5 c 128,-1,59
 169 670 169 670 185.5 718.5 c 128,-1,60
 202 767 202 767 228 790 c 128,-1,61
 254 813 254 813 303 835 c 0,62,63
 361 861 361 861 403.5 903.5 c 128,-1,64
 446 946 446 946 446 978 c 0,0,1
446 414 m 0,65,66
 446 631 446 631 396 714 c 0,67,68
 360 774 360 774 317 721 c 0,69,70
 297 697 297 697 280 650 c 0,71,72
 260 597 260 597 258 509 c 128,-1,73
 256 421 256 421 269 339 c 128,-1,74
 282 257 282 257 307.5 192 c 128,-1,75
 333 127 333 127 363 117 c 0,76,77
 410 101 410 101 430 183 c 0,78,79
 446 254 446 254 446 414 c 0,65,66
EndSplineSet
Validated: 33
EndChar
StartChar: sterling
Encoding: 163 163 101
Width: 1024
VWidth: 0
Flags: W
LayerCount: 3
Back
Fore
SplineSet
332.799804688 1177.20019531 m 0,0,1
 384.579225085 1228.97914019 384.579225085 1228.97914019 470.227831029 1245.16736662 c 128,-1,2
 555.876436973 1261.35559304 555.876436973 1261.35559304 639.530958033 1237.72488599 c 128,-1,3
 723.185479094 1214.09417893 723.185479094 1214.09417893 769.5625 1158 c 0,4,5
 795.044775888 1127.17840591 795.044775888 1127.17840591 807.754468238 1099.20469134 c 128,-1,6
 820.464160588 1071.23097678 820.464160588 1071.23097678 819.962084497 1052.11973086 c 128,-1,7
 819.460008406 1033.00848494 819.460008406 1033.00848494 808.250797086 1021.81845183 c 128,-1,8
 797.041585766 1010.62841873 797.041585766 1010.62841873 777.915064821 1010.14465129 c 128,-1,9
 758.788543875 1009.66088384 758.788543875 1009.66088384 730.805068643 1022.38696493 c 128,-1,10
 702.82159341 1035.11304601 702.82159341 1035.11304601 672 1060.60449219 c 0,11,12
 618.453879406 1104.89059055 618.453879406 1104.89059055 565.553200889 1111.93031309 c 128,-1,13
 512.652522372 1118.97003563 512.652522372 1118.97003563 472.98398478 1092.7165375 c 128,-1,14
 433.315447188 1066.46303936 433.315447188 1066.46303936 408.657723594 1008.0935211 c 128,-1,15
 384 949.724002833 384 949.724002833 384 870 c 0,16,17
 384 750 384 750 414 714 c 128,-1,18
 444 678 444 678 544 678 c 0,19,20
 611 678 611 678 657.5 659.5 c 128,-1,21
 704 641 704 641 704 614 c 128,-1,22
 704 587 704 587 657.5 568.5 c 128,-1,23
 611 550 611 550 544 550 c 0,24,25
 487 550 487 550 458.5 544 c 128,-1,26
 430 538 430 538 411.5 512 c 128,-1,27
 393 486 393 486 388.5 446 c 128,-1,28
 384 406 384 406 384 326 c 0,29,30
 384 270 384 270 385.5 238 c 128,-1,31
 387 206 387 206 395 177.5 c 128,-1,32
 403 149 403 149 413.5 136.5 c 128,-1,33
 424 124 424 124 448.5 115 c 128,-1,34
 473 106 473 106 500.5 104 c 128,-1,35
 528 102 528 102 576 102 c 0,36,37
 658 102 658 102 713 120.5 c 128,-1,38
 768 139 768 139 768 166 c 0,39,40
 768 195 768 195 785.5 212.5 c 128,-1,41
 803 230 803 230 832 230 c 0,42,43
 858 230 858 230 877 192.5 c 128,-1,44
 896 155 896 155 896 102 c 0,45,46
 896 72 896 72 891.5 53 c 128,-1,47
 887 34 887 34 871 18.5 c 128,-1,48
 855 3 855 3 832 -4.5 c 128,-1,49
 809 -12 809 -12 762 -17.5 c 128,-1,50
 715 -23 715 -23 659 -24.5 c 128,-1,51
 603 -26 603 -26 512 -26 c 0,52,53
 354 -26 354 -26 241 -7 c 128,-1,54
 128 12 128 12 128 38 c 0,55,56
 128 67 128 67 145.5 84.5 c 128,-1,57
 163 102 163 102 192 102 c 0,58,59
 218.934515119 102 218.934515119 102 235.407216204 146.712249515 c 128,-1,60
 251.879917288 191.42449903 251.879917288 191.42449903 253.559291609 257.129562985 c 128,-1,61
 255.23866593 322.83462694 255.23866593 322.83462694 248.176216204 390.604030765 c 128,-1,62
 241.113766477 458.37343459 241.113766477 458.37343459 220.683057234 511.800250485 c 128,-1,63
 200.252347991 565.227066381 200.252347991 565.227066381 172.799804688 578.0703125 c 0,64,65
 141.226626379 592.84166594 141.226626379 592.84166594 132.115640783 603.633578342 c 128,-1,66
 123.004655188 614.425490744 123.004655188 614.425490744 133.057861821 625.519416449 c 128,-1,67
 143.111068453 636.613342154 143.111068453 636.613342154 176 652.400390625 c 0,68,69
 209.749950243 668.600073773 209.749950243 668.600073773 232.874975122 738.900070854 c 128,-1,70
 256 809.200067935 256 809.200067935 256 895.599609375 c 0,71,72
 256 952.334920067 256 952.334920067 266.118823466 1009.50252093 c 128,-1,73
 276.237646932 1066.67012179 276.237646932 1066.67012179 293.880851013 1111.29728376 c 128,-1,74
 311.524055094 1155.92444572 311.524055094 1155.92444572 332.799804688 1177.20019531 c 0,0,1
EndSplineSet
Validated: 33
EndChar
StartChar: currency
Encoding: 164 164 102
Width: 1020
VWidth: 0
Flags: W
LayerCount: 3
Back
Fore
SplineSet
165 981 m 0,0,1
 125 1046 125 1046 172 1056 c 0,2,3
 229 1068 229 1068 353 996 c 0,4,5
 366 988 366 988 382 978 c 0,6,7
 458 930 458 930 509.5 930 c 0,8,9
 562 930 562 930 638 978 c 0,10,11
 763 1056 763 1056 834 1055 c 0,12,13
 882 1054 882 1054 869 1012 c 0,14,15
 864 996 864 996 850 975 c 0,16,17
 830 947 830 947 817 873 c 128,-1,18
 804 799 804 799 801.5 707 c 128,-1,19
 799 615 799 615 803 522 c 128,-1,20
 807 429 807 429 821 352 c 128,-1,21
 835 275 835 275 855 242 c 0,22,23
 895 177 895 177 848 167 c 0,24,25
 791 155 791 155 667 227 c 0,26,27
 654 235 654 235 638 245 c 0,28,29
 562 293 562 293 510.5 293 c 0,30,31
 458 293 458 293 382 245 c 0,32,33
 257 167 257 167 186 168 c 0,34,35
 138 169 138 169 151 211 c 0,36,37
 156 227 156 227 170 248 c 0,38,39
 203 295 203 295 215 451.5 c 128,-1,40
 227 608 227 608 213 767 c 128,-1,41
 199 926 199 926 165 981 c 0,0,1
669 612 m 128,-1,43
 669 698 669 698 635.5 739 c 128,-1,44
 602 780 602 780 523 792 c 0,45,46
 465 800 465 800 418.5 781.5 c 128,-1,47
 372 763 372 763 348.5 724.5 c 128,-1,48
 325 686 325 686 321 632 c 128,-1,49
 317 578 317 578 342 516 c 0,50,51
 359 472 359 472 411.5 448.5 c 128,-1,52
 464 425 464 425 526 433 c 0,53,54
 603 443 603 443 636 484.5 c 128,-1,42
 669 526 669 526 669 612 c 128,-1,43
EndSplineSet
Validated: 524321
EndChar
StartChar: yen
Encoding: 165 165 103
Width: 1020
VWidth: 0
Flags: W
LayerCount: 3
Back
Fore
SplineSet
128 1211 m 0,0,1
 128 1264 128 1264 157 1259 c 0,2,3
 198 1252 198 1252 266 1150 c 0,4,5
 311 1082 311 1082 351 994 c 0,6,7
 398 889 398 889 445 814 c 128,-1,8
 492 739 492 739 510 739 c 0,9,10
 528 739 528 739 575 814 c 128,-1,11
 622 889 622 889 669 994 c 0,12,13
 692 1046 692 1046 717.5 1093 c 128,-1,14
 743 1140 743 1140 765.5 1174.5 c 128,-1,15
 788 1209 788 1209 806.5 1229 c 128,-1,16
 825 1249 825 1249 835 1249 c 0,17,18
 878 1249 878 1249 883 1226 c 0,19,20
 890 1190 890 1190 812 1027 c 0,21,22
 784 969 784 969 733 867 c 0,23,24
 612 625 612 625 595 567 c 0,25,26
 577 508 577 508 608 493 c 0,27,28
 628 484 628 484 701 484 c 0,29,30
 754 484 754 484 791.5 465 c 128,-1,31
 829 446 829 446 829 420 c 128,-1,32
 829 394 829 394 791.5 375.5 c 128,-1,33
 754 357 754 357 701 357 c 128,-1,34
 648 357 648 357 611 338 c 128,-1,35
 574 319 574 319 574 293 c 128,-1,36
 574 267 574 267 611 248 c 128,-1,37
 648 229 648 229 701 229 c 128,-1,38
 754 229 754 229 791.5 210 c 128,-1,39
 829 191 829 191 829 165 c 0,40,41
 829 140 829 140 792 121 c 128,-1,42
 755 102 755 102 707.5 102 c 128,-1,43
 660 102 660 102 611.5 77.5 c 128,-1,44
 563 53 563 53 548 22 c 0,45,46
 525 -26 525 -26 510 -26 c 128,-1,47
 495 -26 495 -26 472 22 c 0,48,49
 465 37 465 37 447.5 52 c 128,-1,50
 430 67 430 67 408.5 77.5 c 128,-1,51
 387 88 387 88 361.5 95 c 128,-1,52
 336 102 336 102 312 102 c 0,53,54
 264 102 264 102 227.5 121 c 128,-1,55
 191 140 191 140 191 165 c 0,56,57
 191 191 191 191 228.5 210 c 128,-1,58
 266 229 266 229 319 229 c 128,-1,59
 372 229 372 229 409 248 c 128,-1,60
 446 267 446 267 446 293 c 128,-1,61
 446 319 446 319 409 338 c 128,-1,62
 372 357 372 357 319 357 c 128,-1,63
 266 357 266 357 228.5 375.5 c 128,-1,64
 191 394 191 394 191 420 c 128,-1,65
 191 446 191 446 228.5 465 c 128,-1,66
 266 484 266 484 319 484 c 0,67,68
 401 484 401 484 419 497 c 0,69,70
 445 516 445 516 415 594 c 0,71,72
 392 653 392 653 285 867 c 0,73,74
 220 996 220 996 174 1097 c 128,-1,75
 128 1198 128 1198 128 1211 c 0,0,1
EndSplineSet
Validated: 33
EndChar
StartChar: brokenbar
Encoding: 166 166 104
Width: 1024
VWidth: 0
Flags: W
LayerCount: 3
Back
Fore
SplineSet
448 230 m 128,-1,1
 448 336 448 336 467 411 c 128,-1,2
 486 486 486 486 512 486 c 128,-1,3
 538 486 538 486 557 411 c 128,-1,4
 576 336 576 336 576 230 c 128,-1,5
 576 124 576 124 557 49 c 128,-1,6
 538 -26 538 -26 512 -26 c 128,-1,7
 486 -26 486 -26 467 49 c 128,-1,0
 448 124 448 124 448 230 c 128,-1,1
448 998 m 128,-1,9
 448 1104 448 1104 467 1179 c 128,-1,10
 486 1254 486 1254 512 1254 c 128,-1,11
 538 1254 538 1254 557 1179 c 128,-1,12
 576 1104 576 1104 576 998 c 128,-1,13
 576 892 576 892 557 817 c 128,-1,14
 538 742 538 742 512 742 c 128,-1,15
 486 742 486 742 467 817 c 128,-1,8
 448 892 448 892 448 998 c 128,-1,9
EndSplineSet
Validated: 1
EndChar
StartChar: section
Encoding: 167 167 105
Width: 1020
VWidth: 0
Flags: W
LayerCount: 3
Back
Fore
SplineSet
272 1300 m 0,0,1
 312 1352 312 1352 396.5 1368 c 128,-1,2
 481 1384 481 1384 567.5 1360.5 c 128,-1,3
 654 1337 654 1337 700 1281 c 0,4,5
 726 1250 726 1250 738.5 1222.5 c 128,-1,6
 751 1195 751 1195 751 1175.5 c 128,-1,7
 751 1156 751 1156 740 1145 c 128,-1,8
 729 1134 729 1134 710.5 1133.5 c 128,-1,9
 692 1133 692 1133 664 1146 c 128,-1,10
 636 1159 636 1159 606 1184 c 0,11,12
 569 1215 569 1215 517.5 1225 c 128,-1,13
 466 1235 466 1235 423 1226 c 128,-1,14
 380 1217 380 1217 349.5 1189 c 128,-1,15
 319 1161 319 1161 319 1122 c 0,16,17
 319 1095 319 1095 361 1060 c 128,-1,18
 403 1025 403 1025 465 1000 c 0,19,20
 506 984 506 984 549.5 959.5 c 128,-1,21
 593 935 593 935 629 907 c 128,-1,22
 665 879 665 879 686 854 c 0,23,24
 729 802 729 802 745 612.5 c 128,-1,25
 761 423 761 423 744 232.5 c 128,-1,26
 727 42 727 42 684 -13 c 0,27,28
 644 -65 644 -65 559.5 -81.5 c 128,-1,29
 475 -98 475 -98 389 -74 c 128,-1,30
 303 -50 303 -50 256 6 c 0,31,32
 230 37 230 37 217.5 64.5 c 128,-1,33
 205 92 205 92 205 111 c 128,-1,34
 205 130 205 130 216 141.5 c 128,-1,35
 227 153 227 153 246 153.5 c 128,-1,36
 265 154 265 154 292.5 141 c 128,-1,37
 320 128 320 128 351 103 c 0,38,39
 388 72 388 72 439 61.5 c 128,-1,40
 490 51 490 51 533.5 60.5 c 128,-1,41
 577 70 577 70 607.5 98 c 128,-1,42
 638 126 638 126 638 165 c 0,43,44
 638 183 638 183 618.5 205 c 128,-1,45
 599 227 599 227 565.5 248.5 c 128,-1,46
 532 270 532 270 491 286 c 0,47,48
 429 310 429 310 365.5 352.5 c 128,-1,49
 302 395 302 395 271 433 c 0,50,51
 228 485 228 485 211.5 674.5 c 128,-1,52
 195 864 195 864 212 1054.5 c 128,-1,53
 229 1245 229 1245 272 1300 c 0,0,1
561 790 m 0,54,55
 501 850 501 850 444.5 862 c 128,-1,56
 388 874 388 874 353.5 836 c 128,-1,57
 319 798 319 798 319 720 c 128,-1,58
 319 642 319 642 351.5 572.5 c 128,-1,59
 384 503 384 503 438.5 461.5 c 128,-1,60
 493 420 493 420 555 420 c 0,61,62
 584 420 584 420 604 448.5 c 128,-1,63
 624 477 624 477 630 522 c 128,-1,64
 636 567 636 567 631.5 616.5 c 128,-1,65
 627 666 627 666 608.5 713.5 c 128,-1,66
 590 761 590 761 561 790 c 0,54,55
EndSplineSet
Validated: 33
EndChar
StartChar: dieresis
Encoding: 168 168 106
Width: 1024
VWidth: 0
Flags: W
LayerCount: 3
Back
Fore
SplineSet
640 1446 m 128,-1,1
 640 1499 640 1499 659 1536.5 c 128,-1,2
 678 1574 678 1574 704 1574 c 128,-1,3
 730 1574 730 1574 749 1536.5 c 128,-1,4
 768 1499 768 1499 768 1446 c 128,-1,5
 768 1393 768 1393 749 1355.5 c 128,-1,6
 730 1318 730 1318 704 1318 c 128,-1,7
 678 1318 678 1318 659 1355.5 c 128,-1,0
 640 1393 640 1393 640 1446 c 128,-1,1
256 1446 m 128,-1,9
 256 1499 256 1499 275 1536.5 c 128,-1,10
 294 1574 294 1574 320 1574 c 128,-1,11
 346 1574 346 1574 365 1536.5 c 128,-1,12
 384 1499 384 1499 384 1446 c 128,-1,13
 384 1393 384 1393 365 1355.5 c 128,-1,14
 346 1318 346 1318 320 1318 c 128,-1,15
 294 1318 294 1318 275 1355.5 c 128,-1,8
 256 1393 256 1393 256 1446 c 128,-1,9
EndSplineSet
Validated: 1
EndChar
StartChar: copyright
Encoding: 169 169 107
Width: 1020
VWidth: 0
Flags: W
LayerCount: 3
Back
Fore
SplineSet
285 847 m 0,0,1
 298 880 298 880 346.5 900 c 128,-1,2
 395 920 395 920 457.5 921 c 128,-1,3
 520 922 520 922 582.5 912.5 c 128,-1,4
 645 903 645 903 693 876.5 c 128,-1,5
 741 850 741 850 752 816 c 0,6,7
 768 766 768 766 702 764 c 0,8,9
 660 763 660 763 580 781 c 0,10,11
 548 788 548 788 528.5 791.5 c 128,-1,12
 509 795 509 795 487.5 797 c 128,-1,13
 466 799 466 799 454 799.5 c 128,-1,14
 442 800 442 800 429 796 c 128,-1,15
 416 792 416 792 410.5 787 c 128,-1,16
 405 782 405 782 398 769.5 c 128,-1,17
 391 757 391 757 389 745.5 c 128,-1,18
 387 734 387 734 385 711.5 c 128,-1,19
 383 689 383 689 382.5 668.5 c 128,-1,20
 382 648 382 648 382 615 c 0,21,22
 382 573 382 573 382.5 549 c 128,-1,23
 383 525 383 525 387 500.5 c 128,-1,24
 391 476 391 476 395 464.5 c 128,-1,25
 399 453 399 453 411 443 c 128,-1,26
 423 433 423 433 434.5 431 c 128,-1,27
 446 429 446 429 470 429.5 c 128,-1,28
 494 430 494 430 517 434 c 128,-1,29
 540 438 540 438 580 446 c 0,30,31
 741 477 741 477 752 434 c 0,32,33
 755 422 755 422 749 404 c 0,34,35
 737 371 737 371 665.5 348 c 128,-1,36
 594 325 594 325 504 325 c 0,37,38
 450 325 450 325 418.5 326.5 c 128,-1,39
 387 328 387 328 359 337 c 128,-1,40
 331 346 331 346 318 358 c 128,-1,41
 305 370 305 370 293.5 397 c 128,-1,42
 282 424 282 424 277.5 454.5 c 128,-1,43
 273 485 273 485 268 538 c 0,44,45
 260 624 260 624 265 716 c 128,-1,46
 270 808 270 808 285 847 c 0,0,1
140.5 1045.5 m 128,-1,48
 177 1082 177 1082 284.5 1102 c 128,-1,49
 392 1122 392 1122 510 1122 c 128,-1,50
 628 1122 628 1122 735.5 1102 c 128,-1,51
 843 1082 843 1082 879.5 1045.5 c 128,-1,52
 916 1009 916 1009 936.5 881 c 128,-1,53
 957 753 957 753 957 611.5 c 128,-1,54
 957 470 957 470 936.5 342.5 c 128,-1,55
 916 215 916 215 879.5 178 c 128,-1,56
 843 141 843 141 735.5 121 c 128,-1,57
 628 101 628 101 510 101 c 128,-1,58
 392 101 392 101 284.5 121 c 128,-1,59
 177 141 177 141 140.5 178 c 128,-1,60
 104 215 104 215 83.5 342.5 c 128,-1,61
 63 470 63 470 63 611.5 c 128,-1,62
 63 753 63 753 83.5 881 c 128,-1,47
 104 1009 104 1009 140.5 1045.5 c 128,-1,48
797 612 m 1,63,-1
 797 962 l 1,64,-1
 529 981 l 2,65,66
 465 986 465 986 422 986.5 c 128,-1,67
 379 987 379 987 340.5 980 c 128,-1,68
 302 973 302 973 279 961.5 c 128,-1,69
 256 950 256 950 237 924.5 c 128,-1,70
 218 899 218 899 210 869 c 128,-1,71
 202 839 202 839 198.5 788 c 128,-1,72
 195 737 195 737 196.5 681 c 128,-1,73
 198 625 198 625 204 541 c 2,74,-1
 223 261 l 1,75,-1
 510 261 l 1,76,-1
 797 261 l 1,77,-1
 797 612 l 1,63,-1
EndSplineSet
Validated: 33
EndChar
StartChar: ordfeminine
Encoding: 170 170 108
Width: 1024
VWidth: 0
Flags: W
LayerCount: 3
Back
Fore
SplineSet
192 614 m 128,-1,1
 192 641 192 641 285 659.5 c 128,-1,2
 378 678 378 678 512 678 c 128,-1,3
 646 678 646 678 739 659.5 c 128,-1,4
 832 641 832 641 832 614 c 128,-1,5
 832 587 832 587 739 568.5 c 128,-1,6
 646 550 646 550 512 550 c 128,-1,7
 378 550 378 550 285 568.5 c 128,-1,0
 192 587 192 587 192 614 c 128,-1,1
256 1446 m 0,8,9
 256 1464.05839179 256 1464.05839179 278.806252407 1477.48559695 c 128,-1,10
 301.612504814 1490.91280211 301.612504814 1490.91280211 339.437395666 1497.3111727 c 128,-1,11
 377.262286518 1503.70954329 377.262286518 1503.70954329 424.121616611 1505.82987082 c 128,-1,12
 470.980946704 1507.95019835 470.980946704 1507.95019835 521.249576788 1503.33939337 c 128,-1,13
 571.518206873 1498.72858838 571.518206873 1498.72858838 616.905298052 1490.19658001 c 128,-1,14
 662.292389232 1481.66457164 662.292389232 1481.66457164 699.479441949 1466.6991328 c 128,-1,15
 736.666494666 1451.73369396 736.666494666 1451.73369396 755.200195312 1433.20019531 c 0,16,17
 787.34905754 1401.05133308 787.34905754 1401.05133308 809.67452877 1298.72573158 c 128,-1,18
 832 1196.40013008 832 1196.40013008 832 1081.20019531 c 2,19,-1
 832 806 l 1,20,-1
 582.400390625 806 l 2,21,22
 380.769060867 806 380.769060867 806 273.505386021 898.02995494 c 0,23,24
 193.887443819 966.340458414 193.887443819 966.340458414 205.15990945 1051.09987372 c 0,25,26
 216.929507221 1139.5973026 216.929507221 1139.5973026 322.891484213 1193.52525146 c 0,27,28
 397.251246484 1231.36967047 397.251246484 1231.36967047 505.599609375 1242.1328125 c 0,29,30
 642.021074918 1255.68445905 642.021074918 1255.68445905 665.155310034 1297.91370011 c 0,31,32
 682.136317735 1328.91083764 682.136317735 1328.91083764 624.97374108 1353.84912681 c 0,33,34
 560.447404264 1382 560.447404264 1382 441.599609375 1382 c 0,35,36
 364.799883742 1382 364.799883742 1382 310.399941871 1400.75857338 c 128,-1,37
 256 1419.51714677 256 1419.51714677 256 1446 c 0,8,9
704 1030 m 0,38,39
 704 1051.69815242 704 1051.69815242 693.545144879 1069.61628244 c 128,-1,40
 683.090289757 1087.53441246 683.090289757 1087.53441246 664.055029072 1099.94876577 c 128,-1,41
 645.019768386 1112.36311908 645.019768386 1112.36311908 617.545175396 1119.18155954 c 128,-1,42
 590.070582406 1126 590.070582406 1126 556.799804688 1126 c 0,43,44
 432.000033339 1126 432.000033339 1126 376.600145247 1088.58185887 c 128,-1,45
 321.200257155 1051.16371775 321.200257155 1051.16371775 357.8125 991.599609375 c 0,46,47
 371.96817969 968.570472135 371.96817969 968.570472135 403.858782668 954.240807704 c 128,-1,48
 435.749385646 939.911143273 435.749385646 939.911143273 473.811627488 935.999996333 c 128,-1,49
 511.87386933 932.088849392 511.87386933 932.088849392 552.945841406 936.644652467 c 128,-1,50
 594.017813483 941.200455541 594.017813483 941.200455541 627.399879803 953.036382328 c 128,-1,51
 660.781946123 964.872309115 660.781946123 964.872309115 682.390973062 985.136387854 c 128,-1,52
 704 1005.40046659 704 1005.40046659 704 1030 c 0,38,39
EndSplineSet
Validated: 33
EndChar
StartChar: uni00AD
Encoding: 173 173 111
Width: 1024
VWidth: 0
Flags: W
LayerCount: 3
Back
Fore
SplineSet
192 614 m 128,-1,1
 192 641 192 641 285 659.5 c 128,-1,2
 378 678 378 678 512 678 c 128,-1,3
 646 678 646 678 739 659.5 c 128,-1,4
 832 641 832 641 832 614 c 128,-1,5
 832 587 832 587 739 568.5 c 128,-1,6
 646 550 646 550 512 550 c 128,-1,7
 378 550 378 550 285 568.5 c 128,-1,0
 192 587 192 587 192 614 c 128,-1,1
EndSplineSet
Validated: 1
EndChar
StartChar: registered
Encoding: 174 174 112
Width: 1020
VWidth: 0
Flags: W
LayerCount: 3
Back
Fore
SplineSet
255 612 m 2,0,-1
 255 930 l 1,1,-1
 478 930 l 2,2,3
 674 930 674 930 738.5 838.5 c 128,-1,4
 803 747 803 747 711 599 c 0,5,6
 666 527 666 527 665 479.5 c 128,-1,7
 664 432 664 432 706 382 c 0,8,9
 766 311 766 311 730 293 c 0,10,11
 696 275 696 275 612 319 c 0,12,13
 553 350 553 350 497 400 c 0,14,15
 416 473 416 473 399 473 c 128,-1,16
 382 473 382 473 382 398 c 0,17,18
 382 355 382 355 363.5 324 c 128,-1,19
 345 293 345 293 319 293 c 0,20,21
 292 293 292 293 273.5 386 c 128,-1,22
 255 479 255 479 255 612 c 2,0,-1
638 707 m 128,-1,24
 638 747 638 747 600.5 775 c 128,-1,25
 563 803 563 803 510 803 c 128,-1,26
 457 803 457 803 419.5 775 c 128,-1,27
 382 747 382 747 382 707 c 128,-1,28
 382 667 382 667 419.5 639.5 c 128,-1,29
 457 612 457 612 510 612 c 128,-1,30
 563 612 563 612 600.5 639.5 c 128,-1,23
 638 667 638 667 638 707 c 128,-1,24
140.5 1045.5 m 128,-1,32
 177 1082 177 1082 284.5 1102 c 128,-1,33
 392 1122 392 1122 510 1122 c 128,-1,34
 628 1122 628 1122 735.5 1102 c 128,-1,35
 843 1082 843 1082 879.5 1045.5 c 128,-1,36
 916 1009 916 1009 936.5 881 c 128,-1,37
 957 753 957 753 957 611.5 c 128,-1,38
 957 470 957 470 936.5 342.5 c 128,-1,39
 916 215 916 215 879.5 178 c 128,-1,40
 843 141 843 141 735.5 121 c 128,-1,41
 628 101 628 101 510 101 c 128,-1,42
 392 101 392 101 284.5 121 c 128,-1,43
 177 141 177 141 140.5 178 c 128,-1,44
 104 215 104 215 83.5 342.5 c 128,-1,45
 63 470 63 470 63 611.5 c 128,-1,46
 63 753 63 753 83.5 881 c 128,-1,31
 104 1009 104 1009 140.5 1045.5 c 128,-1,32
797 612 m 1,47,-1
 797 962 l 1,48,-1
 529 981 l 2,49,50
 465 986 465 986 422 986.5 c 128,-1,51
 379 987 379 987 340.5 980 c 128,-1,52
 302 973 302 973 279 961.5 c 128,-1,53
 256 950 256 950 237 924.5 c 128,-1,54
 218 899 218 899 210 869 c 128,-1,55
 202 839 202 839 198.5 788 c 128,-1,56
 195 737 195 737 196.5 681 c 128,-1,57
 198 625 198 625 204 541 c 2,58,-1
 223 261 l 1,59,-1
 510 261 l 1,60,-1
 797 261 l 1,61,-1
 797 612 l 1,47,-1
EndSplineSet
Validated: 33
EndChar
StartChar: plusminus
Encoding: 177 177 115
Width: 1020
VWidth: 0
Flags: W
LayerCount: 3
Back
Fore
SplineSet
128 38 m 128,-1,1
 128 64 128 64 240.5 83 c 128,-1,2
 353 102 353 102 510 102 c 128,-1,3
 667 102 667 102 779.5 83 c 128,-1,4
 892 64 892 64 892 38 c 128,-1,5
 892 12 892 12 779.5 -7 c 128,-1,6
 667 -26 667 -26 510 -26 c 128,-1,7
 353 -26 353 -26 240.5 -7 c 128,-1,0
 128 12 128 12 128 38 c 128,-1,1
446 835 m 0,8,9
 446 902 446 902 464.5 948 c 128,-1,10
 483 994 483 994 510 994 c 128,-1,11
 537 994 537 994 555.5 947.5 c 128,-1,12
 574 901 574 901 574 835 c 0,13,14
 574 739 574 739 606 707 c 128,-1,15
 638 675 638 675 733 675 c 0,16,17
 800 675 800 675 846 656.5 c 128,-1,18
 892 638 892 638 892 611.5 c 128,-1,19
 892 585 892 585 846 566.5 c 128,-1,20
 800 548 800 548 733 548 c 0,21,22
 637 548 637 548 605.5 516 c 128,-1,23
 574 484 574 484 574 388 c 0,24,25
 574 321 574 321 555.5 275 c 128,-1,26
 537 229 537 229 510 229 c 128,-1,27
 483 229 483 229 464.5 275.5 c 128,-1,28
 446 322 446 322 446 388 c 0,29,30
 446 484 446 484 414 516 c 128,-1,31
 382 548 382 548 287 548 c 0,32,33
 220 548 220 548 174 566.5 c 128,-1,34
 128 585 128 585 128 611.5 c 128,-1,35
 128 638 128 638 174 656.5 c 128,-1,36
 220 675 220 675 287 675 c 0,37,38
 383 675 383 675 414.5 707 c 128,-1,39
 446 739 446 739 446 835 c 0,8,9
EndSplineSet
Validated: 1
EndChar
StartChar: uni00B3
Encoding: 179 179 117
Width: 1024
VWidth: 0
Flags: W
LayerCount: 3
Back
Fore
SplineSet
302.080078125 1407.59960938 m 0,0,1
 320.272633731 1426.32756327 320.272633731 1426.32756327 389.736328125 1433.77685547 c 128,-1,2
 459.200022519 1441.22614767 459.200022519 1441.22614767 540.799804688 1433.20019531 c 0,3,4
 572.835109261 1430.04908596 572.835109261 1430.04908596 592.019940966 1427.85400988 c 128,-1,5
 611.20477267 1425.6589338 611.20477267 1425.6589338 632.841240675 1420.00032801 c 128,-1,6
 654.477708679 1414.34172222 654.477708679 1414.34172222 665.821308153 1410.2011466 c 128,-1,7
 677.164907628 1406.06057098 677.164907628 1406.06057098 690.245732862 1393.97635145 c 128,-1,8
 703.326558097 1381.89213191 703.326558097 1381.89213191 708.890253466 1372.22408019 c 128,-1,9
 714.453948835 1362.55602847 714.453948835 1362.55602847 721.040459425 1340.46421864 c 128,-1,10
 727.626970014 1318.3724088 727.626970014 1318.3724088 729.472089403 1299.59490441 c 128,-1,11
 731.317208793 1280.81740003 731.317208793 1280.81740003 733.470732862 1245.13602332 c 128,-1,12
 735.624256932 1209.45464662 735.624256932 1209.45464662 735.812128466 1177.98571301 c 128,-1,13
 736 1146.51677939 736 1146.51677939 736 1094 c 2,14,-1
 736 774 l 1,15,-1
 518.400390625 774 l 2,16,17
 427.199859096 774 427.199859096 774 355.635079705 797.235246418 c 128,-1,18
 284.070300314 820.470492836 284.070300314 820.470492836 272 854 c 0,19,20
 253.100977983 906.498086053 253.100977983 906.498086053 320.142343594 909.361082051 c 0,21,22
 361.397218557 911.122868089 361.397218557 911.122868089 441.599609375 895.599609375 c 0,23,24
 556.800048828 873.303151362 556.800048828 873.303151362 598.400024414 886.722412109 c 128,-1,25
 640 900.141672857 640 900.141672857 640 959.599609375 c 0,26,27
 640 987.967447917 640 987.967447917 627.351344218 1011.49186198 c 128,-1,28
 614.702688436 1035.01627604 614.702688436 1035.01627604 592.648655782 1048.50813802 c 128,-1,29
 570.594623128 1062 570.594623128 1062 544 1062 c 0,30,31
 506 1062 506 1062 477 1081 c 128,-1,32
 448 1100 448 1100 448 1126 c 128,-1,33
 448 1152 448 1152 477 1171 c 128,-1,34
 506 1190 506 1190 544 1190 c 0,35,36
 569.125993074 1190 569.125993074 1190 591.348230039 1200.13135054 c 128,-1,37
 613.570467004 1210.26270109 613.570467004 1210.26270109 626.785233502 1227.29963904 c 128,-1,38
 640 1244.33657699 640 1244.33657699 640 1263.59960938 c 0,39,40
 640 1298.55962956 640 1298.55962956 589.599853516 1307.16992188 c 128,-1,41
 539.199707031 1315.78021419 539.199707031 1315.78021419 448 1296.40039062 c 0,42,43
 295.509999732 1263.99623441 295.509999732 1263.99623441 263.181804362 1308.23704211 c 0,44,45
 238.443140299 1342.09165314 238.443140299 1342.09165314 302.080078125 1407.59960938 c 0,0,1
EndSplineSet
Validated: 33
EndChar
StartChar: acute
Encoding: 180 180 118
Width: 1020
VWidth: 0
Flags: W
LayerCount: 3
Back
Fore
SplineSet
478 1440 m 0,0,1
 525 1493 525 1493 587 1530.5 c 0,2,3
 648 1568 648 1568 688 1568 c 0,4,5
 742 1568 742 1568 742 1546 c 0,6,7
 742 1521 742 1521 669 1440 c 0,8,9
 622 1387 622 1387 560 1350 c 128,-1,10
 498 1313 498 1313 459 1313 c 0,11,12
 405 1313 405 1313 405 1335 c 0,13,14
 405 1359 405 1359 478 1440 c 0,0,1
EndSplineSet
Validated: 524289
EndChar
StartChar: paragraph
Encoding: 182 182 120
Width: 1024
VWidth: 0
Flags: W
LayerCount: 3
Back
Fore
SplineSet
140.799804688 1177.20019531 m 0,0,1
 172.31664369 1208.71703432 172.31664369 1208.71703432 294.958355877 1231.35851716 c 128,-1,2
 417.600068064 1254 417.600068064 1254 556.799804688 1254 c 2,3,-1
 896 1254 l 1,4,-1
 896 614 l 2,5,6
 896 326 896 326 878.5 150 c 128,-1,7
 861 -26 861 -26 832 -26 c 0,8,9
 804 -26 804 -26 786 135 c 128,-1,10
 768 296 768 296 768 550 c 0,11,12
 768 732 768 732 764 838.5 c 128,-1,13
 760 945 760 945 749 1012.5 c 128,-1,14
 738 1080 738 1080 720 1103 c 128,-1,15
 702 1126 702 1126 672 1126 c 128,-1,16
 642 1126 642 1126 624 1103 c 128,-1,17
 606 1080 606 1080 595 1012.5 c 128,-1,18
 584 945 584 945 580 838.5 c 128,-1,19
 576 732 576 732 576 550 c 0,20,21
 576 296 576 296 558 135 c 128,-1,22
 540 -26 540 -26 512 -26 c 0,23,24
 485 -26 485 -26 466.5 58 c 128,-1,25
 448 142 448 142 448 262 c 0,26,27
 448 335.993955466 448 335.993955466 444.937687702 383.319576464 c 128,-1,28
 441.875375404 430.645197463 441.875375404 430.645197463 434.903398235 465.237064161 c 128,-1,29
 427.931421066 499.828930858 427.931421066 499.828930858 414.094609577 517.258795214 c 128,-1,30
 400.257798088 534.688659571 400.257798088 534.688659571 381.327585735 542.344329786 c 128,-1,31
 362.397373383 550 362.397373383 550 332.799804688 550 c 0,32,33
 284.800095777 550 284.800095777 550 228.800169337 572.400049452 c 128,-1,34
 172.800242897 594.800098905 172.800242897 594.800098905 140.799804688 626.799804688 c 0,35,36
 91.343452114 676.256628916 91.343452114 676.256628916 72.5335286458 789.128314458 c 128,-1,37
 53.7236051776 902 53.7236051776 902 72.5335286458 1014.87168554 c 128,-1,38
 91.343452114 1127.74337108 91.343452114 1127.74337108 140.799804688 1177.20019531 c 0,0,1
448 898.799804688 m 0,39,40
 448 1018.79975586 448 1018.79975586 425.352061097 1072.39987793 c 128,-1,41
 402.704122194 1126 402.704122194 1126 352 1126 c 0,42,43
 304.479384694 1126 304.479384694 1126 268.87721085 1096.46539699 c 128,-1,44
 233.275037005 1066.93079399 233.275037005 1066.93079399 216.24770777 1022.02040216 c 128,-1,45
 199.220378535 977.110010328 199.220378535 977.110010328 197.632744704 923.329446836 c 128,-1,46
 196.045110872 869.548883343 196.045110872 869.548883343 210.332668708 821.650538154 c 128,-1,47
 224.620226543 773.752192966 224.620226543 773.752192966 258.28346085 737.608535739 c 128,-1,48
 291.946695156 701.464878512 291.946695156 701.464878512 339.200195312 692.421875 c 0,49,50
 383.175546859 684.005939651 383.175546859 684.005939651 405.998476559 699.662526196 c 128,-1,51
 428.821406258 715.319112742 428.821406258 715.319112742 438.410703129 761.143788908 c 128,-1,52
 448 806.968465074 448 806.968465074 448 898.799804688 c 0,39,40
EndSplineSet
Validated: 33
EndChar
StartChar: cedilla
Encoding: 184 184 122
Width: 1020
VWidth: 0
Flags: W
LayerCount: 3
Back
Fore
SplineSet
392 -185 m 0,0,1
 447 -65 447 -65 506 -34 c 0,2,3
 553 -9 553 -9 568 -61 c 0,4,5
 574 -80 574 -80 574 -109 c 0,6,7
 574 -152 574 -152 539.5 -208.5 c 128,-1,8
 505 -265 505 -265 456 -305 c 128,-1,9
 407 -345 407 -345 370 -345 c 0,10,11
 342 -345 342 -345 360 -271 c 0,12,13
 370 -232 370 -232 392 -185 c 0,0,1
EndSplineSet
Validated: 33
EndChar
StartChar: onequarter
Encoding: 188 188 126
Width: 1020
VWidth: 0
Flags: W
LayerCount: 3
Back
Fore
SplineSet
649 401 m 0,0,1
 733 487 733 487 808.5 549.5 c 128,-1,2
 884 612 884 612 905 612 c 128,-1,3
 926 612 926 612 941 519.5 c 128,-1,4
 956 427 956 427 956 293 c 0,5,6
 956 160 956 160 937.5 67 c 0,7,8
 918 -26 918 -26 892 -26 c 0,9,10
 863 -26 863 -26 846 -8.5 c 128,-1,11
 829 9 829 9 829 38 c 0,12,13
 829 65 829 65 774 83.5 c 0,14,15
 720 102 720 102 638 102 c 0,16,17
 491 102 491 102 465 129 c 0,18,19
 437 158 437 158 507 246 c 0,20,21
 549 299 549 299 649 401 c 0,0,1
829 325 m 0,22,23
 829 350 829 350 825.5 372 c 128,-1,24
 822 394 822 394 816 407 c 128,-1,25
 810 420 810 420 803 420 c 0,26,27
 793 420 793 420 762.5 391.5 c 128,-1,28
 732 363 732 363 701 325 c 0,29,30
 654 267 654 267 659.5 248 c 128,-1,31
 665 229 665 229 727 229 c 0,32,33
 770 229 770 229 799.5 257 c 128,-1,34
 829 285 829 285 829 325 c 0,22,23
450 586 m 0,35,36
 782 920 782 920 882 976 c 1,37,38
 952 1005 952 1005 956 943 c 0,39,40
 956 918 956 918 870.5 820.5 c 128,-1,41
 785 723 785 723 661 603 c 128,-1,42
 537 483 537 483 411 369.5 c 128,-1,43
 285 256 285 256 190.5 185 c 128,-1,44
 96 114 96 114 83 127 c 0,45,46
 64 146 64 146 171.5 280 c 128,-1,47
 279 414 279 414 450 586 c 0,35,36
194 1153 m 0,48,49
 305 1288 305 1288 347 1220 c 0,50,51
 382 1163 382 1163 382 962 c 0,52,53
 382 842 382 842 364 758.5 c 128,-1,54
 346 675 346 675 319 675 c 128,-1,55
 292 675 292 675 273.5 730 c 128,-1,56
 255 785 255 785 255 867 c 0,57,58
 255 948 255 948 235 1003 c 128,-1,59
 215 1058 215 1058 185 1058 c 0,60,61
 115 1057 115 1057 194 1153 c 0,48,49
EndSplineSet
Validated: 524321
EndChar
StartChar: threequarters
Encoding: 190 190 128
Width: 1024
VWidth: 0
Flags: W
LayerCount: 3
Back
Fore
SplineSet
651.6796875 402.799804688 m 0,0,1
 735.919663055 489.199685716 735.919663055 489.199685716 811.887167515 551.599842858 c 128,-1,2
 887.854671975 614 887.854671975 614 908.799804688 614 c 0,3,4
 930.303757053 614 930.303757053 614 945.151878526 521.199929132 c 128,-1,5
 960 428.399858265 960 428.399858265 960 294 c 0,6,7
 960 160 960 160 941.5 67 c 128,-1,8
 923 -26 923 -26 896 -26 c 0,9,10
 867 -26 867 -26 849.5 -8.5 c 128,-1,11
 832 9 832 9 832 38 c 0,12,13
 832 65 832 65 777 83.5 c 128,-1,14
 722 102 722 102 640 102 c 0,15,16
 492.903591053 102 492.903591053 102 466.586418754 129.66255899 c 0,17,18
 438.426699534 159.2618596 438.426699534 159.2618596 509.160884971 247.328887446 c 0,19,20
 551.539709404 300.092301464 551.539709404 300.092301464 651.6796875 402.799804688 c 0,0,1
832 326 m 0,21,22
 832 351.126069247 832 351.126069247 828.476145552 373.348249083 c 128,-1,23
 824.952291104 395.570428918 824.952291104 395.570428918 819.026458615 408.785214459 c 128,-1,24
 813.100626125 422 813.100626125 422 806.400390625 422 c 0,25,26
 796.16032049 422 796.16032049 422 765.440025751 393.199923434 c 128,-1,27
 734.719731012 364.399846869 734.719731012 364.399846869 704 326 c 0,28,29
 657.199886924 267.5 657.199886924 267.5 662.199951172 248.75 c 128,-1,30
 667.200015419 230 667.200015419 230 729.599609375 230 c 0,31,32
 772.799985139 230 772.799985139 230 802.39999257 257.749970146 c 128,-1,33
 832 285.499940292 832 285.499940292 832 326 c 0,21,22
451.53125 524.400390625 m 0,34,35
 784.719393862 859.902317729 784.719393862 859.902317729 885.679808891 915.943852069 c 1,36,37
 955.901354893 945.343189628 955.901354893 945.343189628 960 882.799804688 c 0,38,39
 960 857.217388332 960 857.217388332 874.150827599 759.582510982 c 128,-1,40
 788.301655198 661.947633632 788.301655198 661.947633632 663.815836464 541.561153081 c 128,-1,41
 539.33001773 421.17467253 539.33001773 421.17467253 412.735686974 306.975214107 c 128,-1,42
 286.141356218 192.775755684 286.141356218 192.775755684 191.283586464 121.574871831 c 128,-1,43
 96.4258167097 50.3739879778 96.4258167097 50.3739879778 83.2001953125 63.599609375 c 0,44,45
 64.5908044248 82.2090002627 64.5908044248 82.2090002627 172.256779178 216.904622723 c 128,-1,46
 279.922753931 351.600245183 279.922753931 351.600245183 451.53125 524.400390625 c 0,34,35
110.157226562 1215.59960938 m 0,47,48
 128.317556387 1234.32756395 128.317556387 1234.32756395 197.758789062 1241.77685547 c 128,-1,49
 267.200021738 1249.22614699 267.200021738 1249.22614699 348.799804688 1241.20019531 c 0,50,51
 398.581093255 1236.30375457 398.581093255 1236.30375457 426.417827931 1231.65589313 c 128,-1,52
 454.254562607 1227.00803168 454.254562607 1227.00803168 479.192279491 1214.01789431 c 128,-1,53
 504.129996375 1201.02775693 504.129996375 1201.02775693 514.574222607 1186.30316418 c 128,-1,54
 525.018448838 1171.57857142 525.018448838 1171.57857142 533.052992743 1138.08288997 c 128,-1,55
 541.087536649 1104.58720851 541.087536649 1104.58720851 542.543768324 1067.93708887 c 128,-1,56
 544 1031.28696924 544 1031.28696924 544 966 c 0,57,58
 544 911.032378324 544 911.032378324 543.847756137 882.754205372 c 128,-1,59
 543.695512275 854.47603242 543.695512275 854.47603242 539.33904768 821.283571575 c 128,-1,60
 534.982583086 788.091110729 534.982583086 788.091110729 531.586430301 774.729264882 c 128,-1,61
 528.190277517 761.367419034 528.190277517 761.367419034 514.263989697 744.983553264 c 128,-1,62
 500.337701877 728.599687495 500.337701877 728.599687495 488.980179538 724.604196217 c 128,-1,63
 477.622657199 720.608704939 477.622657199 720.608704939 449.409085522 715.483461711 c 128,-1,64
 421.195513845 710.358218484 421.195513845 710.358218484 397.159161319 710.179109242 c 128,-1,65
 373.122808794 710 373.122808794 710 326.400390625 710 c 0,66,67
 235.199859096 710 235.199859096 710 163.635079705 733.235246418 c 128,-1,68
 92.0703003139 756.470492836 92.0703003139 756.470492836 80 790 c 0,69,70
 61.1009779828 842.498086053 61.1009779828 842.498086053 128.142343594 845.361082051 c 0,71,72
 169.397218557 847.122868089 169.397218557 847.122868089 249.599609375 831.599609375 c 0,73,74
 345.599609375 813.019459808 345.599609375 813.019459808 396.799804688 821.27746582 c 128,-1,75
 448 829.535471833 448 829.535471833 448 863.599609375 c 0,76,77
 448 882.025401677 448 882.025401677 434.785228588 898.321780107 c 128,-1,78
 421.570457176 914.618158537 421.570457176 914.618158537 399.348234954 924.309079268 c 128,-1,79
 377.126012731 934 377.126012731 934 352 934 c 0,80,81
 310.646070975 934 310.646070975 934 286.289655623 951.385861521 c 128,-1,82
 261.933240271 968.771723043 261.933240271 968.771723043 259.883180681 992.134341115 c 128,-1,83
 257.833121091 1015.49695919 257.833121091 1015.49695919 278.456861433 1040.6495334 c 128,-1,84
 299.080601776 1065.80210761 299.080601776 1065.80210761 339.200195312 1079.87011719 c 0,85,86
 374.853018798 1092.37186257 374.853018798 1092.37186257 337.223597321 1092.93969078 c 0,87,88
 307.248445362 1093.39201602 307.248445362 1093.39201602 243.200195312 1085.49609375 c 0,89,90
 113.600384837 1069.51758343 113.600384837 1069.51758343 76.3625488281 1105.93273926 c 128,-1,91
 39.1247128194 1142.34789508 39.1247128194 1142.34789508 110.157226562 1215.59960938 c 0,47,48
EndSplineSet
Validated: 33
EndChar
StartChar: Agrave
Encoding: 192 192 130
Width: 1024
VWidth: 0
Flags: W
LayerCount: 3
Back
Fore
SplineSet
204.799804688 1177.20019531 m 0,0,1
 241.72302535 1214.12306385 241.72302535 1214.12306385 329.599975586 1234.30756181 c 128,-1,2
 417.476925822 1254.49205977 417.476925822 1254.49205977 512 1254.49205977 c 128,-1,3
 606.523074178 1254.49205977 606.523074178 1254.49205977 694.400024414 1234.30756181 c 128,-1,4
 782.27697465 1214.12306385 782.27697465 1214.12306385 819.200195312 1177.20019531 c 0,5,6
 846.637391888 1149.76299874 846.637391888 1149.76299874 866.50023199 1016.43292562 c 128,-1,7
 886.363072092 883.10285251 886.363072092 883.10285251 892.544619572 710.972175939 c 128,-1,8
 898.726167053 538.841499369 898.726167053 538.841499369 896.16010699 371.108019373 c 128,-1,9
 893.594046927 203.374539378 893.594046927 203.374539378 876.369650822 88.6872696891 c 128,-1,10
 859.145254718 -26 859.145254718 -26 832 -26 c 0,11,12
 806 -26 806 -26 787 49 c 128,-1,13
 768 124 768 124 768 230 c 2,14,-1
 768 486 l 1,15,-1
 512 486 l 1,16,-1
 256 486 l 1,17,-1
 256 230 l 2,18,19
 256 124 256 124 237 49 c 128,-1,20
 218 -26 218 -26 192 -26 c 0,21,22
 164.854745282 -26 164.854745282 -26 147.630349178 88.6872696891 c 128,-1,23
 130.405953073 203.374539378 130.405953073 203.374539378 127.83989301 371.108019373 c 128,-1,24
 125.273832947 538.841499369 125.273832947 538.841499369 131.455380428 710.972175939 c 128,-1,25
 137.636927908 883.10285251 137.636927908 883.10285251 157.49976801 1016.43292562 c 128,-1,26
 177.362608112 1149.76299874 177.362608112 1149.76299874 204.799804688 1177.20019531 c 0,0,1
755.200195312 854 m 2,27,28
 752.395141549 889.062699973 752.395141549 889.062699973 749.843993295 913.788118981 c 128,-1,29
 747.292845041 938.51353799 747.292845041 938.51353799 743.109320182 962.720052894 c 128,-1,30
 738.925795323 986.926567798 738.925795323 986.926567798 734.760889779 1002.78234945 c 128,-1,31
 730.595984235 1018.6381311 730.595984235 1018.6381311 723.082867057 1034.10410758 c 128,-1,32
 715.569749878 1049.57008406 715.569749878 1049.57008406 707.938669076 1058.79570492 c 128,-1,33
 700.307588274 1068.02132578 700.307588274 1068.02132578 687.612460807 1076.98624039 c 128,-1,34
 674.91733334 1085.95115501 674.91733334 1085.95115501 661.96765931 1090.78609164 c 128,-1,35
 649.017985281 1095.62102826 649.017985281 1095.62102826 629.288429557 1100.32435758 c 128,-1,36
 609.558873833 1105.0276869 609.558873833 1105.0276869 589.438188607 1107.71141586 c 128,-1,37
 569.317503382 1110.39514481 569.317503382 1110.39514481 540.799804688 1113.20019531 c 0,38,39
 459.200019164 1121.22614221 459.200019164 1121.22614221 389.363891602 1113.77685547 c 128,-1,40
 319.527764039 1106.32756873 319.527764039 1106.32756873 300.799804688 1087.59960938 c 0,41,42
 282.746312197 1069.54611688 282.746312197 1069.54611688 269.373156099 992.172899306 c 128,-1,43
 256 914.799681728 256 914.799681728 256 828.400390625 c 0,44,45
 256 792.926720031 256 792.926720031 256.215837143 771.977149377 c 128,-1,46
 256.431674286 751.027578723 256.431674286 751.027578723 259.297716568 727.072384803 c 128,-1,47
 262.16375885 703.117190883 262.16375885 703.117190883 264.51017894 690.790803674 c 128,-1,48
 266.856599029 678.464416464 266.856599029 678.464416464 275.656052506 663.991009803 c 128,-1,49
 284.455505982 649.517603142 284.455505982 649.517603142 291.697325424 643.527450158 c 128,-1,50
 298.939144866 637.537297174 298.939144866 637.537297174 316.436825943 630.258728553 c 128,-1,51
 333.93450702 622.980159932 333.93450702 622.980159932 348.836542221 621.039291955 c 128,-1,52
 363.738577422 619.098423978 363.738577422 619.098423978 392.699302506 616.727744178 c 128,-1,53
 421.660027589 614.357064378 421.660027589 614.357064378 446.987094955 614.178532189 c 128,-1,54
 472.314162321 614 472.314162321 614 515.200195312 614 c 2,55,-1
 774.400390625 614 l 1,56,-1
 755.200195312 854 l 2,27,28
352 1446 m 0,57,58
 271.831118817 1535.07672343 271.831118817 1535.07672343 279.641085058 1557.89230233 c 0,59,60
 285.154886637 1574 285.154886637 1574 332.799804688 1574 c 0,61,62
 372.399760911 1574 372.399760911 1574 434.439810244 1536.40007801 c 128,-1,63
 496.479859577 1498.80015603 496.479859577 1498.80015603 544 1446 c 0,64,65
 624.168881183 1356.92327657 624.168881183 1356.92327657 616.358914942 1334.10769767 c 0,66,67
 610.845113363 1318 610.845113363 1318 563.200195312 1318 c 0,68,69
 537.237132894 1318 537.237132894 1318 499.640595248 1335.18761193 c 128,-1,70
 462.044057602 1352.37522386 462.044057602 1352.37522386 422.599964648 1381.87879432 c 128,-1,71
 383.155871695 1411.38236478 383.155871695 1411.38236478 352 1446 c 0,57,58
EndSplineSet
Validated: 33
EndChar
StartChar: Atilde
Encoding: 195 195 133
Width: 1020
VWidth: 0
Flags: W
LayerCount: 3
Back
Fore
SplineSet
204 1173 m 0,0,1
 241 1210 241 1210 328.5 1230 c 128,-1,2
 416 1250 416 1250 510 1250 c 128,-1,3
 604 1250 604 1250 691.5 1229.5 c 128,-1,4
 779 1209 779 1209 816 1173 c 0,5,6
 843 1146 843 1146 863 1013 c 128,-1,7
 883 880 883 880 889 708.5 c 128,-1,8
 895 537 895 537 892.5 370 c 128,-1,9
 890 203 890 203 873 88.5 c 128,-1,10
 856 -26 856 -26 829 -26 c 0,11,12
 803 -26 803 -26 784 49 c 128,-1,13
 765 124 765 124 765 229 c 2,14,-1
 765 484 l 1,15,-1
 510 484 l 1,16,-1
 255 484 l 1,17,-1
 255 229 l 2,18,19
 255 123 255 123 236 48.5 c 128,-1,20
 217 -26 217 -26 191 -26 c 0,21,22
 164 -26 164 -26 147 88.5 c 128,-1,23
 130 203 130 203 127.5 370 c 128,-1,24
 125 537 125 537 131 708.5 c 128,-1,25
 137 880 137 880 157 1013 c 128,-1,26
 177 1146 177 1146 204 1173 c 0,0,1
752 851 m 2,27,28
 749 886 749 886 746.5 910.5 c 128,-1,29
 744 935 744 935 740 959 c 128,-1,30
 736 983 736 983 732 999 c 128,-1,31
 728 1015 728 1015 720.5 1030 c 128,-1,32
 713 1045 713 1045 705.5 1054.5 c 128,-1,33
 698 1064 698 1064 685 1073 c 128,-1,34
 672 1082 672 1082 659 1086.5 c 128,-1,35
 646 1091 646 1091 626.5 1096 c 128,-1,36
 607 1101 607 1101 587 1103.5 c 128,-1,37
 567 1106 567 1106 539 1109 c 0,38,39
 458 1117 458 1117 388 1109.5 c 128,-1,40
 318 1102 318 1102 300 1083 c 0,41,42
 282 1065 282 1065 268.5 988 c 128,-1,43
 255 911 255 911 255 825 c 0,44,45
 255 790 255 790 255 769 c 128,-1,46
 255 748 255 748 258 724 c 128,-1,47
 261 700 261 700 263.5 688 c 128,-1,48
 266 676 266 676 274.5 661.5 c 128,-1,49
 283 647 283 647 290.5 641 c 128,-1,50
 298 635 298 635 315.5 628 c 128,-1,51
 333 621 333 621 347.5 619 c 128,-1,52
 362 617 362 617 391 614.5 c 128,-1,53
 420 612 420 612 445 612 c 128,-1,54
 470 612 470 612 513 612 c 2,55,-1
 771 612 l 1,56,-1
 752 851 l 2,27,28
236 1526 m 0,57,58
 292 1581 292 1581 394 1562 c 128,-1,59
 496 1543 496 1543 586 1461 c 0,60,61
 667 1388 667 1388 684 1388 c 128,-1,62
 701 1388 701 1388 701 1463 c 0,63,64
 701 1506 701 1506 722 1537 c 128,-1,65
 743 1568 743 1568 771 1568 c 0,66,67
 822 1568 822 1568 825 1514 c 0,68,69
 828 1456 828 1456 781 1392 c 0,70,71
 737 1333 737 1333 682 1322 c 0,72,73
 633 1313 633 1313 564.5 1338.5 c 128,-1,74
 496 1364 496 1364 443 1412 c 0,75,76
 359 1488 359 1488 339 1490 c 0,77,78
 326 1492 326 1492 322 1473 c 0,79,80
 319 1457 319 1457 319 1418 c 0,81,82
 319 1375 319 1375 300 1344 c 128,-1,83
 281 1313 281 1313 255 1313 c 0,84,85
 230 1313 230 1313 214 1337.5 c 128,-1,86
 198 1362 198 1362 195 1395.5 c 128,-1,87
 192 1429 192 1429 202.5 1466 c 128,-1,88
 213 1503 213 1503 236 1526 c 0,57,58
EndSplineSet
Validated: 33
EndChar
StartChar: Aring
Encoding: 197 197 135
Width: 1020
VWidth: 0
Flags: W
LayerCount: 3
Back
Fore
SplineSet
345 1472 m 0,0,1
 359 1508 359 1508 388.5 1530 c 128,-1,2
 418 1552 418 1552 454 1557.5 c 128,-1,3
 490 1563 490 1563 528.5 1555.5 c 128,-1,4
 567 1548 567 1548 598 1529 c 128,-1,5
 629 1510 629 1510 649 1478.5 c 128,-1,6
 669 1447 669 1447 669 1408 c 0,7,8
 669 1374 669 1374 684 1333.5 c 128,-1,9
 699 1293 699 1293 725 1257 c 128,-1,10
 751 1221 751 1221 781 1198 c 0,11,12
 817 1171 817 1171 837.5 1134.5 c 128,-1,13
 858 1098 858 1098 871 1021.5 c 128,-1,14
 884 945 884 945 888 837 c 128,-1,15
 892 729 892 729 892 545 c 0,16,17
 892 292 892 292 874.5 133 c 128,-1,18
 857 -26 857 -26 829 -26 c 0,19,20
 803 -26 803 -26 784 49 c 128,-1,21
 765 124 765 124 765 229 c 2,22,-1
 765 484 l 1,23,-1
 510 484 l 1,24,-1
 255 484 l 1,25,-1
 255 229 l 2,26,27
 255 123 255 123 236 48.5 c 128,-1,28
 217 -26 217 -26 191 -26 c 0,29,30
 163 -26 163 -26 145.5 132.5 c 128,-1,31
 128 291 128 291 128 545 c 0,32,33
 128 658 128 658 129 734.5 c 128,-1,34
 130 811 130 811 133 878.5 c 128,-1,35
 136 946 136 946 142.5 989 c 128,-1,36
 149 1032 149 1032 158 1068 c 128,-1,37
 167 1104 167 1104 181.5 1127.5 c 128,-1,38
 196 1151 196 1151 213 1169 c 128,-1,39
 230 1187 230 1187 255 1204 c 0,40,41
 308 1241 308 1241 334 1278.5 c 128,-1,42
 360 1316 360 1316 344 1332 c 0,43,44
 328 1348 328 1348 328.5 1388.5 c 128,-1,45
 329 1429 329 1429 345 1472 c 0,0,1
574 1408.5 m 128,-1,47
 574 1446 574 1446 555 1475 c 128,-1,48
 536 1504 536 1504 510 1504 c 128,-1,49
 484 1504 484 1504 465 1475 c 128,-1,50
 446 1446 446 1446 446 1408.5 c 128,-1,51
 446 1371 446 1371 465 1342 c 128,-1,52
 484 1313 484 1313 510 1313 c 128,-1,53
 536 1313 536 1313 555 1342 c 128,-1,46
 574 1371 574 1371 574 1408.5 c 128,-1,47
752 851 m 2,54,55
 749 886 749 886 746.5 910.5 c 128,-1,56
 744 935 744 935 740 959 c 128,-1,57
 736 983 736 983 732 999 c 128,-1,58
 728 1015 728 1015 720.5 1030 c 128,-1,59
 713 1045 713 1045 705.5 1054.5 c 128,-1,60
 698 1064 698 1064 685 1073 c 128,-1,61
 672 1082 672 1082 659 1086.5 c 128,-1,62
 646 1091 646 1091 626.5 1096 c 128,-1,63
 607 1101 607 1101 587 1103.5 c 128,-1,64
 567 1106 567 1106 539 1109 c 0,65,66
 458 1117 458 1117 388 1109.5 c 128,-1,67
 318 1102 318 1102 300 1083 c 0,68,69
 282 1065 282 1065 268.5 988 c 128,-1,70
 255 911 255 911 255 825 c 0,71,72
 255 790 255 790 255 769 c 128,-1,73
 255 748 255 748 258 724 c 128,-1,74
 261 700 261 700 263.5 688 c 128,-1,75
 266 676 266 676 274.5 661.5 c 128,-1,76
 283 647 283 647 290.5 641 c 128,-1,77
 298 635 298 635 315.5 628 c 128,-1,78
 333 621 333 621 347.5 619 c 128,-1,79
 362 617 362 617 391 614.5 c 128,-1,80
 420 612 420 612 445 612 c 128,-1,81
 470 612 470 612 513 612 c 2,82,-1
 771 612 l 1,83,-1
 752 851 l 2,54,55
EndSplineSet
Validated: 33
EndChar
StartChar: AE
Encoding: 198 198 136
Width: 1020
VWidth: 0
Flags: W
LayerCount: 3
Back
Fore
SplineSet
140.5 1172.5 m 128,-1,1
 168 1200 168 1200 268 1219.5 c 128,-1,2
 368 1239 368 1239 492.5 1245.5 c 128,-1,3
 617 1252 617 1252 737 1249 c 128,-1,4
 857 1246 857 1246 938.5 1229 c 128,-1,5
 1020 1212 1020 1212 1020 1185 c 128,-1,6
 1020 1158 1020 1158 965 1140 c 128,-1,7
 910 1122 910 1122 829 1122 c 0,8,9
 781 1122 781 1122 753.5 1120 c 128,-1,10
 726 1118 726 1118 701.5 1109 c 128,-1,11
 677 1100 677 1100 666.5 1087.5 c 128,-1,12
 656 1075 656 1075 648 1046.5 c 128,-1,13
 640 1018 640 1018 639 986 c 128,-1,14
 638 954 638 954 638 898 c 0,15,16
 638 818 638 818 642 778.5 c 128,-1,17
 646 739 646 739 664.5 713 c 128,-1,18
 683 687 683 687 711.5 681 c 128,-1,19
 740 675 740 675 797 675 c 0,20,21
 864 675 864 675 910 656.5 c 128,-1,22
 956 638 956 638 956 611.5 c 128,-1,23
 956 585 956 585 910 566.5 c 128,-1,24
 864 548 864 548 797 548 c 0,25,26
 740 548 740 548 711.5 542 c 128,-1,27
 683 536 683 536 664.5 510 c 128,-1,28
 646 484 646 484 642 444 c 128,-1,29
 638 404 638 404 638 325 c 0,30,31
 638 269 638 269 639 237 c 128,-1,32
 640 205 640 205 648 176.5 c 128,-1,33
 656 148 656 148 666.5 136 c 128,-1,34
 677 124 677 124 701.5 115 c 128,-1,35
 726 106 726 106 753.5 104 c 128,-1,36
 781 102 781 102 829 102 c 0,37,38
 911 102 911 102 965.5 83.5 c 128,-1,39
 1020 65 1020 65 1020 38 c 0,40,41
 1020 12 1020 12 945.5 -7 c 128,-1,42
 871 -26 871 -26 765 -26 c 2,43,-1
 510 -26 l 1,44,-1
 510 261 l 2,45,46
 510 333 510 333 508.5 374 c 128,-1,47
 507 415 507 415 500.5 451 c 128,-1,48
 494 487 494 487 485 503 c 128,-1,49
 476 519 476 519 456 531 c 128,-1,50
 436 543 436 543 413 545.5 c 128,-1,51
 390 548 390 548 350.5 548 c 128,-1,52
 311 548 311 548 288 545.5 c 128,-1,53
 265 543 265 543 245 531 c 128,-1,54
 225 519 225 519 216 503 c 128,-1,55
 207 487 207 487 200.5 451 c 128,-1,56
 194 415 194 415 192.5 374 c 128,-1,57
 191 333 191 333 191 261 c 0,58,59
 191 141 191 141 172.5 57.5 c 128,-1,60
 154 -26 154 -26 127 -26 c 128,-1,61
 100 -26 100 -26 83 88.5 c 128,-1,62
 66 203 66 203 63.5 370 c 128,-1,63
 61 537 61 537 67 708.5 c 128,-1,64
 73 880 73 880 93 1012.5 c 128,-1,0
 113 1145 113 1145 140.5 1172.5 c 128,-1,1
510 898 m 0,65,66
 510 1027 510 1027 486 1074.5 c 128,-1,67
 462 1122 462 1122 395 1122 c 0,68,69
 333 1122 333 1122 295.5 1110 c 128,-1,70
 258 1098 258 1098 233.5 1066.5 c 128,-1,71
 209 1035 209 1035 200 985 c 128,-1,72
 191 935 191 935 191 854 c 0,73,74
 191 797 191 797 197.5 764 c 128,-1,75
 204 731 204 731 222.5 710 c 128,-1,76
 241 689 241 689 270.5 682 c 128,-1,77
 300 675 300 675 351 675 c 0,78,79
 408 675 408 675 436 681 c 128,-1,80
 464 687 464 687 482.5 713 c 128,-1,81
 501 739 501 739 505.5 778.5 c 128,-1,82
 510 818 510 818 510 898 c 0,65,66
EndSplineSet
Validated: 33
EndChar
StartChar: Ccedilla
Encoding: 199 199 137
Width: 1024
VWidth: 0
Flags: W
LayerCount: 3
Back
Fore
SplineSet
202.192382812 1170.79980469 m 0,0,1
 239.593167579 1215.35068268 239.593167579 1215.35068268 336.025054344 1233.19074033 c 128,-1,2
 432.456941109 1251.03079798 432.456941109 1251.03079798 535.825592629 1241.94526126 c 128,-1,3
 639.194244148 1232.85972453 639.194244148 1232.85972453 732.499663719 1198.34287046 c 128,-1,4
 825.80508329 1163.82601639 825.80508329 1163.82601639 857.522460938 1113.20019531 c 0,5,6
 910.0109636 1029.42035233 910.0109636 1029.42035233 889.168508946 978.827101256 c 0,7,8
 874.005462656 942.020121426 874.005462656 942.020121426 832.045579718 954.707384612 c 0,9,10
 790.812018248 968.300076945 790.812018248 968.300076945 749.903320312 1023.59960938 c 0,11,12
 665.600888449 1138.80064128 665.600888449 1138.80064128 476.799804688 1116.40039062 c 2,13,-1
 288 1094 l 1,14,-1
 288 614 l 1,15,-1
 288 134 l 1,16,-1
 476.799804688 111.599609375 l 2,17,18
 665.600751645 89.1993749532 665.600751645 89.1993749532 748.799804688 204.400390625 c 0,19,20
 783.466696227 252.400251268 783.466696227 252.400251268 820.446822725 272.933307028 c 128,-1,21
 857.426949223 293.466362789 857.426949223 293.466362789 875.588867188 274.799804688 c 0,22,23
 894.635313816 255.224478746 894.635313816 255.224478746 896.135417706 223.080011802 c 128,-1,24
 897.635521595 190.935544858 897.635521595 190.935544858 882.965191669 156.117417885 c 128,-1,25
 868.294861744 121.299290912 868.294861744 121.299290912 844.301839581 88.3302774273 c 128,-1,26
 820.308817417 55.3612639427 820.308817417 55.3612639427 786.172160419 30.2851835102 c 128,-1,27
 752.035503421 5.20910307763 752.035503421 5.20910307763 716.799804688 -3.599609375 c 0,28,29
 668.576523495 -15.6559789883 668.576523495 -15.6559789883 617.414022533 -64.0279985467 c 128,-1,30
 566.251521571 -112.400018105 566.251521571 -112.400018105 540.799804688 -170 c 128,-1,31
 515.348795834 -227.600037102 515.348795834 -227.600037102 472.558007272 -275.042101058 c 128,-1,32
 429.76721871 -322.484165014 429.76721871 -322.484165014 393.599609375 -333.200195312 c 0,33,34
 340.101493502 -349.051488904 340.101493502 -349.051488904 338.688528852 -326.117210077 c 0,35,36
 338.169872322 -302.186258804 338.169872322 -302.186258804 384 -218 c 0,37,38
 415.417988458 -160.400110352 415.417988458 -160.400110352 432.436042547 -116.024272721 c 128,-1,39
 449.454096635 -71.6484350889 449.454096635 -71.6484350889 441.599609375 -67.8046875 c 0,40,41
 381.134968053 -38.2155116121 381.134968053 -38.2155116121 350.015542055 -22.6353459677 c 128,-1,42
 318.896116057 -7.05518032337 318.896116057 -7.05518032337 281.992499327 21.0629105887 c 128,-1,43
 245.088882597 49.1810015008 245.088882597 49.1810015008 230.085671449 64.3643908182 c 128,-1,44
 215.082460302 79.5477801355 215.082460302 79.5477801355 195.807867979 121.135130437 c 128,-1,45
 176.533275656 162.722480739 176.533275656 162.722480739 171.117104555 191.596656291 c 128,-1,46
 165.700933453 220.470831842 165.700933453 220.470831842 157.526190733 289.615004095 c 128,-1,47
 149.351448013 358.759176347 149.351448013 358.759176347 146.993142153 415.411700694 c 128,-1,48
 144.634836292 472.06422504 144.634836292 472.06422504 140.43359375 582 c 0,49,50
 121.600168558 1074.80018901 121.600168558 1074.80018901 202.192382812 1170.79980469 c 0,0,1
EndSplineSet
Validated: 33
EndChar
StartChar: Eacute
Encoding: 201 201 139
Width: 1024
VWidth: 0
Flags: W
LayerCount: 3
Back
Fore
SplineSet
128 614 m 1,0,-1
 128 1254 l 1,1,-1
 512 1254 l 2,2,3
 670 1254 670 1254 783 1235 c 128,-1,4
 896 1216 896 1216 896 1190 c 0,5,6
 896 1163 896 1163 803 1144.5 c 128,-1,7
 710 1126 710 1126 576 1126 c 2,8,-1
 256 1126 l 1,9,-1
 256 902 l 2,10,11
 256 858 256 858 256.5 831.5 c 128,-1,12
 257 805 257 805 261.5 778 c 128,-1,13
 266 751 266 751 271 738 c 128,-1,14
 276 725 276 725 289.5 711.5 c 128,-1,15
 303 698 303 698 316 693 c 128,-1,16
 329 688 329 688 356 683.5 c 128,-1,17
 383 679 383 679 409.5 678.5 c 128,-1,18
 436 678 436 678 480 678 c 0,19,20
 571 678 571 678 637.5 659 c 128,-1,21
 704 640 704 640 704 614 c 128,-1,22
 704 588 704 588 637.5 569 c 128,-1,23
 571 550 571 550 480 550 c 0,24,25
 436 550 436 550 409.5 549.5 c 128,-1,26
 383 549 383 549 356 544.5 c 128,-1,27
 329 540 329 540 316 535 c 128,-1,28
 303 530 303 530 289.5 516.5 c 128,-1,29
 276 503 276 503 271 490 c 128,-1,30
 266 477 266 477 261.5 450 c 128,-1,31
 257 423 257 423 256.5 396.5 c 128,-1,32
 256 370 256 370 256 326 c 2,33,-1
 256 102 l 1,34,-1
 576 102 l 2,35,36
 710 102 710 102 803 83.5 c 128,-1,37
 896 65 896 65 896 38 c 0,38,39
 896 12 896 12 783 -7 c 128,-1,40
 670 -26 670 -26 512 -26 c 2,41,-1
 128 -26 l 1,42,-1
 128 614 l 1,0,-1
480 1446 m 0,43,44
 527.520140423 1498.80015603 527.520140423 1498.80015603 589.560189756 1536.40007801 c 128,-1,45
 651.600239089 1574 651.600239089 1574 691.200195312 1574 c 0,46,47
 745.559132917 1574 745.559132917 1574 745.252818376 1551.85169929 c 0,48,49
 744.909260072 1527.01046065 744.909260072 1527.01046065 672 1446 c 0,50,51
 624.479859577 1393.19984397 624.479859577 1393.19984397 562.439810244 1355.59992199 c 128,-1,52
 500.399760911 1318 500.399760911 1318 460.799804688 1318 c 0,53,54
 406.440867083 1318 406.440867083 1318 406.747181624 1340.14830071 c 0,55,56
 407.090739928 1364.98953935 407.090739928 1364.98953935 480 1446 c 0,43,44
EndSplineSet
Validated: 1
EndChar
StartChar: Ecircumflex
Encoding: 202 202 140
Width: 1024
VWidth: 0
Flags: W
LayerCount: 3
Back
Fore
SplineSet
128 614 m 1,0,-1
 128 1254 l 1,1,-1
 512 1254 l 2,2,3
 670 1254 670 1254 783 1235 c 128,-1,4
 896 1216 896 1216 896 1190 c 0,5,6
 896 1163 896 1163 803 1144.5 c 128,-1,7
 710 1126 710 1126 576 1126 c 2,8,-1
 256 1126 l 1,9,-1
 256 902 l 2,10,11
 256 858 256 858 256.5 831.5 c 128,-1,12
 257 805 257 805 261.5 778 c 128,-1,13
 266 751 266 751 271 738 c 128,-1,14
 276 725 276 725 289.5 711.5 c 128,-1,15
 303 698 303 698 316 693 c 128,-1,16
 329 688 329 688 356 683.5 c 128,-1,17
 383 679 383 679 409.5 678.5 c 128,-1,18
 436 678 436 678 480 678 c 0,19,20
 571 678 571 678 637.5 659 c 128,-1,21
 704 640 704 640 704 614 c 128,-1,22
 704 588 704 588 637.5 569 c 128,-1,23
 571 550 571 550 480 550 c 0,24,25
 436 550 436 550 409.5 549.5 c 128,-1,26
 383 549 383 549 356 544.5 c 128,-1,27
 329 540 329 540 316 535 c 128,-1,28
 303 530 303 530 289.5 516.5 c 128,-1,29
 276 503 276 503 271 490 c 128,-1,30
 266 477 266 477 261.5 450 c 128,-1,31
 257 423 257 423 256.5 396.5 c 128,-1,32
 256 370 256 370 256 326 c 2,33,-1
 256 102 l 1,34,-1
 576 102 l 2,35,36
 710 102 710 102 803 83.5 c 128,-1,37
 896 65 896 65 896 38 c 0,38,39
 896 12 896 12 783 -7 c 128,-1,40
 670 -26 670 -26 512 -26 c 2,41,-1
 128 -26 l 1,42,-1
 128 614 l 1,0,-1
358.400390625 1455.59960938 m 0,43,44
 402.508228076 1503.59953025 402.508228076 1503.59953025 448.173166452 1538.79976513 c 128,-1,45
 493.838104828 1574 493.838104828 1574 512 1574 c 128,-1,46
 530.161895172 1574 530.161895172 1574 575.826833548 1538.79976513 c 128,-1,47
 621.491771924 1503.59953025 621.491771924 1503.59953025 665.599609375 1455.59960938 c 0,48,49
 726.631597483 1389.18297093 726.631597483 1389.18297093 728.236734407 1369.56546831 c 0,50,51
 729.509970026 1354.00436402 729.509970026 1354.00436402 705.700540595 1347.00501346 c 0,52,53
 672.347856864 1337.20019531 672.347856864 1337.20019531 512 1337.20019531 c 0,54,55
 340.049442191 1337.20019531 340.049442191 1337.20019531 310.770082878 1349.6600339 c 0,56,57
 283.213399641 1361.38678726 283.213399641 1361.38678726 309.259778962 1398.0754709 c 0,58,59
 321.895453108 1415.87396203 321.895453108 1415.87396203 358.400390625 1455.59960938 c 0,43,44
EndSplineSet
Validated: 1
EndChar
StartChar: Igrave
Encoding: 204 204 142
Width: 1024
VWidth: 0
Flags: W
LayerCount: 3
Back
Fore
SplineSet
320 1190 m 0,0,1
 320 1217 320 1217 375 1235.5 c 128,-1,2
 430 1254 430 1254 512 1254 c 128,-1,3
 594 1254 594 1254 649 1235.5 c 128,-1,4
 704 1217 704 1217 704 1190 c 0,5,6
 704 1161 704 1161 686.5 1143.5 c 128,-1,7
 669 1126 669 1126 640 1126 c 0,8,9
 612 1126 612 1126 594 983 c 128,-1,10
 576 840 576 840 576 614 c 128,-1,11
 576 388 576 388 594 245 c 128,-1,12
 612 102 612 102 640 102 c 0,13,14
 669 102 669 102 686.5 84.5 c 128,-1,15
 704 67 704 67 704 38 c 0,16,17
 704 11 704 11 649 -7.5 c 128,-1,18
 594 -26 594 -26 512 -26 c 128,-1,19
 430 -26 430 -26 375 -7.5 c 128,-1,20
 320 11 320 11 320 38 c 0,21,22
 320 67 320 67 337.5 84.5 c 128,-1,23
 355 102 355 102 384 102 c 0,24,25
 412 102 412 102 430 245 c 128,-1,26
 448 388 448 388 448 614 c 128,-1,27
 448 840 448 840 430 983 c 128,-1,28
 412 1126 412 1126 384 1126 c 0,29,30
 355 1126 355 1126 337.5 1143.5 c 128,-1,31
 320 1161 320 1161 320 1190 c 0,0,1
352 1446 m 0,32,33
 271.831118817 1535.07672343 271.831118817 1535.07672343 279.641085058 1557.89230233 c 0,34,35
 285.154886637 1574 285.154886637 1574 332.799804688 1574 c 0,36,37
 372.399760911 1574 372.399760911 1574 434.439810244 1536.40007801 c 128,-1,38
 496.479859577 1498.80015603 496.479859577 1498.80015603 544 1446 c 0,39,40
 624.168881183 1356.92327657 624.168881183 1356.92327657 616.358914942 1334.10769767 c 0,41,42
 610.845113363 1318 610.845113363 1318 563.200195312 1318 c 0,43,44
 537.237132894 1318 537.237132894 1318 499.640595248 1335.18761193 c 128,-1,45
 462.044057602 1352.37522386 462.044057602 1352.37522386 422.599964648 1381.87879432 c 128,-1,46
 383.155871695 1411.38236478 383.155871695 1411.38236478 352 1446 c 0,32,33
EndSplineSet
Validated: 33
EndChar
StartChar: Iacute
Encoding: 205 205 143
Width: 1020
VWidth: 0
Flags: W
LayerCount: 3
Back
Fore
SplineSet
319 1185 m 0,0,1
 319 1212 319 1212 373.5 1230.5 c 128,-1,2
 428 1249 428 1249 510 1249 c 128,-1,3
 592 1249 592 1249 646.5 1230.5 c 128,-1,4
 701 1212 701 1212 701 1185 c 0,5,6
 701 1156 701 1156 683.5 1139 c 128,-1,7
 666 1122 666 1122 638 1122 c 128,-1,8
 610 1122 610 1122 592 979.5 c 128,-1,9
 574 837 574 837 574 611.5 c 128,-1,10
 574 386 574 386 592 244 c 128,-1,11
 610 102 610 102 638 102 c 0,12,13
 667 102 667 102 684 84.5 c 128,-1,14
 701 67 701 67 701 38 c 0,15,16
 701 11 701 11 646.5 -7.5 c 128,-1,17
 592 -26 592 -26 510 -26 c 128,-1,18
 428 -26 428 -26 373.5 -7.5 c 128,-1,19
 319 11 319 11 319 38 c 0,20,21
 319 67 319 67 336.5 84.5 c 128,-1,22
 354 102 354 102 382 102 c 128,-1,23
 410 102 410 102 428 244 c 128,-1,24
 446 386 446 386 446 611.5 c 128,-1,25
 446 837 446 837 428 979.5 c 128,-1,26
 410 1122 410 1122 382 1122 c 0,27,28
 353 1122 353 1122 336 1139 c 128,-1,29
 319 1156 319 1156 319 1185 c 0,0,1
478 1440 m 0,30,31
 525 1493 525 1493 587 1530.5 c 0,32,33
 648 1568 648 1568 688 1568 c 0,34,35
 742 1568 742 1568 742 1546 c 0,36,37
 742 1521 742 1521 669 1440 c 0,38,39
 622 1387 622 1387 560 1350 c 128,-1,40
 498 1313 498 1313 459 1313 c 0,41,42
 405 1313 405 1313 405 1335 c 0,43,44
 405 1359 405 1359 478 1440 c 0,30,31
EndSplineSet
Validated: 524289
EndChar
StartChar: Icircumflex
Encoding: 206 206 144
Width: 1024
VWidth: 0
Flags: W
LayerCount: 3
Back
Fore
SplineSet
320 1190 m 0,0,1
 320 1217 320 1217 375 1235.5 c 128,-1,2
 430 1254 430 1254 512 1254 c 128,-1,3
 594 1254 594 1254 649 1235.5 c 128,-1,4
 704 1217 704 1217 704 1190 c 0,5,6
 704 1161 704 1161 686.5 1143.5 c 128,-1,7
 669 1126 669 1126 640 1126 c 0,8,9
 612 1126 612 1126 594 983 c 128,-1,10
 576 840 576 840 576 614 c 128,-1,11
 576 388 576 388 594 245 c 128,-1,12
 612 102 612 102 640 102 c 0,13,14
 669 102 669 102 686.5 84.5 c 128,-1,15
 704 67 704 67 704 38 c 0,16,17
 704 11 704 11 649 -7.5 c 128,-1,18
 594 -26 594 -26 512 -26 c 128,-1,19
 430 -26 430 -26 375 -7.5 c 128,-1,20
 320 11 320 11 320 38 c 0,21,22
 320 67 320 67 337.5 84.5 c 128,-1,23
 355 102 355 102 384 102 c 0,24,25
 412 102 412 102 430 245 c 128,-1,26
 448 388 448 388 448 614 c 128,-1,27
 448 840 448 840 430 983 c 128,-1,28
 412 1126 412 1126 384 1126 c 0,29,30
 355 1126 355 1126 337.5 1143.5 c 128,-1,31
 320 1161 320 1161 320 1190 c 0,0,1
358.400390625 1455.59960938 m 0,32,33
 402.508228076 1503.59953025 402.508228076 1503.59953025 448.173166452 1538.79976513 c 128,-1,34
 493.838104828 1574 493.838104828 1574 512 1574 c 128,-1,35
 530.161895172 1574 530.161895172 1574 575.826833548 1538.79976513 c 128,-1,36
 621.491771924 1503.59953025 621.491771924 1503.59953025 665.599609375 1455.59960938 c 0,37,38
 726.631597483 1389.18297093 726.631597483 1389.18297093 728.236734407 1369.56546831 c 0,39,40
 729.509970026 1354.00436402 729.509970026 1354.00436402 705.700540595 1347.00501346 c 0,41,42
 672.347856864 1337.20019531 672.347856864 1337.20019531 512 1337.20019531 c 0,43,44
 340.049442191 1337.20019531 340.049442191 1337.20019531 310.770082878 1349.6600339 c 0,45,46
 283.213399641 1361.38678726 283.213399641 1361.38678726 309.259778962 1398.0754709 c 0,47,48
 321.895453108 1415.87396203 321.895453108 1415.87396203 358.400390625 1455.59960938 c 0,32,33
EndSplineSet
Validated: 1
EndChar
StartChar: Idieresis
Encoding: 207 207 145
Width: 1024
VWidth: 0
Flags: W
LayerCount: 3
Back
Fore
SplineSet
320 1190 m 0,0,1
 320 1217 320 1217 375 1235.5 c 128,-1,2
 430 1254 430 1254 512 1254 c 128,-1,3
 594 1254 594 1254 649 1235.5 c 128,-1,4
 704 1217 704 1217 704 1190 c 0,5,6
 704 1161 704 1161 686.5 1143.5 c 128,-1,7
 669 1126 669 1126 640 1126 c 0,8,9
 612 1126 612 1126 594 983 c 128,-1,10
 576 840 576 840 576 614 c 128,-1,11
 576 388 576 388 594 245 c 128,-1,12
 612 102 612 102 640 102 c 0,13,14
 669 102 669 102 686.5 84.5 c 128,-1,15
 704 67 704 67 704 38 c 0,16,17
 704 11 704 11 649 -7.5 c 128,-1,18
 594 -26 594 -26 512 -26 c 128,-1,19
 430 -26 430 -26 375 -7.5 c 128,-1,20
 320 11 320 11 320 38 c 0,21,22
 320 67 320 67 337.5 84.5 c 128,-1,23
 355 102 355 102 384 102 c 0,24,25
 412 102 412 102 430 245 c 128,-1,26
 448 388 448 388 448 614 c 128,-1,27
 448 840 448 840 430 983 c 128,-1,28
 412 1126 412 1126 384 1126 c 0,29,30
 355 1126 355 1126 337.5 1143.5 c 128,-1,31
 320 1161 320 1161 320 1190 c 0,0,1
640 1446 m 128,-1,33
 640 1499 640 1499 659 1536.5 c 128,-1,34
 678 1574 678 1574 704 1574 c 128,-1,35
 730 1574 730 1574 749 1536.5 c 128,-1,36
 768 1499 768 1499 768 1446 c 128,-1,37
 768 1393 768 1393 749 1355.5 c 128,-1,38
 730 1318 730 1318 704 1318 c 128,-1,39
 678 1318 678 1318 659 1355.5 c 128,-1,32
 640 1393 640 1393 640 1446 c 128,-1,33
256 1446 m 128,-1,41
 256 1499 256 1499 275 1536.5 c 128,-1,42
 294 1574 294 1574 320 1574 c 128,-1,43
 346 1574 346 1574 365 1536.5 c 128,-1,44
 384 1499 384 1499 384 1446 c 128,-1,45
 384 1393 384 1393 365 1355.5 c 128,-1,46
 346 1318 346 1318 320 1318 c 128,-1,47
 294 1318 294 1318 275 1355.5 c 128,-1,40
 256 1393 256 1393 256 1446 c 128,-1,41
EndSplineSet
Validated: 1
EndChar
StartChar: Ntilde
Encoding: 209 209 147
Width: 1024
VWidth: 0
Flags: W
LayerCount: 3
Back
Fore
SplineSet
128 614 m 128,-1,1
 128 902 128 902 145.5 1078 c 128,-1,2
 163 1254 163 1254 192 1254 c 0,3,4
 219.130392323 1254 219.130392323 1254 237.565196162 1211.59995117 c 128,-1,5
 256 1169.19990234 256 1169.19990234 256 1106.79980469 c 0,6,7
 256 1040.56027134 256 1040.56027134 326.40017378 931.440021169 c 128,-1,8
 396.800347559 822.319770993 396.800347559 822.319770993 512 710 c 2,9,-1
 768 460.400390625 l 1,10,-1
 768 857.200195312 l 2,11,12
 768 1025.20004005 768 1025.20004005 786.451647635 1139.60002003 c 128,-1,13
 804.90329527 1254 804.90329527 1254 832 1254 c 0,14,15
 861 1254 861 1254 878.5 1078 c 128,-1,16
 896 902 896 902 896 614 c 128,-1,17
 896 326 896 326 878.5 150 c 128,-1,18
 861 -26 861 -26 832 -26 c 0,19,20
 804.869607677 -26 804.869607677 -26 786.434803838 16.4000488281 c 128,-1,21
 768 58.8000976562 768 58.8000976562 768 121.200195312 c 0,22,23
 768 187.439728655 768 187.439728655 697.59982622 296.559978831 c 128,-1,24
 627.199652441 405.680229007 627.199652441 405.680229007 512 518 c 2,25,-1
 256 767.599609375 l 1,26,-1
 256 370.799804688 l 2,27,28
 256 202.79995995 256 202.79995995 237.548352365 88.3999799748 c 128,-1,29
 219.09670473 -26 219.09670473 -26 192 -26 c 0,30,31
 163 -26 163 -26 145.5 150 c 128,-1,0
 128 326 128 326 128 614 c 128,-1,1
236.799804688 1531.64355469 m 0,32,33
 293.129521743 1586.94883616 293.129521743 1586.94883616 395.364868164 1568.15136719 c 128,-1,34
 497.600214585 1549.35389822 497.600214585 1549.35389822 588.799804688 1466.92285156 c 0,35,36
 670.399658203 1393.16941959 670.399658203 1393.16941959 687.199829102 1393.3848877 c 128,-1,37
 704 1393.6003558 704 1393.6003558 704 1468.40039062 c 0,38,39
 704 1511.60017395 704 1511.60017395 724.80007426 1542.80008697 c 128,-1,40
 745.600148519 1574 745.600148519 1574 774.400390625 1574 c 0,41,42
 825.514321471 1574 825.514321471 1574 828.284819887 1519.93393842 c 0,43,44
 831.29311864 1461.22722172 831.29311864 1461.22722172 783.808790452 1397.33311649 c 0,45,46
 739.95501497 1338.32422129 739.95501497 1338.32422129 684.799804688 1327.59960938 c 0,47,48
 636.061532959 1318.12280459 636.061532959 1318.12280459 566.830820465 1343.96911251 c 128,-1,49
 497.600107971 1369.81542043 497.600107971 1369.81542043 444.799804688 1417.20019531 c 0,50,51
 360.105049601 1493.20829044 360.105049601 1493.20829044 340.520820366 1495.60745821 c 0,52,53
 327.818205087 1497.16359324 327.818205087 1497.16359324 323.51087065 1479.17204759 c 0,54,55
 320.037273732 1463.32270851 320.037273732 1463.32270851 320 1423.59960938 c 0,56,57
 320 1380.39984665 320 1380.39984665 301.090925506 1349.19992332 c 128,-1,58
 282.181851011 1318 282.181851011 1318 256 1318 c 0,59,60
 230.680110607 1318 230.680110607 1318 214.548056754 1342.612352 c 128,-1,61
 198.416002902 1367.224704 198.416002902 1367.224704 195.394997445 1400.84098662 c 128,-1,62
 192.373991988 1434.45726925 192.373991988 1434.45726925 202.953574332 1471.62852632 c 128,-1,63
 213.533156677 1508.79978338 213.533156677 1508.79978338 236.799804688 1531.64355469 c 0,32,33
EndSplineSet
Validated: 33
EndChar
StartChar: Ograve
Encoding: 210 210 148
Width: 1020
VWidth: 0
Flags: W
LayerCount: 3
Back
Fore
SplineSet
204 1173 m 0,0,1
 241 1210 241 1210 328.5 1230 c 128,-1,2
 416 1250 416 1250 510 1250 c 128,-1,3
 604 1250 604 1250 691.5 1229.5 c 128,-1,4
 779 1209 779 1209 816 1173 c 0,5,6
 841 1148 841 1148 858.5 1061 c 128,-1,7
 876 974 876 974 884 859 c 128,-1,8
 892 744 892 744 892 611.5 c 128,-1,9
 892 479 892 479 884 364 c 128,-1,10
 876 249 876 249 858.5 162 c 128,-1,11
 841 75 841 75 816 51 c 0,12,13
 767 2 767 2 638.5 -17 c 128,-1,14
 510 -36 510 -36 381.5 -17.5 c 128,-1,15
 253 1 253 1 204 51 c 0,16,17
 168 87 168 87 147.5 254.5 c 128,-1,18
 127 422 127 422 127 611.5 c 128,-1,19
 127 801 127 801 147.5 969 c 128,-1,20
 168 1137 168 1137 204 1173 c 0,0,1
733 612 m 1,21,-1
 733 1090 l 1,22,-1
 529 1108 l 2,23,24
 488 1112 488 1112 458.5 1112.5 c 128,-1,25
 429 1113 429 1113 401.5 1108.5 c 128,-1,26
 374 1104 374 1104 355.5 1096.5 c 128,-1,27
 337 1089 337 1089 320.5 1071 c 128,-1,28
 304 1053 304 1053 294 1032 c 128,-1,29
 284 1011 284 1011 276.5 976 c 128,-1,30
 269 941 269 941 266 902 c 128,-1,31
 263 863 263 863 262 805.5 c 128,-1,32
 261 748 261 748 263 687 c 128,-1,33
 265 626 265 626 269 541 c 2,34,-1
 287 133 l 1,35,-1
 510 133 l 1,36,-1
 733 133 l 1,37,-1
 733 612 l 1,21,-1
351 1440 m 0,38,39
 271 1529 271 1529 279 1552 c 0,40,41
 284 1568 284 1568 332 1568 c 0,42,43
 371 1568 371 1568 433 1530.5 c 128,-1,44
 495 1493 495 1493 542 1440 c 0,45,46
 622 1351 622 1351 614 1329 c 0,47,48
 609 1313 609 1313 561 1313 c 0,49,50
 535 1313 535 1313 497.5 1330 c 128,-1,51
 460 1347 460 1347 421 1376.5 c 128,-1,52
 382 1406 382 1406 351 1440 c 0,38,39
EndSplineSet
Validated: 33
EndChar
StartChar: Ocircumflex
Encoding: 212 212 150
Width: 1020
VWidth: 0
Flags: W
LayerCount: 3
Back
Fore
SplineSet
204 1173 m 0,0,1
 241 1210 241 1210 328.5 1230 c 128,-1,2
 416 1250 416 1250 510 1250 c 128,-1,3
 604 1250 604 1250 691.5 1229.5 c 128,-1,4
 779 1209 779 1209 816 1173 c 0,5,6
 841 1148 841 1148 858.5 1061 c 128,-1,7
 876 974 876 974 884 859 c 128,-1,8
 892 744 892 744 892 611.5 c 128,-1,9
 892 479 892 479 884 364 c 128,-1,10
 876 249 876 249 858.5 162 c 128,-1,11
 841 75 841 75 816 51 c 0,12,13
 767 2 767 2 638.5 -17 c 128,-1,14
 510 -36 510 -36 381.5 -17.5 c 128,-1,15
 253 1 253 1 204 51 c 0,16,17
 168 87 168 87 147.5 254.5 c 128,-1,18
 127 422 127 422 127 611.5 c 128,-1,19
 127 801 127 801 147.5 969 c 128,-1,20
 168 1137 168 1137 204 1173 c 0,0,1
733 612 m 1,21,-1
 733 1090 l 1,22,-1
 529 1108 l 2,23,24
 488 1112 488 1112 458.5 1112.5 c 128,-1,25
 429 1113 429 1113 401.5 1108.5 c 128,-1,26
 374 1104 374 1104 355.5 1096.5 c 128,-1,27
 337 1089 337 1089 320.5 1071 c 128,-1,28
 304 1053 304 1053 294 1032 c 128,-1,29
 284 1011 284 1011 276.5 976 c 128,-1,30
 269 941 269 941 266 902 c 128,-1,31
 263 863 263 863 262 805.5 c 128,-1,32
 261 748 261 748 263 687 c 128,-1,33
 265 626 265 626 269 541 c 2,34,-1
 287 133 l 1,35,-1
 510 133 l 1,36,-1
 733 133 l 1,37,-1
 733 612 l 1,21,-1
357 1450 m 0,38,39
 401 1498 401 1498 446.5 1533 c 128,-1,40
 492 1568 492 1568 510 1568 c 128,-1,41
 528 1568 528 1568 573.5 1533 c 128,-1,42
 619 1498 619 1498 663 1450 c 0,43,44
 724 1384 724 1384 725 1364 c 0,45,46
 726 1348 726 1348 703 1342 c 0,47,48
 670 1332 670 1332 510 1332 c 0,49,50
 339 1332 339 1332 310 1344 c 0,51,52
 283 1356 283 1356 308 1393 c 0,53,54
 321 1410 321 1410 357 1450 c 0,38,39
EndSplineSet
Validated: 33
EndChar
StartChar: Otilde
Encoding: 213 213 151
Width: 1020
VWidth: 0
Flags: W
LayerCount: 3
Back
Fore
SplineSet
204 1173 m 0,0,1
 241 1210 241 1210 328.5 1230 c 128,-1,2
 416 1250 416 1250 510 1250 c 128,-1,3
 604 1250 604 1250 691.5 1229.5 c 128,-1,4
 779 1209 779 1209 816 1173 c 0,5,6
 841 1148 841 1148 858.5 1061 c 128,-1,7
 876 974 876 974 884 859 c 128,-1,8
 892 744 892 744 892 611.5 c 128,-1,9
 892 479 892 479 884 364 c 128,-1,10
 876 249 876 249 858.5 162 c 128,-1,11
 841 75 841 75 816 51 c 0,12,13
 767 2 767 2 638.5 -17 c 128,-1,14
 510 -36 510 -36 381.5 -17.5 c 128,-1,15
 253 1 253 1 204 51 c 0,16,17
 168 87 168 87 147.5 254.5 c 128,-1,18
 127 422 127 422 127 611.5 c 128,-1,19
 127 801 127 801 147.5 969 c 128,-1,20
 168 1137 168 1137 204 1173 c 0,0,1
733 612 m 1,21,-1
 733 1090 l 1,22,-1
 529 1108 l 2,23,24
 488 1112 488 1112 458.5 1112.5 c 128,-1,25
 429 1113 429 1113 401.5 1108.5 c 128,-1,26
 374 1104 374 1104 355.5 1096.5 c 128,-1,27
 337 1089 337 1089 320.5 1071 c 128,-1,28
 304 1053 304 1053 294 1032 c 128,-1,29
 284 1011 284 1011 276.5 976 c 128,-1,30
 269 941 269 941 266 902 c 128,-1,31
 263 863 263 863 262 805.5 c 128,-1,32
 261 748 261 748 263 687 c 128,-1,33
 265 626 265 626 269 541 c 2,34,-1
 287 133 l 1,35,-1
 510 133 l 1,36,-1
 733 133 l 1,37,-1
 733 612 l 1,21,-1
236 1526 m 0,38,39
 292 1581 292 1581 394 1562 c 128,-1,40
 496 1543 496 1543 586 1461 c 0,41,42
 667 1388 667 1388 684 1388 c 128,-1,43
 701 1388 701 1388 701 1463 c 0,44,45
 701 1506 701 1506 722 1537 c 128,-1,46
 743 1568 743 1568 771 1568 c 0,47,48
 822 1568 822 1568 825 1514 c 0,49,50
 828 1456 828 1456 781 1392 c 0,51,52
 737 1333 737 1333 682 1322 c 0,53,54
 633 1313 633 1313 564.5 1338.5 c 128,-1,55
 496 1364 496 1364 443 1412 c 0,56,57
 359 1488 359 1488 339 1490 c 0,58,59
 326 1492 326 1492 322 1473 c 0,60,61
 319 1457 319 1457 319 1418 c 0,62,63
 319 1375 319 1375 300 1344 c 128,-1,64
 281 1313 281 1313 255 1313 c 0,65,66
 230 1313 230 1313 214 1337.5 c 128,-1,67
 198 1362 198 1362 195 1395.5 c 128,-1,68
 192 1429 192 1429 202.5 1466 c 128,-1,69
 213 1503 213 1503 236 1526 c 0,38,39
EndSplineSet
Validated: 33
EndChar
StartChar: Odieresis
Encoding: 214 214 152
Width: 1020
VWidth: 0
Flags: W
LayerCount: 3
Back
Fore
SplineSet
204 1173 m 0,0,1
 241 1210 241 1210 328.5 1230 c 128,-1,2
 416 1250 416 1250 510 1250 c 128,-1,3
 604 1250 604 1250 691.5 1229.5 c 128,-1,4
 779 1209 779 1209 816 1173 c 0,5,6
 841 1148 841 1148 858.5 1061 c 128,-1,7
 876 974 876 974 884 859 c 128,-1,8
 892 744 892 744 892 611.5 c 128,-1,9
 892 479 892 479 884 364 c 128,-1,10
 876 249 876 249 858.5 162 c 128,-1,11
 841 75 841 75 816 51 c 0,12,13
 767 2 767 2 638.5 -17 c 128,-1,14
 510 -36 510 -36 381.5 -17.5 c 128,-1,15
 253 1 253 1 204 51 c 0,16,17
 168 87 168 87 147.5 254.5 c 128,-1,18
 127 422 127 422 127 611.5 c 128,-1,19
 127 801 127 801 147.5 969 c 128,-1,20
 168 1137 168 1137 204 1173 c 0,0,1
733 612 m 1,21,-1
 733 1090 l 1,22,-1
 529 1108 l 2,23,24
 488 1112 488 1112 458.5 1112.5 c 128,-1,25
 429 1113 429 1113 401.5 1108.5 c 128,-1,26
 374 1104 374 1104 355.5 1096.5 c 128,-1,27
 337 1089 337 1089 320.5 1071 c 128,-1,28
 304 1053 304 1053 294 1032 c 128,-1,29
 284 1011 284 1011 276.5 976 c 128,-1,30
 269 941 269 941 266 902 c 128,-1,31
 263 863 263 863 262 805.5 c 128,-1,32
 261 748 261 748 263 687 c 128,-1,33
 265 626 265 626 269 541 c 2,34,-1
 287 133 l 1,35,-1
 510 133 l 1,36,-1
 733 133 l 1,37,-1
 733 612 l 1,21,-1
638 1440.5 m 128,-1,39
 638 1493 638 1493 656.5 1530.5 c 128,-1,40
 675 1568 675 1568 701 1568 c 128,-1,41
 727 1568 727 1568 746 1530.5 c 128,-1,42
 765 1493 765 1493 765 1440.5 c 128,-1,43
 765 1388 765 1388 746 1350.5 c 128,-1,44
 727 1313 727 1313 701 1313 c 128,-1,45
 675 1313 675 1313 656.5 1350.5 c 128,-1,38
 638 1388 638 1388 638 1440.5 c 128,-1,39
255 1440.5 m 128,-1,47
 255 1493 255 1493 274 1530.5 c 128,-1,48
 293 1568 293 1568 319 1568 c 128,-1,49
 345 1568 345 1568 363.5 1530.5 c 128,-1,50
 382 1493 382 1493 382 1440.5 c 128,-1,51
 382 1388 382 1388 363.5 1350.5 c 128,-1,52
 345 1313 345 1313 319 1313 c 128,-1,53
 293 1313 293 1313 274 1350.5 c 128,-1,46
 255 1388 255 1388 255 1440.5 c 128,-1,47
EndSplineSet
Validated: 33
EndChar
StartChar: multiply
Encoding: 215 215 153
Width: 1024
VWidth: 0
Flags: W
LayerCount: 3
Back
Fore
SplineSet
212.21875 754.799804688 m 2,0,1
 105.654363393 865.966925611 105.654363393 865.966925611 112.671776145 915.227994787 c 0,2,3
 117.688136442 950.44200889 117.688136442 950.44200889 178.292743329 928.709362389 c 0,4,5
 254.380619301 901.424457883 254.380619301 901.424457883 358.400390625 803.947265625 c 2,6,-1
 492.799804688 678 l 1,7,-1
 608 806 l 2,8,9
 655.520115925 858.800128805 655.520115925 858.800128805 719.440046008 896.400064403 c 128,-1,10
 783.359976091 934 783.359976091 934 825.599609375 934 c 0,11,12
 884.150021355 934 884.150021355 934 862.741089708 890.404779432 c 0,13,14
 843.32237002 850.86224728 843.32237002 850.86224728 752 761.200195312 c 2,15,-1
 576 588.400390625 l 1,16,-1
 748.799804688 409.200195312 l 2,17,18
 883.822560152 269.176755319 883.822560152 269.176755319 858.230868557 240.091295031 c 0,19,20
 848.115983948 230.265748234 848.115983948 230.265748234 822.400390625 230 c 0,21,22
 781.47998552 230 781.47998552 230 718.500127529 267.599850257 c 128,-1,23
 655.520269538 305.199700514 655.520269538 305.199700514 608 358 c 2,24,-1
 492.799804688 486 l 1,25,-1
 358.400390625 360.033203125 l 2,26,27
 240.770799878 249.784390698 240.770799878 249.784390698 161.208864288 232.609648404 c 0,28,29
 112.334723509 222.059367462 112.334723509 222.059367462 112.90909686 256.88970849 c 0,30,31
 113.716730836 305.865112302 113.716730836 305.865112302 211.200195312 403.150390625 c 2,32,-1
 384 575.599609375 l 1,33,-1
 212.21875 754.799804688 l 2,0,1
EndSplineSet
Validated: 33
EndChar
StartChar: Uacute
Encoding: 218 218 156
Width: 1024
VWidth: 0
Flags: W
LayerCount: 3
Back
Fore
SplineSet
128 690.799804688 m 0,0,1
 128 809.948582229 128 809.948582229 132.039860689 908.873878762 c 128,-1,2
 136.079721377 1007.79917529 136.079721377 1007.79917529 143.086899535 1072.42943432 c 128,-1,3
 150.094077693 1137.05969334 150.094077693 1137.05969334 159.296296088 1181.46647135 c 128,-1,4
 168.498514483 1225.87324937 168.498514483 1225.87324937 179.067373644 1235.98498987 c 128,-1,5
 189.636232804 1246.09673038 189.636232804 1246.09673038 200.5390355 1235.98498987 c 128,-1,6
 211.441838196 1225.87324937 211.441838196 1225.87324937 222.110604954 1181.46647135 c 128,-1,7
 232.779371711 1137.05969334 232.779371711 1137.05969334 241.920985303 1072.42943432 c 128,-1,8
 251.062598895 1007.79917529 251.062598895 1007.79917529 258.369499844 908.873878762 c 128,-1,9
 265.676400793 809.948582229 265.676400793 809.948582229 269.611328125 690.799804688 c 2,10,-1
 288 134 l 1,11,-1
 512 134 l 1,12,-1
 736 134 l 1,13,-1
 754.388671875 690.799804688 l 2,14,15
 758.323599207 809.948582229 758.323599207 809.948582229 765.630500156 908.873878762 c 128,-1,16
 772.937401105 1007.79917529 772.937401105 1007.79917529 782.079014697 1072.42943432 c 128,-1,17
 791.220628289 1137.05969334 791.220628289 1137.05969334 801.889395046 1181.46647135 c 128,-1,18
 812.558161804 1225.87324937 812.558161804 1225.87324937 823.4609645 1235.98498987 c 128,-1,19
 834.363767196 1246.09673038 834.363767196 1246.09673038 844.932626356 1235.98498987 c 128,-1,20
 855.501485517 1225.87324937 855.501485517 1225.87324937 864.703703912 1181.46647135 c 128,-1,21
 873.905922307 1137.05969334 873.905922307 1137.05969334 880.913100465 1072.42943432 c 128,-1,22
 887.920278623 1007.79917529 887.920278623 1007.79917529 891.960139311 908.873878762 c 128,-1,23
 896 809.948582229 896 809.948582229 896 690.799804688 c 0,24,25
 896 590.203952374 896 590.203952374 894.577928622 516.456043361 c 128,-1,26
 893.155857244 442.708134348 893.155857244 442.708134348 888.483802824 373.259036717 c 128,-1,27
 883.811748404 303.809939086 883.811748404 303.809939086 877.373379794 256.244957424 c 128,-1,28
 870.935011184 208.679975761 870.935011184 208.679975761 858.422115324 165.079903905 c 128,-1,29
 845.909219463 121.479832048 845.909219463 121.479832048 831.451120028 94.4913871111 c 128,-1,30
 816.993020593 67.5029421741 816.993020593 67.5029421741 793.635849699 44.1455054671 c 128,-1,31
 770.278678804 20.7880687601 770.278678804 20.7880687601 744.79741495 8.76976992355 c 128,-1,32
 719.316151096 -3.24852891296 719.316151096 -3.24852891296 682.111271574 -11.9697210954 c 128,-1,33
 644.906392052 -20.6909132779 644.906392052 -20.6909132779 605.398530184 -23.3454566389 c 128,-1,34
 565.890668317 -26 565.890668317 -26 512 -26 c 0,35,36
 444.223740486 -26 444.223740486 -26 397.751593788 -21.7386126572 c 128,-1,37
 351.279447089 -17.4772253144 351.279447089 -17.4772253144 309.098753731 -2.54885529936 c 128,-1,38
 266.918060374 12.3795147156 266.918060374 12.3795147156 241.041751106 33.1864209122 c 128,-1,39
 215.165441838 53.9933271087 215.165441838 53.9933271087 193.009474557 95.3511691147 c 128,-1,40
 170.853507275 136.709011121 170.853507275 136.709011121 159.7069542 185.01141786 c 128,-1,41
 148.560401125 233.3138246 148.560401125 233.3138246 140.563078682 312.051120287 c 128,-1,42
 132.56575624 390.788415973 132.56575624 390.788415973 130.28287812 477.536304945 c 128,-1,43
 128 564.284193918 128 564.284193918 128 690.799804688 c 0,0,1
480 1446 m 0,44,45
 527.520140423 1498.80015603 527.520140423 1498.80015603 589.560189756 1536.40007801 c 128,-1,46
 651.600239089 1574 651.600239089 1574 691.200195312 1574 c 0,47,48
 745.559132917 1574 745.559132917 1574 745.252818376 1551.85169929 c 0,49,50
 744.909260072 1527.01046065 744.909260072 1527.01046065 672 1446 c 0,51,52
 624.479859577 1393.19984397 624.479859577 1393.19984397 562.439810244 1355.59992199 c 128,-1,53
 500.399760911 1318 500.399760911 1318 460.799804688 1318 c 0,54,55
 406.440867083 1318 406.440867083 1318 406.747181624 1340.14830071 c 0,56,57
 407.090739928 1364.98953935 407.090739928 1364.98953935 480 1446 c 0,44,45
EndSplineSet
Validated: 1
EndChar
StartChar: Ucircumflex
Encoding: 219 219 157
Width: 1024
VWidth: 0
Flags: W
LayerCount: 3
Back
Fore
SplineSet
128 690.799804688 m 0,0,1
 128 809.948582229 128 809.948582229 132.039860689 908.873878762 c 128,-1,2
 136.079721377 1007.79917529 136.079721377 1007.79917529 143.086899535 1072.42943432 c 128,-1,3
 150.094077693 1137.05969334 150.094077693 1137.05969334 159.296296088 1181.46647135 c 128,-1,4
 168.498514483 1225.87324937 168.498514483 1225.87324937 179.067373644 1235.98498987 c 128,-1,5
 189.636232804 1246.09673038 189.636232804 1246.09673038 200.5390355 1235.98498987 c 128,-1,6
 211.441838196 1225.87324937 211.441838196 1225.87324937 222.110604954 1181.46647135 c 128,-1,7
 232.779371711 1137.05969334 232.779371711 1137.05969334 241.920985303 1072.42943432 c 128,-1,8
 251.062598895 1007.79917529 251.062598895 1007.79917529 258.369499844 908.873878762 c 128,-1,9
 265.676400793 809.948582229 265.676400793 809.948582229 269.611328125 690.799804688 c 2,10,-1
 288 134 l 1,11,-1
 512 134 l 1,12,-1
 736 134 l 1,13,-1
 754.388671875 690.799804688 l 2,14,15
 758.323599207 809.948582229 758.323599207 809.948582229 765.630500156 908.873878762 c 128,-1,16
 772.937401105 1007.79917529 772.937401105 1007.79917529 782.079014697 1072.42943432 c 128,-1,17
 791.220628289 1137.05969334 791.220628289 1137.05969334 801.889395046 1181.46647135 c 128,-1,18
 812.558161804 1225.87324937 812.558161804 1225.87324937 823.4609645 1235.98498987 c 128,-1,19
 834.363767196 1246.09673038 834.363767196 1246.09673038 844.932626356 1235.98498987 c 128,-1,20
 855.501485517 1225.87324937 855.501485517 1225.87324937 864.703703912 1181.46647135 c 128,-1,21
 873.905922307 1137.05969334 873.905922307 1137.05969334 880.913100465 1072.42943432 c 128,-1,22
 887.920278623 1007.79917529 887.920278623 1007.79917529 891.960139311 908.873878762 c 128,-1,23
 896 809.948582229 896 809.948582229 896 690.799804688 c 0,24,25
 896 590.203952374 896 590.203952374 894.577928622 516.456043361 c 128,-1,26
 893.155857244 442.708134348 893.155857244 442.708134348 888.483802824 373.259036717 c 128,-1,27
 883.811748404 303.809939086 883.811748404 303.809939086 877.373379794 256.244957424 c 128,-1,28
 870.935011184 208.679975761 870.935011184 208.679975761 858.422115324 165.079903905 c 128,-1,29
 845.909219463 121.479832048 845.909219463 121.479832048 831.451120028 94.4913871111 c 128,-1,30
 816.993020593 67.5029421741 816.993020593 67.5029421741 793.635849699 44.1455054671 c 128,-1,31
 770.278678804 20.7880687601 770.278678804 20.7880687601 744.79741495 8.76976992355 c 128,-1,32
 719.316151096 -3.24852891296 719.316151096 -3.24852891296 682.111271574 -11.9697210954 c 128,-1,33
 644.906392052 -20.6909132779 644.906392052 -20.6909132779 605.398530184 -23.3454566389 c 128,-1,34
 565.890668317 -26 565.890668317 -26 512 -26 c 0,35,36
 444.223740486 -26 444.223740486 -26 397.751593788 -21.7386126572 c 128,-1,37
 351.279447089 -17.4772253144 351.279447089 -17.4772253144 309.098753731 -2.54885529936 c 128,-1,38
 266.918060374 12.3795147156 266.918060374 12.3795147156 241.041751106 33.1864209122 c 128,-1,39
 215.165441838 53.9933271087 215.165441838 53.9933271087 193.009474557 95.3511691147 c 128,-1,40
 170.853507275 136.709011121 170.853507275 136.709011121 159.7069542 185.01141786 c 128,-1,41
 148.560401125 233.3138246 148.560401125 233.3138246 140.563078682 312.051120287 c 128,-1,42
 132.56575624 390.788415973 132.56575624 390.788415973 130.28287812 477.536304945 c 128,-1,43
 128 564.284193918 128 564.284193918 128 690.799804688 c 0,0,1
358.400390625 1455.59960938 m 0,44,45
 402.508228076 1503.59953025 402.508228076 1503.59953025 448.173166452 1538.79976513 c 128,-1,46
 493.838104828 1574 493.838104828 1574 512 1574 c 128,-1,47
 530.161895172 1574 530.161895172 1574 575.826833548 1538.79976513 c 128,-1,48
 621.491771924 1503.59953025 621.491771924 1503.59953025 665.599609375 1455.59960938 c 0,49,50
 726.631597483 1389.18297093 726.631597483 1389.18297093 728.236734407 1369.56546831 c 0,51,52
 729.509970026 1354.00436402 729.509970026 1354.00436402 705.700540595 1347.00501346 c 0,53,54
 672.347856864 1337.20019531 672.347856864 1337.20019531 512 1337.20019531 c 0,55,56
 340.049442191 1337.20019531 340.049442191 1337.20019531 310.770082878 1349.6600339 c 0,57,58
 283.213399641 1361.38678726 283.213399641 1361.38678726 309.259778962 1398.0754709 c 0,59,60
 321.895453108 1415.87396203 321.895453108 1415.87396203 358.400390625 1455.59960938 c 0,44,45
EndSplineSet
Validated: 1
EndChar
StartChar: Udieresis
Encoding: 220 220 158
Width: 1020
VWidth: 0
Flags: W
LayerCount: 3
Back
Fore
SplineSet
128 688 m 0,0,1
 128 807 128 807 132 905.5 c 128,-1,2
 136 1004 136 1004 143 1068.5 c 128,-1,3
 150 1133 150 1133 159 1177 c 128,-1,4
 168 1221 168 1221 178.5 1231 c 128,-1,5
 189 1241 189 1241 200 1231 c 128,-1,6
 211 1221 211 1221 221.5 1177 c 128,-1,7
 232 1133 232 1133 241 1068.5 c 128,-1,8
 250 1004 250 1004 257.5 905.5 c 128,-1,9
 265 807 265 807 269 688 c 2,10,-1
 287 133 l 1,11,-1
 510 133 l 1,12,-1
 733 133 l 1,13,-1
 751 688 l 2,14,15
 755 807 755 807 762.5 905.5 c 128,-1,16
 770 1004 770 1004 779 1068.5 c 128,-1,17
 788 1133 788 1133 798.5 1177 c 128,-1,18
 809 1221 809 1221 820 1231 c 128,-1,19
 831 1241 831 1241 841.5 1231 c 128,-1,20
 852 1221 852 1221 861 1177 c 128,-1,21
 870 1133 870 1133 877 1068.5 c 128,-1,22
 884 1004 884 1004 888 905.5 c 128,-1,23
 892 807 892 807 892 688 c 0,24,25
 892 588 892 588 891 514.5 c 128,-1,26
 890 441 890 441 885 372 c 128,-1,27
 880 303 880 303 874 255.5 c 128,-1,28
 868 208 868 208 855.5 164.5 c 128,-1,29
 843 121 843 121 828.5 94 c 128,-1,30
 814 67 814 67 790.5 44 c 128,-1,31
 767 21 767 21 742 9 c 128,-1,32
 717 -3 717 -3 679.5 -12 c 128,-1,33
 642 -21 642 -21 603 -23.5 c 128,-1,34
 564 -26 564 -26 510 -26 c 0,35,36
 442 -26 442 -26 396 -21.5 c 128,-1,37
 350 -17 350 -17 308 -2.5 c 128,-1,38
 266 12 266 12 240 33 c 128,-1,39
 214 54 214 54 192 95 c 128,-1,40
 170 136 170 136 159 184 c 128,-1,41
 148 232 148 232 140 310.5 c 128,-1,42
 132 389 132 389 130 475.5 c 128,-1,43
 128 562 128 562 128 688 c 0,0,1
638 1440.5 m 128,-1,45
 638 1493 638 1493 656.5 1530.5 c 128,-1,46
 675 1568 675 1568 701 1568 c 128,-1,47
 727 1568 727 1568 746 1530.5 c 128,-1,48
 765 1493 765 1493 765 1440.5 c 128,-1,49
 765 1388 765 1388 746 1350.5 c 128,-1,50
 727 1313 727 1313 701 1313 c 128,-1,51
 675 1313 675 1313 656.5 1350.5 c 128,-1,44
 638 1388 638 1388 638 1440.5 c 128,-1,45
255 1440.5 m 128,-1,53
 255 1493 255 1493 274 1530.5 c 128,-1,54
 293 1568 293 1568 319 1568 c 128,-1,55
 345 1568 345 1568 363.5 1530.5 c 128,-1,56
 382 1493 382 1493 382 1440.5 c 128,-1,57
 382 1388 382 1388 363.5 1350.5 c 128,-1,58
 345 1313 345 1313 319 1313 c 128,-1,59
 293 1313 293 1313 274 1350.5 c 128,-1,52
 255 1388 255 1388 255 1440.5 c 128,-1,53
EndSplineSet
Validated: 1
EndChar
StartChar: Yacute
Encoding: 221 221 159
Width: 1024
VWidth: 0
Flags: W
LayerCount: 3
Back
Fore
SplineSet
128 1183.59960938 m 0,0,1
 128 1262.22694686 128 1262.22694686 160.489507164 1255.97417481 c 0,2,3
 205.666668999 1247.27959865 205.666668999 1247.27959865 282.952628689 1095.45188957 c 0,4,5
 312.358862967 1037.68355492 312.358862967 1037.68355492 341.942382812 966 c 0,6,7
 374.434451366 887.269791445 374.434451366 887.269791445 408.608204649 820.984114528 c 128,-1,8
 442.781957931 754.698437611 442.781957931 754.698437611 470.392771914 716.349218805 c 128,-1,9
 498.003585896 678 498.003585896 678 512 678 c 0,10,11
 533.333308293 678 533.333308293 678 582.80002007 762.000158455 c 128,-1,12
 632.266731847 846.000316909 632.266731847 846.000316909 681.599609375 966 c 128,-1,13
 730.933448878 1086.00024146 730.933448878 1086.00024146 778.53339361 1170.00012073 c 128,-1,14
 826.133338341 1254 826.133338341 1254 844.799804688 1254 c 0,15,16
 908.015826858 1254 908.015826858 1254 882.410015393 1151.44413537 c 0,17,18
 856.377306751 1048.61478037 856.377306751 1048.61478037 734.1171875 806 c 0,19,20
 666.352699464 671.599687433 666.352699464 671.599687433 621.176349732 507.942719417 c 128,-1,21
 576 344.285751401 576 344.285751401 576 233.200195312 c 0,22,23
 576 164.022437569 576 164.022437569 567.318288509 104.172438819 c 128,-1,24
 558.636577018 44.3224400698 558.636577018 44.3224400698 543.858794825 9.16122003492 c 128,-1,25
 529.081012632 -26 529.081012632 -26 512 -26 c 128,-1,26
 494.918987368 -26 494.918987368 -26 480.141205175 9.16122003492 c 128,-1,27
 465.363422982 44.3224400698 465.363422982 44.3224400698 456.681711491 104.172438819 c 128,-1,28
 448 164.022437569 448 164.022437569 448 233.200195312 c 0,29,30
 448 344.285927246 448 344.285927246 402.285754696 507.942913716 c 128,-1,31
 356.571509392 671.599900186 356.571509392 671.599900186 288 806 c 0,32,33
 221.877778046 935.599672217 221.877778046 935.599672217 174.938889023 1046.37537913 c 128,-1,34
 128 1157.15108605 128 1157.15108605 128 1183.59960938 c 0,0,1
480 1446 m 0,35,36
 527.520140423 1498.80015603 527.520140423 1498.80015603 589.560189756 1536.40007801 c 128,-1,37
 651.600239089 1574 651.600239089 1574 691.200195312 1574 c 0,38,39
 745.559132917 1574 745.559132917 1574 745.252818376 1551.85169929 c 0,40,41
 744.909260072 1527.01046065 744.909260072 1527.01046065 672 1446 c 0,42,43
 624.479859577 1393.19984397 624.479859577 1393.19984397 562.439810244 1355.59992199 c 128,-1,44
 500.399760911 1318 500.399760911 1318 460.799804688 1318 c 0,45,46
 406.440867083 1318 406.440867083 1318 406.747181624 1340.14830071 c 0,47,48
 407.090739928 1364.98953935 407.090739928 1364.98953935 480 1446 c 0,35,36
EndSplineSet
Validated: 33
EndChar
StartChar: Thorn
Encoding: 222 222 160
Width: 1020
VWidth: 0
Flags: W
LayerCount: 3
Back
Fore
SplineSet
128 611.5 m 128,-1,1
 128 898 128 898 145 1073.5 c 128,-1,2
 162 1249 162 1249 191 1249 c 0,3,4
 217 1249 217 1249 236 1211.5 c 128,-1,5
 255 1174 255 1174 255 1122 c 0,6,7
 255 1090 255 1090 261.5 1068.5 c 128,-1,8
 268 1047 268 1047 283 1032 c 128,-1,9
 298 1017 298 1017 327 1009 c 128,-1,10
 356 1001 356 1001 396 997.5 c 128,-1,11
 436 994 436 994 497 994 c 0,12,13
 612 994 612 994 686 975.5 c 128,-1,14
 760 957 760 957 807 911.5 c 128,-1,15
 854 866 854 866 873 794.5 c 128,-1,16
 892 723 892 723 892 612 c 0,17,18
 892 523 892 523 879.5 460.5 c 128,-1,19
 867 398 867 398 840 352 c 128,-1,20
 813 306 813 306 765.5 280 c 128,-1,21
 718 254 718 254 653.5 241.5 c 128,-1,22
 589 229 589 229 497 229 c 0,23,24
 420 229 420 229 375.5 224 c 128,-1,25
 331 219 331 219 302.5 204 c 128,-1,26
 274 189 274 189 264.5 165.5 c 128,-1,27
 255 142 255 142 255 102 c 0,28,29
 255 49 255 49 236 11.5 c 128,-1,30
 217 -26 217 -26 191 -26 c 0,31,32
 162 -26 162 -26 145 149.5 c 128,-1,0
 128 325 128 325 128 611.5 c 128,-1,1
733 612 m 128,-1,34
 733 658 733 658 732.5 683.5 c 128,-1,35
 732 709 732 709 727.5 737 c 128,-1,36
 723 765 723 765 718.5 778 c 128,-1,37
 714 791 714 791 699 806 c 128,-1,38
 684 821 684 821 671 826 c 128,-1,39
 658 831 658 831 628 838 c 128,-1,40
 598 845 598 845 570.5 847.5 c 128,-1,41
 543 850 543 850 494 854 c 2,42,-1
 255 873 l 1,43,-1
 255 612 l 1,44,-1
 255 350 l 1,45,-1
 494 369 l 2,46,47
 543 373 543 373 570.5 375.5 c 128,-1,48
 598 378 598 378 628 385 c 128,-1,49
 658 392 658 392 671 397 c 128,-1,50
 684 402 684 402 699 417 c 128,-1,51
 714 432 714 432 718.5 445 c 128,-1,52
 723 458 723 458 727.5 486.5 c 128,-1,53
 732 515 732 515 732.5 540.5 c 128,-1,33
 733 566 733 566 733 612 c 128,-1,34
EndSplineSet
Validated: 1
EndChar
StartChar: germandbls
Encoding: 223 223 161
Width: 1024
VWidth: 0
Flags: W
LayerCount: 3
Back
Fore
SplineSet
172.799804688 1215.59960938 m 0,0,1
 211.409980359 1254.21025302 211.409980359 1254.21025302 340.958196748 1258.20885095 c 128,-1,2
 470.506413138 1262.20744888 470.506413138 1262.20744888 599.651829293 1233.10560218 c 128,-1,3
 728.797245448 1204.00375548 728.797245448 1204.00375548 766.377929688 1158 c 0,4,5
 802.705515704 1113.52930422 802.705515704 1113.52930422 812.588134766 1029.36474609 c 128,-1,6
 822.470753827 945.200187971 822.470753827 945.200187971 803.200195312 844.400390625 c 0,7,8
 784.847238116 748.400346925 784.847238116 748.400346925 791.105957031 676.460449219 c 128,-1,9
 797.364675947 604.520551513 797.364675947 604.520551513 825.599609375 586.930664062 c 0,10,11
 870.783387548 558.783945566 870.783387548 558.783945566 887.163081952 446.793104269 c 128,-1,12
 903.542776355 334.802262972 903.542776355 334.802262972 884.406253986 215.835801981 c 128,-1,13
 865.269731616 96.8693409907 865.269731616 96.8693409907 819.200195312 50.7998046875 c 0,14,15
 772.745367932 4.34497730651 772.745367932 4.34497730651 674.372683966 -13.2001953125 c 128,-1,16
 576 -30.7453679315 576 -30.7453679315 477.627316034 -13.2001953125 c 128,-1,17
 379.254632068 4.34497730651 379.254632068 4.34497730651 332.799804688 50.7998046875 c 0,18,19
 289.600097656 94.0002441406 289.600097656 94.0002441406 272.800048828 94.0002441406 c 128,-1,20
 256 94.0002441406 256 94.0002441406 256 50.7998046875 c 0,21,22
 256 17.2000057441 256 17.2000057441 237.999900668 -4.39999712794 c 128,-1,23
 219.999801336 -26 219.999801336 -26 192 -26 c 0,24,25
 171.897144039 -26 171.897144039 -26 156.33345847 95.2081253348 c 128,-1,26
 140.769772902 216.41625067 140.769772902 216.41625067 134.842533717 392.33967154 c 128,-1,27
 128.915294533 568.263092411 128.915294533 568.263092411 129.35273972 747.34439096 c 128,-1,28
 129.790184908 926.425689509 129.790184908 926.425689509 141.396658717 1061.11445279 c 128,-1,29
 153.003132526 1195.80321607 153.003132526 1195.80321607 172.799804688 1215.59960938 c 0,0,1
672 934 m 128,-1,31
 672 986.06142568 672 986.06142568 664.279974209 1016.15864202 c 128,-1,32
 656.559948418 1046.25585836 656.559948418 1046.25585836 632.319925083 1067.1395605 c 128,-1,33
 608.079901748 1088.02326264 608.079901748 1088.02326264 569.879919277 1097.4879572 c 128,-1,34
 531.679936806 1106.95265177 531.679936806 1106.95265177 464 1113.20019531 c 0,35,36
 432.639932427 1116.09490207 432.639932427 1116.09490207 411.377774024 1117.58272586 c 128,-1,37
 390.11561562 1119.07054965 390.11561562 1119.07054965 368.782225976 1118.80140109 c 128,-1,38
 347.448836332 1118.53225254 347.448836332 1118.53225254 334.257774024 1117.07063992 c 128,-1,39
 321.066711715 1115.60902731 321.066711715 1115.60902731 307.982225976 1110.37306516 c 128,-1,40
 294.897740237 1105.137103 294.897740237 1105.137103 287.857774024 1099.07188211 c 128,-1,41
 280.81780781 1093.00666122 280.81780781 1093.00666122 274.062225976 1081.14971359 c 128,-1,42
 267.306644142 1069.29276597 267.306644142 1069.29276597 264.497774024 1056.96976492 c 128,-1,43
 261.688903905 1044.64676388 261.688903905 1044.64676388 259.342225976 1024.51465891 c 128,-1,44
 256.995548047 1004.38255393 256.995548047 1004.38255393 256.497774024 984.14760086 c 128,-1,45
 256 963.912647786 256 963.912647786 256 934 c 0,46,47
 256 896.359723605 256 896.359723605 256.815241147 872.733591711 c 128,-1,48
 257.630482294 849.107459817 257.630482294 849.107459817 261.747258853 826.504758204 c 128,-1,49
 265.864035411 803.90205659 265.864035411 803.90205659 270.940241147 791.887446081 c 128,-1,50
 276.016446883 779.872835572 276.016446883 779.872835572 288.247258853 769.335568751 c 128,-1,51
 300.478070822 758.79830193 300.478070822 758.79830193 313.565241147 755.164408361 c 128,-1,52
 326.652411472 751.530514793 326.652411472 751.530514793 350.747258853 749.827878321 c 128,-1,53
 374.842106233 748.125241849 374.842106233 748.125241849 399.690241147 749.641260778 c 128,-1,54
 424.538376061 751.157279708 424.538376061 751.157279708 464 754.799804688 c 0,55,56
 531.679936806 761.047348233 531.679936806 761.047348233 569.879919277 770.512042797 c 128,-1,57
 608.079901748 779.976737361 608.079901748 779.976737361 632.319925083 800.860439503 c 128,-1,58
 656.559948418 821.744141645 656.559948418 821.744141645 664.279974209 851.841357983 c 128,-1,30
 672 881.93857432 672 881.93857432 672 934 c 128,-1,31
701.217773438 524.400390625 m 0,59,60
 670.589369558 561.476301304 670.589369558 561.476301304 594.494653616 587.738150652 c 128,-1,61
 518.399937673 614 518.399937673 614 441.599609375 614 c 0,62,63
 399.274784527 614 399.274784527 614 372.063452122 611.595474383 c 128,-1,64
 344.852119717 609.190948766 344.852119717 609.190948766 322.602563503 601.204655825 c 128,-1,65
 300.35300729 593.218362885 300.35300729 593.218362885 288.567322203 581.432677797 c 128,-1,66
 276.781637115 569.64699271 276.781637115 569.64699271 268.795344175 547.397436497 c 128,-1,67
 260.809051234 525.147880283 260.809051234 525.147880283 258.404525617 497.936547878 c 128,-1,68
 256 470.725215473 256 470.725215473 256 428.400390625 c 0,69,70
 256 260.400308678 256 260.400308678 345.768469996 175.270228224 c 128,-1,71
 435.536939993 90.1401477702 435.536939993 90.1401477702 588.799804688 112.796875 c 0,72,73
 649.187029395 121.723441757 649.187029395 121.723441757 692.863534183 167.301683781 c 128,-1,74
 736.540038972 212.879925805 736.540038972 212.879925805 752.988196163 273.103025082 c 128,-1,75
 769.436353355 333.326124359 769.436353355 333.326124359 757.102151127 402.50367963 c 128,-1,76
 744.767948899 471.681234902 744.767948899 471.681234902 701.217773438 524.400390625 c 0,59,60
EndSplineSet
Validated: 33
EndChar
StartChar: atilde
Encoding: 227 227 165
Width: 1020
VWidth: 0
Flags: W
LayerCount: 3
Back
Fore
SplineSet
191 803 m 0,0,1
 191 828 191 828 247 843.5 c 128,-1,2
 303 859 303 859 386 861.5 c 128,-1,3
 469 864 469 864 556.5 858 c 128,-1,4
 644 852 644 852 717 834 c 128,-1,5
 790 816 790 816 816 790 c 0,6,7
 848 758 848 758 870 627.5 c 128,-1,8
 892 497 892 497 892 344 c 2,9,-1
 892 -26 l 1,10,-1
 586 -26 l 2,11,12
 337 -26 337 -26 232.5 40 c 128,-1,13
 128 106 128 106 128 261 c 0,14,15
 128 411 128 411 223.5 479.5 c 128,-1,16
 319 548 319 548 529 548 c 0,17,18
 708 548 708 548 748 596 c 0,19,20
 775 629 775 629 715 665 c 0,21,22
 634 714 634 714 459 726 c 0,23,24
 349 734 349 734 270 756.5 c 128,-1,25
 191 779 191 779 191 803 c 0,0,1
765 261 m 0,26,27
 765 298 765 298 762.5 321.5 c 128,-1,28
 760 345 760 345 750 364 c 128,-1,29
 740 383 740 383 726 393 c 128,-1,30
 712 403 712 403 685 410 c 128,-1,31
 658 417 658 417 624.5 418.5 c 128,-1,32
 591 420 591 420 539 420 c 0,33,34
 434 420 434 420 363.5 394.5 c 128,-1,35
 293 369 293 369 276 325 c 0,36,37
 234 214 234 214 302.5 158 c 128,-1,38
 371 102 371 102 548 102 c 0,39,40
 586 102 586 102 612.5 103 c 128,-1,41
 639 104 639 104 662.5 107 c 128,-1,42
 686 110 686 110 701 114.5 c 128,-1,43
 716 119 716 119 728.5 128.5 c 128,-1,44
 741 138 741 138 747 148.5 c 128,-1,45
 753 159 753 159 757.5 176.5 c 128,-1,46
 762 194 762 194 763.5 213.5 c 128,-1,47
 765 233 765 233 765 261 c 0,26,27
236 1207 m 0,48,49
 292 1262 292 1262 394 1243.5 c 128,-1,50
 496 1225 496 1225 586 1142 c 0,51,52
 667 1069 667 1069 684 1069 c 128,-1,53
 701 1069 701 1069 701 1144 c 0,54,55
 701 1187 701 1187 722 1218 c 128,-1,56
 743 1249 743 1249 771 1249 c 0,57,58
 822 1249 822 1249 825 1195 c 0,59,60
 828 1137 828 1137 781 1073 c 0,61,62
 737 1014 737 1014 682 1004 c 0,63,64
 633 995 633 995 564.5 1020.5 c 128,-1,65
 496 1046 496 1046 443 1093 c 0,66,67
 359 1169 359 1169 339 1171 c 0,68,69
 326 1173 326 1173 322 1155 c 0,70,71
 319 1139 319 1139 319 1099 c 0,72,73
 319 1056 319 1056 300 1025 c 128,-1,74
 281 994 281 994 255 994 c 0,75,76
 230 994 230 994 214 1018.5 c 128,-1,77
 198 1043 198 1043 195 1076.5 c 128,-1,78
 192 1110 192 1110 202.5 1147 c 128,-1,79
 213 1184 213 1184 236 1207 c 0,48,49
EndSplineSet
Validated: 33
EndChar
